<?xml version="1.0" standalone="no"?>
<!DOCTYPE svg PUBLIC "-//W3C//DTD SVG 1.1//EN" "http://www.w3.org/Graphics/SVG/1.1/DTD/svg11.dtd" >
<svg>
<metadata>
Created by FontForge 20090622 at Wed Apr 26 08:15:23 2017
 By deploy user
Copyright 2015 &#194;&#169; The Monotype Corporation. All rights reserved.
</metadata>
<defs>
<font id="GillSansNova-SemiBold" horiz-adv-x="333" >
  <font-face 
    font-family="Gill Sans Nova SemiBold"
    font-weight="600"
    font-stretch="normal"
    units-per-em="1000"
    panose-1="2 11 7 2 2 2 4 2 2 3"
    ascent="729"
    descent="-271"
    x-height="466"
    cap-height="682"
    bbox="-442 -262 1219 957"
    underline-thickness="50"
    underline-position="-75"
    unicode-range="U+000D-U+FEFF"
  />
<missing-glyph horiz-adv-x="500" 
d="M12 670h475v-670h-475v670zM88 623l162 -245l161 245h-323zM60 579v-487l161 243zM440 91v488l-162 -244zM411 48l-161 244l-162 -244h323z" />
    <glyph glyph-name="IJ" unicode="IJ" horiz-adv-x="577" 
d="M74 682h132v-682h-132v682zM371 682h132v-654q0 -131 -44 -193t-156 -62q-24 0 -45 4l-23 115q89 0 112.5 25.5t23.5 121.5v643z" />
    <glyph glyph-name="ij" unicode="ij" horiz-adv-x="493" 
d="M123 655q25 0 42.5 -17.5t17.5 -41.5q0 -25 -17.5 -42.5t-42.5 -17.5t-42 18t-17 42q0 23 17 41t42 18zM65 466h117v-466h-117v466zM310 466h117v-499q0 -87 -29.5 -131.5t-93.5 -67.5l-64 87q37 14 53.5 39t16.5 81v491zM367 655q25 0 42 -18t17 -41q0 -26 -16.5 -43
t-42.5 -17q-25 0 -42.5 18t-17.5 42q0 23 18 41t42 18z" />
    <glyph glyph-name="f_f" unicode="ff" horiz-adv-x="578" 
d="M260 691q39 0 66 -9v-96q-28 7 -51 7q-42 0 -61 -24.5t-19 -83.5v-19h167v31q0 87 48 140.5t133 53.5q32 0 65 -9v-96q-35 7 -54 7q-75 0 -75 -95v-32h83v-93h-83v-373h-117v373h-167v-373h-118v373h-69v93h69v29q0 92 49.5 144t133.5 52z" />
    <glyph glyph-name="f_f_i" unicode="ffi" horiz-adv-x="825" 
d="M260 691q39 0 66 -9v-96q-28 7 -51 7q-42 0 -61 -24.5t-19 -83.5v-19h167v31q0 87 48 140.5t133 53.5q27 0 61 -9v-96q-37 7 -50 7q-75 0 -75 -95v-32h97v-93h-97v-373h-117v373h-167v-373h-118v373h-69v93h69v29q0 92 49.5 144t133.5 52zM705 655q25 0 42 -17.5
t17 -41.5q0 -25 -17.5 -42.5t-41.5 -17.5q-25 0 -42.5 18t-17.5 42q0 23 17.5 41t42.5 18zM646 466h117v-466h-117v466z" />
    <glyph glyph-name="f_f_l" unicode="ffl" horiz-adv-x="826" 
d="M649 682h116v-682h-116v682zM260 691q39 0 66 -9v-95q-24 6 -51 6q-42 0 -61 -24.5t-19 -83.5v-19h167v31q0 87 48 140.5t133 53.5q27 0 61 -9v-95q-32 6 -50 6q-75 0 -75 -95v-32h99v-93h-99v-373h-117v373h-167v-373h-118v373h-69v93h69v29q0 92 49.5 144t133.5 52z
" />
    <glyph glyph-name="f_i" unicode="fi" horiz-adv-x="544" 
d="M253 690q35 0 68 -9v-97q-21 9 -51 9q-37 0 -56 -24.5t-19 -82.5v-20h96v-93h-96v-373h-118v373h-69v93h69v17q0 98 47 152.5t129 54.5zM423 655q25 0 42.5 -17.5t17.5 -41.5q0 -25 -17.5 -42.5t-42.5 -17.5q-24 0 -41.5 18t-17.5 42q0 23 17 41t42 18zM365 466h117v-466
h-117v466z" />
    <glyph glyph-name="f_l" unicode="fl" horiz-adv-x="544" 
d="M253 690q35 0 68 -9v-96q-24 8 -51 8q-37 0 -56 -24.5t-19 -82.5v-20h96v-93h-96v-373h-118v373h-69v93h69v17q0 97 46 152t130 55zM365 682h117v-682h-117v682z" />
    <glyph glyph-name=".notdef" horiz-adv-x="500" 
d="M12 670h475v-670h-475v670zM88 623l162 -245l161 245h-323zM60 579v-487l161 243zM440 91v488l-162 -244zM411 48l-161 244l-162 -244h323z" />
    <glyph glyph-name=".null" horiz-adv-x="0" 
 />
    <glyph glyph-name="nonmarkingreturn" 
 />
    <glyph glyph-name="NULL" horiz-adv-x="0" 
 />
    <glyph glyph-name="NULL" horiz-adv-x="0" 
 />
    <glyph glyph-name="CR" unicode="&#xd;" horiz-adv-x="284" 
 />
    <glyph glyph-name="space" unicode=" " horiz-adv-x="284" 
 />
    <glyph glyph-name="exclam" unicode="!" horiz-adv-x="281" 
d="M212 548q0 -140 -43 -298q-12 -44 -27 -44q-16 0 -29 43q-14 57 -29 147t-15 149q0 72 20 109t52 37q71 0 71 -143zM215 66q0 -31 -21 -53t-53 -22q-31 0 -53.5 21.5t-22.5 53.5t22 54t53 22q32 0 53.5 -22.5t21.5 -53.5z" />
    <glyph glyph-name="quotedbl" unicode="&#x22;" horiz-adv-x="401" 
d="M39 682h131v-119l-26 -138h-79l-26 138v119zM230 682h132v-119l-26 -138h-80l-26 138v119z" />
    <glyph glyph-name="numbersign" unicode="#" horiz-adv-x="667" 
d="M230 692h86l-39 -191h181l40 191h85l-40 -191h84v-83h-101l-32 -157h133v-84h-151l-40 -189h-85l39 189h-181l-40 -189h-86l40 189h-83v84h100l33 157h-133v83h150zM259 418l-33 -157h182l32 157h-181z" />
    <glyph glyph-name="dollar" unicode="$" horiz-adv-x="530" 
d="M311 -9v-109h-83v109q-95 10 -193 71v128q95 -83 193 -100v199q-195 53 -195 190q0 65 52 118t143 62v49h83v-49q100 -15 162 -63v-123q-71 68 -162 89v-180q94 -28 143 -78.5t49 -120.5q0 -73 -50.5 -126.5t-141.5 -65.5zM311 259v-169q79 18 79 81q0 18 -6 32
t-19.5 24.5t-24 16.5t-29.5 15zM228 407v156q-38 -4 -60.5 -25.5t-22.5 -49.5q0 -52 83 -81z" />
    <glyph glyph-name="percent" unicode="%" horiz-adv-x="710" 
d="M347 536q0 -66 -46 -111.5t-111 -45.5t-111 45.5t-46 111.5t46 111t111 45t111 -45.5t46 -110.5zM546 692h83l-461 -701h-83zM190 459q31 0 52.5 22t21.5 54t-21.5 54.5t-52.5 22.5t-52 -22.5t-21 -54.5t21 -54t52 -22zM676 148q0 -65 -46 -111t-111 -46t-111 46.5
t-46 110.5q0 65 46 110.5t111 45.5t111 -45t46 -111zM519 71q31 0 52.5 22t21.5 54t-22 54.5t-53 22.5t-51.5 -22.5t-20.5 -54.5q0 -31 20.5 -53.5t52.5 -22.5z" />
    <glyph glyph-name="ampersand" unicode="&#x26;" horiz-adv-x="689" 
d="M297 414q85 48 85 103q0 28 -21 47t-54 19q-32 0 -52 -18t-20 -43q0 -47 62 -108zM34 153q0 59 37 105t120 98q-76 78 -76 154q0 63 48 114.5t141 51.5q87 0 135.5 -48t48.5 -107q0 -97 -128 -178l95 -106q40 40 73 106h119q-43 -102 -122 -185l141 -158h-159l-68 78
q-113 -87 -214 -87q-81 0 -136 47t-55 115zM155 164q0 -27 24 -49t62 -22q54 0 129 62l-113 127q-55 -35 -78.5 -61.5t-23.5 -56.5z" />
    <glyph glyph-name="quotesingle" unicode="'" horiz-adv-x="216" 
d="M43 682h131v-119l-25 -138h-81l-25 138v119z" />
    <glyph glyph-name="parenleft" unicode="(" horiz-adv-x="343" 
d="M267 691h79q-84 -106 -122.5 -214.5t-38.5 -248.5q0 -268 161 -460h-79q-212 210 -212 460q0 133 53.5 241.5t158.5 221.5z" />
    <glyph glyph-name="parenright" unicode=")" horiz-adv-x="343" 
d="M76 -232h-79q84 108 122.5 216t38.5 247q0 266 -161 460h79q111 -118 161.5 -218.5t50.5 -242.5q0 -131 -53.5 -241.5t-158.5 -220.5z" />
    <glyph glyph-name="asterisk" unicode="*" horiz-adv-x="468" 
d="M279 678q0 -18 -6 -44l-29 -111q14 -2 23 -12l84 87q28 28 46 28q13 0 28.5 -18.5t15.5 -37.5q0 -16 -10 -24.5t-36 -16.5l-120 -37q2 -3 2 -12t-2 -13l107 -30q59 -17 59 -48q0 -17 -15 -36t-29 -19q-20 0 -51 32l-80 83q-10 -10 -22 -11l25 -95q9 -39 9 -61
q0 -39 -45 -39q-44 0 -44 40q0 8 2 17.5t5 21.5t4 19l25 97q-13 2 -21 11l-82 -82q-32 -32 -51 -32q-15 0 -29.5 18.5t-14.5 35.5q0 30 55 45l112 33q-2 4 -2 12q0 10 2 13l-118 37q-48 15 -48 40q0 19 16 38.5t29 19.5q15 0 48 -31l83 -85q8 9 21 12l-27 111q-8 34 -8 41
q0 40 45 40q44 0 44 -37z" />
    <glyph glyph-name="plus" unicode="+" horiz-adv-x="564" 
d="M45 292v105h185v188h104v-188h185v-105h-185v-188h-104v188h-185z" />
    <glyph glyph-name="comma" unicode="," horiz-adv-x="246" 
d="M111 152q39 0 63 -33.5t24 -78.5q0 -62 -40.5 -111t-112.5 -64v22q52 38 52 114q-60 17 -60 75q0 31 22 53.5t52 22.5z" />
    <glyph glyph-name="hyphen" unicode="-" horiz-adv-x="377" 
d="M54 290h268v-117h-268v117z" />
    <glyph glyph-name="period" unicode="." horiz-adv-x="239" 
d="M119 136q30 0 52 -21.5t22 -51.5t-21.5 -52.5t-52.5 -22.5q-30 0 -52 21.5t-22 52.5q0 32 22 53t52 21z" />
    <glyph glyph-name="slash" unicode="/" horiz-adv-x="296" 
d="M200 691h87l-190 -700h-87z" />
    <glyph glyph-name="zero" unicode="0" horiz-adv-x="530" 
d="M159 341q0 -118 27 -180t78 -62q50 0 78.5 60.5t28.5 179.5q0 118 -28 181.5t-79 63.5q-47 0 -76 -62t-29 -181zM268 691q102 0 166.5 -96t64.5 -253q0 -163 -67 -257t-167 -94q-104 0 -169 95t-65 255q0 166 69.5 258t167.5 92z" />
    <glyph glyph-name="one" unicode="1" horiz-adv-x="530" 
d="M302 691h68v-691h-126v498l-112 -90l-71 87z" />
    <glyph glyph-name="two" unicode="2" horiz-adv-x="530" 
d="M235 691q91 0 150.5 -59t59.5 -151q0 -25 -6.5 -53.5t-14.5 -51.5t-25.5 -53.5l-28 -48t-33.5 -48.5l-31 -41.5l-32 -40t-26 -31.5h247v-113h-459v9q123 128 180 207q105 145 105 240q0 62 -35 91t-76 29q-86 0 -157 -90v136q90 69 182 69z" />
    <glyph glyph-name="three" unicode="3" horiz-adv-x="530" 
d="M442 508q0 -101 -89 -149q49 -20 74.5 -63.5t25.5 -100.5q0 -94 -65 -149t-156 -55q-89 0 -165 42v121q76 -54 150 -54q48 0 77 26t29 72q0 105 -140 105v97q133 0 133 96q0 40 -29 67t-79 27q-59 0 -124 -38v106q70 33 148 33q96 0 153 -48.5t57 -134.5z" />
    <glyph glyph-name="four" unicode="4" horiz-adv-x="530" 
d="M348 688h74v-394h77v-95h-77v-199h-123v199h-284v71zM299 294v205l-161 -205h161z" />
    <glyph glyph-name="five" unicode="5" horiz-adv-x="530" 
d="M101 682h331v-105h-223v-155q13 1 27 1q102 0 165 -60.5t63 -151.5q0 -96 -63 -158t-168 -62q-95 0 -182 49v116q83 -55 159 -55q57 0 91.5 32t34.5 78q0 58 -46.5 86.5t-101.5 28.5q-59 0 -87 -13v369z" />
    <glyph glyph-name="six" unicode="6" horiz-adv-x="530" 
d="M163 222q0 -58 34 -89t75 -31q47 0 74 29.5t27 76.5q0 49 -30 76.5t-78 27.5q-39 0 -70.5 -22t-31.5 -68zM313 691l93 -68q-149 -102 -199 -229q40 20 89 20q83 0 141.5 -55.5t58.5 -148.5q0 -92 -62.5 -155.5t-160.5 -63.5q-107 0 -170 70.5t-63 183.5q0 255 273 446z
" />
    <glyph glyph-name="seven" unicode="7" horiz-adv-x="530" 
d="M48 682h463v-9l-302 -682l-109 42l236 537h-288v112z" />
    <glyph glyph-name="eight" unicode="8" horiz-adv-x="530" 
d="M171 493q0 -43 29 -71t68 -28q38 0 66.5 28t28.5 70t-26.5 70.5t-69.5 28.5t-69.5 -28.5t-26.5 -69.5zM155 195q0 -46 31 -75.5t81 -29.5q48 0 78 30t30 76q0 45 -31 74.5t-80 29.5q-48 0 -78.5 -30t-30.5 -75zM268 691q98 0 157 -57t59 -135q0 -92 -86 -150
q100 -54 100 -163q0 -80 -61 -137.5t-171 -57.5q-111 0 -172.5 59t-61.5 136q0 50 25.5 93.5t75.5 69.5q-82 63 -82 149q0 79 60.5 136t156.5 57z" />
    <glyph glyph-name="nine" unicode="9" horiz-adv-x="530" 
d="M158 473q0 -44 27.5 -73.5t70.5 -29.5q49 0 81.5 21.5t32.5 69.5q0 50 -30.5 85t-80.5 35q-45 0 -73 -30t-28 -78zM257 691q103 0 169.5 -69.5t66.5 -184.5q0 -121 -74.5 -243t-198.5 -203l-94 66q151 105 196 233q-53 -25 -116 -16q-76 7 -123.5 63.5t-47.5 134.5
q0 93 64 156t158 63z" />
    <glyph glyph-name="colon" unicode=":" horiz-adv-x="246" 
d="M122 136q31 0 53 -21.5t22 -51.5t-22 -52.5t-53 -22.5q-30 0 -51.5 22t-21.5 52q0 32 21.5 53t51.5 21zM122 474q31 0 53 -21.5t22 -51.5t-22 -52.5t-53 -22.5q-30 0 -51.5 22t-21.5 52q0 32 21.5 53t51.5 21z" />
    <glyph glyph-name="semicolon" unicode=";" horiz-adv-x="252" 
d="M119 152q39 0 63 -33.5t24 -78.5q0 -62 -40.5 -111t-112.5 -64v22q52 38 52 114q-60 17 -60 75q0 32 22 54t52 22zM126 474q30 0 52 -21.5t22 -51.5t-22 -52.5t-52 -22.5t-52 21.5t-22 52.5q0 32 22 53t52 21z" />
    <glyph glyph-name="less" unicode="&#x3c;" horiz-adv-x="564" 
d="M45 298v77l474 214v-114l-327 -139q43 -21 164.5 -70.5t162.5 -69.5v-114z" />
    <glyph glyph-name="equal" unicode="=" horiz-adv-x="564" 
d="M45 167v105h474v-105h-474zM45 416v105h474v-105h-474z" />
    <glyph glyph-name="greater" unicode="&#x3e;" horiz-adv-x="564" 
d="M45 82v114l326 141q-39 20 -166.5 71t-159.5 67v114l474 -214v-77z" />
    <glyph glyph-name="question" unicode="?" horiz-adv-x="350" 
d="M51 567l39 116q31 8 67 8q64 0 107 -37t43 -108q0 -78 -84 -175q-70 -85 -70 -152q0 -15 5 -23q-70 15 -70 81q0 55 45 131q44 74 44 116q0 28 -17.5 44.5t-48.5 16.5q-28 0 -60 -18zM148 140q30 0 52.5 -22t22.5 -52q0 -31 -22 -53t-53 -22t-52.5 21.5t-21.5 52.5t22 53
t52 22z" />
    <glyph glyph-name="at" unicode="@" horiz-adv-x="928" 
d="M736 14l41 -61q-127 -103 -349 -103q-176 0 -284.5 108t-108.5 298q0 120 55.5 219t162 159t244.5 60q175 0 286 -90t111 -241q0 -137 -73.5 -219t-197.5 -82q-88 0 -98 82q-76 -82 -157 -82q-62 0 -98 47t-36 125q0 120 74 198t214 78q79 0 152 -22l-50 -274
q-4 -28 -4 -39q0 -30 29 -30q69 0 112 62t43 158q0 116 -81.5 184.5t-225.5 68.5q-174 0 -273.5 -100.5t-99.5 -261.5q0 -154 81.5 -243t227.5 -89q188 0 303 90zM526 225l35 193q-23 7 -57 7q-76 0 -120.5 -51.5t-44.5 -129.5q0 -99 73 -99q54 0 114 80z" />
    <glyph glyph-name="A" unicode="A" horiz-adv-x="717" 
d="M295 685h119l303 -685h-135l-79 181h-292l-76 -181h-135zM354 526l-101 -247h207z" />
    <glyph glyph-name="B" unicode="B" horiz-adv-x="618" 
d="M74 682h240q104 0 162 -47t58 -125q0 -103 -101 -145q75 -18 115.5 -65.5t40.5 -111.5q0 -99 -73.5 -143.5t-187.5 -44.5h-254v682zM205 587v-194h71q65 0 96.5 26.5t31.5 73.5q0 49 -27.5 71.5t-88.5 22.5h-83zM205 95h98q152 0 152 102t-155 102h-95v-204z" />
    <glyph glyph-name="C" unicode="C" horiz-adv-x="718" 
d="M418 691q120 0 247 -54v-129q-117 70 -232 70q-116 0 -184.5 -70.5t-68.5 -168.5t68 -166.5t183 -68.5q126 0 239 75v-128q-111 -60 -254 -60q-89 0 -161 29.5t-117.5 79t-69.5 111.5t-24 129q0 154 107 252.5t267 98.5z" />
    <glyph glyph-name="D" unicode="D" horiz-adv-x="767" 
d="M74 682h273q176 0 276 -93.5t100 -242.5q0 -160 -99.5 -253t-272.5 -93h-277v682zM206 105h135q120 0 183.5 62t63.5 176q0 110 -65.5 173t-191.5 63h-125v-474z" />
    <glyph glyph-name="E" unicode="E" horiz-adv-x="557" 
d="M74 682h424v-103h-292v-181h281v-103h-281v-191h301v-104h-433v682z" />
    <glyph glyph-name="F" unicode="F" horiz-adv-x="513" 
d="M74 682h403v-104h-271v-170h271v-104h-271v-304h-132v682z" />
    <glyph glyph-name="G" unicode="G" horiz-adv-x="756" 
d="M672 636v-120q-113 67 -236 67q-116 0 -186 -71.5t-70 -171.5q0 -103 69.5 -171.5t181.5 -68.5q54 0 131 23v123h-118v102h242v-301q-129 -56 -266 -56q-177 0 -276.5 100.5t-99.5 245.5q0 148 102.5 251t274.5 103q119 0 251 -55z" />
    <glyph glyph-name="H" unicode="H" horiz-adv-x="771" 
d="M74 682h132v-281h359v281h132v-682h-132v287h-359v-287h-132v682z" />
    <glyph glyph-name="I" unicode="I" horiz-adv-x="280" 
d="M74 682h132v-682h-132v682z" />
    <glyph glyph-name="J" unicode="J" horiz-adv-x="285" 
d="M79 682h132v-654q0 -131 -44 -193t-156 -62q-24 0 -45 4l-23 115q89 0 112.5 25.5t23.5 121.5v643z" />
    <glyph glyph-name="K" unicode="K" horiz-adv-x="695" 
d="M74 682h133v-313l273 313h154l-282 -322l345 -360h-171l-319 334v-334h-133v682z" />
    <glyph glyph-name="L" unicode="L" horiz-adv-x="532" 
d="M74 682h133v-569h308v-113h-441v682z" />
    <glyph glyph-name="M" unicode="M" horiz-adv-x="833" 
d="M74 682h122l221 -272l220 272h121v-682h-132v487l-201 -252h-18l-203 252v-487h-130v682z" />
    <glyph glyph-name="N" unicode="N" horiz-adv-x="813" 
d="M74 682h113l423 -481v481h129v-682h-116l-420 478v-478h-129v682z" />
    <glyph glyph-name="O" unicode="O" horiz-adv-x="832" 
d="M416 691q166 0 269 -100t103 -249q0 -146 -101.5 -248.5t-274.5 -102.5q-167 0 -267.5 102t-100.5 247q0 66 23.5 128t68 112.5t117 80.5t163.5 30zM417 572q-109 0 -173.5 -65.5t-64.5 -166.5t67.5 -165.5t166.5 -64.5q105 0 172.5 61t67.5 171q0 92 -63.5 161
t-172.5 69z" />
    <glyph glyph-name="P" unicode="P" horiz-adv-x="582" 
d="M74 682h245q110 0 172.5 -53t62.5 -147t-62.5 -146.5t-177.5 -52.5h-108v-283h-132v682zM206 582v-198h88q69 0 97 25.5t28 73.5q0 50 -29.5 74.5t-98.5 24.5h-85z" />
    <glyph glyph-name="Q" unicode="Q" horiz-adv-x="832" 
d="M788 342q0 -120 -71 -212t-190 -122q118 -59 206 -59q23 0 50 10l3 -5l-111 -106q-94 13 -203.5 60t-207.5 110q-106 42 -163 127.5t-57 194.5q0 150 102.5 250.5t269.5 100.5q117 0 203.5 -51t127.5 -129t41 -169zM179 340q0 -100 66.5 -165t170.5 -65q105 0 171 63.5
t66 167.5q0 94 -63 162.5t-175 68.5q-111 0 -173.5 -67t-62.5 -165z" />
    <glyph glyph-name="R" unicode="R" horiz-adv-x="644" 
d="M74 682h232q107 0 165.5 -55.5t58.5 -141.5q0 -121 -113 -169q33 -19 56 -46t63 -93l105 -177h-149l-94 162q-43 75 -77 100t-77 25h-38v-287h-132v682zM206 582v-198h67q58 0 90.5 22t32.5 78q0 47 -28 72.5t-82 25.5h-80z" />
    <glyph glyph-name="S" unicode="S" horiz-adv-x="514" 
d="M263 691q99 0 179 -51v-127q-84 73 -173 73q-43 0 -67 -19t-24 -51q0 -29 21 -54t87 -61q103 -56 143.5 -102.5t40.5 -120.5q0 -82 -60 -134.5t-156 -52.5q-106 0 -202 60v138q90 -92 191 -92q43 0 69 22t26 55q0 34 -25 61t-112 74q-76 43 -114.5 88.5t-38.5 114.5
q0 77 59 128t156 51z" />
    <glyph glyph-name="T" unicode="T" horiz-adv-x="646" 
d="M17 682h612v-112h-241v-570h-132v570h-239v112z" />
    <glyph glyph-name="U" unicode="U" horiz-adv-x="759" 
d="M66 682h132v-383q0 -99 45.5 -146.5t137.5 -47.5q90 0 135 46.5t45 146.5v384h132v-386q0 -147 -80 -226t-232 -79q-153 0 -234 78t-81 225v388z" />
    <glyph glyph-name="V" unicode="V" horiz-adv-x="647" 
d="M0 682h135l190 -452l188 452h134l-293 -688h-58z" />
    <glyph glyph-name="W" unicode="W" horiz-adv-x="1083" 
d="M0 682h134l173 -440l180 440h110l180 -440l173 440h133l-281 -688h-52l-208 507l-211 -507h-52z" />
    <glyph glyph-name="X" unicode="X" horiz-adv-x="755" 
d="M21 682h165l191 -235l189 235h162l-269 -328l293 -354h-164l-211 256l-210 -256h-164l292 354z" />
    <glyph glyph-name="Y" unicode="Y" horiz-adv-x="647" 
d="M0 682h148l174 -229l176 229h149l-256 -337v-345h-133v344z" />
    <glyph glyph-name="Z" unicode="Z" horiz-adv-x="672" 
d="M42 682h610l-408 -571h408v-111h-639l409 571h-380v111z" />
    <glyph glyph-name="bracketleft" unicode="[" horiz-adv-x="370" 
d="M84 682h269v-92h-150v-722h150v-91h-269v905z" />
    <glyph glyph-name="backslash" unicode="\" horiz-adv-x="296" 
d="M10 691h87l190 -700h-87z" />
    <glyph glyph-name="bracketright" unicode="]" horiz-adv-x="370" 
d="M18 682h268v-905h-268v91h149v722h-149v92z" />
    <glyph glyph-name="asciicircum" unicode="^" horiz-adv-x="564" 
d="M42 340l203 342h72l204 -342h-112l-128 222l-126 -222h-113z" />
    <glyph glyph-name="underscore" unicode="_" horiz-adv-x="500" 
d="M-6 -67h512v-78h-512v78z" />
    <glyph glyph-name="grave" unicode="`" 
d="M33 683h136l72 -157h-72z" />
    <glyph glyph-name="a" unicode="a" horiz-adv-x="470" 
d="M219 475q86 0 133.5 -40.5t47.5 -108.5v-214q0 -31 19 -31q15 0 46 21v-76q-61 -35 -111 -35q-56 0 -69 48q-60 -48 -131 -48q-55 0 -88.5 33t-33.5 82q0 75 87 120q39 20 164 60v19q0 41 -20 58.5t-60 17.5q-90 0 -160 -79v109q67 64 176 64zM148 124q0 -26 16.5 -42.5
t42.5 -16.5q37 0 76 36v127q-73 -26 -104 -48.5t-31 -55.5z" />
    <glyph glyph-name="b" unicode="b" horiz-adv-x="549" 
d="M513 235q0 -118 -70 -181.5t-182 -63.5q-97 0 -199 39v653h117v-248q53 41 127 41q96 0 151.5 -69t55.5 -171zM179 340v-242q36 -13 83 -13q55 0 93 37t38 111q0 67 -33 107t-85 40q-50 0 -96 -40z" />
    <glyph glyph-name="c" unicode="c" horiz-adv-x="460" 
d="M275 475q68 0 141 -31v-109q-63 37 -128 37q-60 0 -95.5 -40t-35.5 -98t35.5 -99.5t106.5 -41.5q55 0 126 30v-104q-74 -28 -143 -28q-67 0 -117.5 23t-77 60.5t-39 76.5t-12.5 78q0 103 62 174.5t177 71.5z" />
    <glyph glyph-name="d" unicode="d" horiz-adv-x="550" 
d="M156 234q0 -138 152 -138h63v260q-40 24 -88 24q-56 0 -91.5 -39t-35.5 -107zM371 682h117v-682h-197q-133 0 -194 66.5t-61 168.5q0 106 64 173t163 67q60 0 108 -25v232z" />
    <glyph glyph-name="e" unicode="e" horiz-adv-x="517" 
d="M269 475q93 0 153 -64.5t60 -178.5v-18h-327q6 -58 45 -93.5t99 -35.5q88 0 173 53v-94q-85 -53 -193 -53q-106 0 -174.5 67t-68.5 178q0 105 63.5 172t169.5 67zM155 278h214q-2 51 -29 80t-74 29q-46 0 -77.5 -31t-33.5 -78z" />
    <glyph glyph-name="f" unicode="f" horiz-adv-x="295" 
d="M253 690q40 0 73 -9v-97q-27 9 -56 9q-37 0 -56 -24.5t-19 -82.5v-20h83v-93h-83v-373h-118v373h-69v93h69v17q0 98 47 152.5t129 54.5z" />
    <glyph glyph-name="g" unicode="g" horiz-adv-x="471" 
d="M464 466v-82h-90q47 -37 47 -98q0 -62 -42.5 -101.5t-113.5 -49.5q-20 -3 -30 -5t-23.5 -6.5t-19.5 -11t-6 -16.5q0 -32 111 -47q160 -22 160 -135q0 -71 -60 -109t-166 -38q-109 0 -166 37t-57 97q0 95 115 119q-45 24 -45 59q0 54 73 72q-111 41 -111 147
q0 78 56.5 123t159.5 45h208zM143 295q0 -36 25.5 -58.5t60.5 -22.5q39 0 63.5 23t24.5 61q0 34 -25 57.5t-62 23.5q-38 0 -62.5 -25t-24.5 -59zM113 -93q0 -64 121 -64q120 0 120 63q0 32 -36.5 48.5t-98.5 16.5q-48 0 -77 -16t-29 -48z" />
    <glyph glyph-name="h" unicode="h" horiz-adv-x="546" 
d="M329 475q80 0 120 -49.5t40 -136.5v-289h-117v279q0 101 -82 101q-59 0 -111 -67v-313h-117v682h117v-279q63 72 150 72z" />
    <glyph glyph-name="i" unicode="i" horiz-adv-x="240" 
d="M120 655q25 0 42.5 -17.5t17.5 -41.5q0 -25 -17.5 -42.5t-42.5 -17.5t-42 18t-17 42q0 23 17 41t42 18zM62 466h117v-466h-117v466z" />
    <glyph glyph-name="j" unicode="j" horiz-adv-x="240" 
d="M62 466h117v-499q0 -87 -29.5 -131.5t-93.5 -67.5l-64 87q37 14 53.5 39t16.5 81v491zM119 655q25 0 42 -18t17 -41q0 -26 -16.5 -43t-42.5 -17q-25 0 -42.5 18t-17.5 42q0 23 18 41t42 18z" />
    <glyph glyph-name="k" unicode="k" horiz-adv-x="535" 
d="M62 682h118v-682h-118v682zM377 466h140l-192 -224l226 -242h-153l-215 239z" />
    <glyph glyph-name="l" unicode="l" horiz-adv-x="240" 
d="M62 682h117v-682h-117v682z" />
    <glyph glyph-name="m" unicode="m" horiz-adv-x="846" 
d="M325 475q101 0 142 -87q45 47 82 67t81 20q77 0 118 -48.5t41 -136.5v-290h-116v273q0 51 -22.5 78.5t-64.5 27.5q-55 0 -103 -63v-316h-116v269q0 111 -83 111q-56 0 -106 -64v-316h-116v466h116v-63q71 72 147 72z" />
    <glyph glyph-name="n" unicode="n" horiz-adv-x="546" 
d="M328 475q79 0 120 -51t41 -141v-283h-117v271q0 109 -86 109q-62 0 -107 -68v-312h-117v466h117v-62q64 71 149 71z" />
    <glyph glyph-name="o" unicode="o" horiz-adv-x="580" 
d="M287 378q-57 0 -93.5 -39.5t-36.5 -105.5q0 -67 37 -106t97 -39t96 40t36 105q0 70 -38.5 107.5t-97.5 37.5zM291 475q114 0 184 -67t70 -175q0 -114 -75 -178t-181 -64q-119 0 -186 71t-67 169q0 107 69 175.5t186 68.5z" />
    <glyph glyph-name="p" unicode="p" horiz-adv-x="551" 
d="M515 231q0 -101 -62 -170.5t-166 -69.5q-54 0 -108 26v-246h-117v695h190q121 0 192 -56.5t71 -178.5zM179 370v-259q38 -25 88 -25q56 0 91.5 40t35.5 102q0 69 -37 105.5t-107 36.5h-71z" />
    <glyph glyph-name="q" unicode="q" horiz-adv-x="549" 
d="M488 466v-695h-117v244q-50 -24 -109 -24q-100 0 -163 67.5t-63 166.5q0 112 66.5 176.5t187.5 64.5h198zM156 227q0 -64 35.5 -102.5t96.5 -38.5q45 0 83 22v262h-67q-68 0 -108 -34.5t-40 -108.5z" />
    <glyph glyph-name="r" unicode="r" horiz-adv-x="420" 
d="M316 475q52 0 105 -47l-53 -110q-42 42 -84 42q-38 0 -70 -34.5t-39 -93.5v-232h-117v466h117v-109q65 118 141 118z" />
    <glyph glyph-name="s" unicode="s" horiz-adv-x="417" 
d="M45 347q0 54 44.5 91t116.5 37q79 0 148 -39v-99q-80 48 -135 48q-27 0 -41 -9.5t-14 -23.5q0 -17 15 -31t73 -44q60 -30 92.5 -64.5t32.5 -84.5q0 -55 -43 -96t-125 -41q-75 0 -164 40v106q80 -57 145 -57q33 0 50.5 11.5t17.5 27.5q0 20 -17.5 35.5t-83.5 51.5
q-57 29 -84.5 62.5t-27.5 78.5z" />
    <glyph glyph-name="t" unicode="t" horiz-adv-x="386" 
d="M4 389l187 188h8v-111h150v-93h-150v-197q0 -41 13.5 -63t52.5 -22q49 0 104 33v-100q-58 -33 -132 -33q-78 0 -116.5 42t-38.5 132v208h-78v16z" />
    <glyph glyph-name="u" unicode="u" horiz-adv-x="546" 
d="M57 466h117v-271q0 -110 85 -110q62 0 108 68v313h117v-466h-117v62q-65 -71 -150 -71q-160 0 -160 203v272z" />
    <glyph glyph-name="v" unicode="v" horiz-adv-x="478" 
d="M0 466h127l115 -272l116 272h120l-207 -472h-62z" />
    <glyph glyph-name="w" unicode="w" horiz-adv-x="758" 
d="M0 466h122l109 -266l109 266h80l109 -266l108 266h121l-198 -472h-54l-126 301l-124 -301h-56z" />
    <glyph glyph-name="x" unicode="x" horiz-adv-x="537" 
d="M2 466h145l120 -149l117 149h139l-186 -227l198 -239h-147l-126 155l-121 -155h-138l190 234z" />
    <glyph glyph-name="y" unicode="y" horiz-adv-x="484" 
d="M2 466h129l117 -252l116 252h120l-325 -695h-121l148 315z" />
    <glyph glyph-name="z" unicode="z" horiz-adv-x="460" 
d="M25 466h418v-7l-236 -361h236v-98h-430v7l236 360h-224v99z" />
    <glyph glyph-name="braceleft" unicode="{" horiz-adv-x="350" 
d="M334 692v-93q-66 0 -82 -20t-16 -91v-80q0 -73 -20 -112.5t-77 -60.5q51 -18 74 -57.5t23 -108.5v-91q0 -65 18 -85.5t80 -20.5v-93q-120 0 -163 37t-43 145v91q0 73 -22.5 103.5t-78.5 32.5v96q57 3 79 34.5t22 102.5v76q0 62 6.5 96t28.5 58.5t61.5 32.5t109.5 8z" />
    <glyph glyph-name="bar" unicode="|" horiz-adv-x="270" 
d="M90 685h91v-919h-91v919z" />
    <glyph glyph-name="braceright" unicode="}" horiz-adv-x="350" 
d="M16 599v93q70 0 109.5 -8t61.5 -33t28 -58.5t6 -95.5v-76q0 -71 22.5 -102.5t79.5 -34.5v-96q-56 -2 -79 -32.5t-23 -103.5v-91q0 -108 -42.5 -145t-162.5 -37v93q61 0 79.5 20.5t18.5 85.5v91q0 70 23 109t74 57q-57 21 -77 60.5t-20 112.5v80q0 71 -16 91t-82 20z" />
    <glyph glyph-name="asciitilde" unicode="~" horiz-adv-x="564" 
d="M44 264v113q67 66 135 66q40 0 111.5 -38t103.5 -38q56 0 126 76v-113q-69 -66 -132 -66q-42 0 -114 38t-101 38q-59 0 -129 -76z" />
    <glyph glyph-name="uni00A0" unicode="&#xa0;" horiz-adv-x="284" 
 />
    <glyph glyph-name="exclamdown" unicode="&#xa1;" horiz-adv-x="281" 
d="M68 -85q0 68 13.5 155t29.5 147q12 45 27 45q16 0 29 -43q14 -52 29 -146.5t15 -154.5q0 -147 -72 -147q-71 0 -71 144zM65 399q0 31 21 53.5t53 22.5q31 0 53.5 -21.5t22.5 -53.5t-22 -54t-53 -22q-32 0 -53.5 22t-21.5 53z" />
    <glyph glyph-name="cent" unicode="&#xa2;" horiz-adv-x="530" 
d="M299 475q18 0 52 -4l55 161h51l-59 -172q4 -1 41 -16v-109q-39 22 -72 31l-92 -265q22 -8 48 -8q53 0 126 30v-104q-74 -28 -143 -28q-35 0 -64 8l-64 -188h-51l69 202q-49 19 -81.5 58.5t-44 78.5t-11.5 79q0 103 62.5 174.5t177.5 71.5zM180 234q0 -74 52 -113l86 252
h-8q-58 0 -94 -40.5t-36 -98.5z" />
    <glyph glyph-name="sterling" unicode="&#xa3;" horiz-adv-x="530" 
d="M449 686l61 -120q-26 15 -74 15q-53 0 -93 -43t-73 -158h77v-87h-104l-47 -178q26 4 45 4q46 0 92.5 -8.5t70.5 -8.5q54 0 91 21v-115q-49 -17 -96 -17q-54 0 -105 8.5t-85 8.5q-88 0 -169 -17l79 302h-71v87h95q16 49 31 87t39 82.5t50.5 73.5t63.5 48.5t80 19.5
q12 0 42 -5z" />
    <glyph glyph-name="currency" unicode="&#xa4;" horiz-adv-x="552" 
d="M26 159l68 67q-34 53 -34 114q0 62 34 115l-68 67l67 69l68 -69q48 34 115 34q64 0 115 -34l68 69l67 -69l-68 -67q34 -53 34 -115q0 -63 -34 -114l68 -67l-67 -70l-68 69q-54 -34 -115 -34q-63 0 -115 34l-68 -68zM275 220q50 0 85.5 35.5t35.5 84.5q0 51 -35.5 86
t-85.5 35q-49 0 -84 -35.5t-35 -85.5q0 -51 35 -85.5t84 -34.5z" />
    <glyph glyph-name="yen" unicode="&#xa5;" horiz-adv-x="530" 
d="M203 221v76h-175v76h157l-182 309h136l124 -228l127 228h137l-183 -309h158v-76h-174v-76h174v-77h-174v-144h-125v144h-175v77h175z" />
    <glyph glyph-name="brokenbar" unicode="&#xa6;" horiz-adv-x="270" 
d="M90 685h91v-382h-91v382zM90 148h91v-382h-91v382z" />
    <glyph glyph-name="section" unicode="&#xa7;" horiz-adv-x="478" 
d="M390 658v-104q-61 44 -130 44q-67 0 -67 -50q0 -27 20 -53.5t71 -68.5q82 -60 123 -111.5t41 -121.5q0 -88 -90 -156q42 -56 42 -126q0 -66 -50 -104.5t-129 -38.5q-84 0 -141 42v105q73 -54 133 -54q70 0 70 47q0 31 -18.5 58.5t-75.5 76.5q-79 65 -119 119t-40 126
q0 74 85 148q-38 42 -38 112q0 59 44 101t135 42q76 0 134 -33zM171 376q-33 -32 -33 -68q0 -43 30.5 -80t135.5 -129q35 32 35 71q0 42 -30.5 81t-137.5 125z" />
    <glyph glyph-name="dieresis" unicode="&#xa8;" 
d="M11 608q0 24 17.5 41.5t41.5 17.5t42 -17.5t18 -41.5t-17.5 -41.5t-42.5 -17.5q-24 0 -41.5 17.5t-17.5 41.5zM204 608q0 24 17.5 41.5t42.5 17.5q24 0 41 -17.5t17 -41.5t-17 -41.5t-41 -17.5q-25 0 -42.5 17.5t-17.5 41.5z" />
    <glyph glyph-name="copyright" unicode="&#xa9;" horiz-adv-x="796" 
d="M42 348q0 145 103.5 250.5t252.5 105.5q147 0 251.5 -104t104.5 -252q0 -145 -103 -250.5t-252 -105.5q-146 0 -251.5 103.5t-105.5 252.5zM86 348q0 -130 92 -221t221 -91q130 0 220.5 92t90.5 221t-91.5 220.5t-219.5 91.5q-130 0 -221.5 -92t-91.5 -221zM548 245v-81
q-72 -27 -129 -27q-104 0 -162.5 57.5t-58.5 149.5q0 88 57.5 148.5t162.5 60.5q63 0 129 -24v-82q-56 28 -111 28q-64 0 -100.5 -36t-36.5 -93q0 -58 38 -93.5t101 -35.5q51 0 110 28z" />
    <glyph glyph-name="ordfeminine" unicode="&#xaa;" horiz-adv-x="317" 
d="M151 691q115 -2 118 -103v-119q0 -16 8 -16q6 0 35 17v-52q-43 -23 -73 -23q-31 0 -49 25q-40 -25 -88 -25q-35 0 -58 21.5t-23 52.5q0 46 47 71q29 14 119 36q0 28 -12 39.5t-38 11.5q-58 0 -109 -55v79q57 40 123 40zM107 479q0 -14 9 -22.5t23 -8.5q25 0 47 18v67
l-23 -6q-56 -20 -56 -48z" />
    <glyph glyph-name="guillemotleft" unicode="&#xab;" horiz-adv-x="537" 
d="M174 462h112l-150 -231l150 -231h-112l-150 231zM402 462h112l-149 -231l149 -231h-112l-149 231z" />
    <glyph glyph-name="logicalnot" unicode="&#xac;" horiz-adv-x="564" 
d="M44 397v105h473v-314h-106v209h-367z" />
    <glyph glyph-name="uni00AD" unicode="&#xad;" horiz-adv-x="377" 
d="M54 290h268v-117h-268v117z" />
    <glyph glyph-name="registered" unicode="&#xae;" horiz-adv-x="796" 
d="M42 348q0 145 103.5 250.5t252.5 105.5q147 0 251.5 -104t104.5 -252q0 -145 -103 -250.5t-252 -105.5q-146 0 -251.5 103.5t-105.5 252.5zM86 348q0 -130 92 -221t221 -91q130 0 220.5 92t90.5 221t-91.5 220.5t-219.5 91.5q-130 0 -221.5 -92t-91.5 -221zM238 152v396
h180q65 0 101 -29t36 -80q0 -42 -30 -71.5t-79 -36.5q23 -8 39 -23t35 -43l72 -113h-105l-54 95q-20 37 -35 48t-44 11h-26v-154h-90zM328 368h51q36 0 57.5 15.5t21.5 45.5q0 58 -76 58h-54v-119z" />
    <glyph glyph-name="macron" unicode="&#xaf;" 
d="M23 646h287v-84h-287v84z" />
    <glyph glyph-name="degree" unicode="&#xb0;" horiz-adv-x="397" 
d="M198 691q57 0 97 -39.5t40 -97.5q0 -56 -40 -96.5t-97 -40.5q-56 0 -96.5 40t-40.5 97q0 56 40.5 96.5t96.5 40.5zM126 554q0 -30 21 -51t51 -21q29 0 50.5 21t21.5 51t-21.5 51t-50.5 21t-50.5 -21t-21.5 -51z" />
    <glyph glyph-name="plusminus" unicode="&#xb1;" horiz-adv-x="564" 
d="M45 349v105h185v174h104v-174h185v-105h-185v-175h-104v175h-185zM45 0v105h474v-105h-474z" />
    <glyph glyph-name="two.superior" unicode="&#xb2;" 
d="M25 495v10q20 19 85 87q47 51 65 80.5t18 57.5q0 26 -16.5 41t-43.5 15q-51 0 -97 -55v84q55 38 112 38q56 0 93.5 -30.5t37.5 -80.5q0 -37 -23.5 -76.5t-87.5 -105.5h140v-65h-283z" />
    <glyph glyph-name="three.superior" unicode="&#xb3;" 
d="M146 853q58 0 94 -26.5t36 -70.5q0 -49 -47 -75q54 -25 54 -84q0 -47 -38.5 -77t-95.5 -30q-52 0 -106 23v73q49 -32 95 -32q26 0 41.5 11.5t15.5 32.5q0 25 -19 37t-64 13v57h8q71 0 71 45q0 18 -16 30.5t-42 12.5q-38 0 -79 -23v64q50 19 92 19z" />
    <glyph glyph-name="acute" unicode="&#xb4;" 
d="M167 683h135l-134 -157h-73z" />
    <glyph glyph-name="mu" unicode="&#xb5;" horiz-adv-x="558" 
d="M62 -230v694h116v-312q36 -66 92 -66q44 0 70 26t26 70v282h116v-343q0 -39 26 -39q18 0 37 14v-80q-39 -25 -87 -25q-70 0 -83 61q-39 -61 -100 -61q-58 0 -97 62v-283h-116z" />
    <glyph glyph-name="paragraph" unicode="&#xb6;" horiz-adv-x="594" 
d="M222 -233v510q-98 5 -154.5 58t-56.5 143q0 95 60 150.5t168 55.5h343v-103h-67v-814h-97v814h-99v-814h-97z" />
    <glyph glyph-name="periodcentered" unicode="&#xb7;" horiz-adv-x="239" 
d="M119 420q30 0 52 -21.5t22 -51.5t-21.5 -52.5t-52.5 -22.5q-30 0 -52 21.5t-22 52.5q0 32 22 53t52 21z" />
    <glyph glyph-name="cedilla" unicode="&#xb8;" 
d="M134 9h67l-16 -39q88 -6 88 -77q0 -43 -40 -67.5t-113 -24.5q-40 0 -62 4v59q30 -3 45 -3q57 0 57 34q0 32 -39 32q-17 0 -25 -2z" />
    <glyph glyph-name="one.superior" unicode="&#xb9;" 
d="M176 847h48v-352h-86v229l-48 -38l-41 55z" />
    <glyph glyph-name="ordmasculine" unicode="&#xba;" horiz-adv-x="371" 
d="M347 543q0 -65 -45.5 -106t-117.5 -41q-70 0 -115 41.5t-45 105.5t45 106t115 42q72 0 117.5 -42t45.5 -106zM185 464q33 0 53 20.5t20 59.5t-20 59.5t-53 20.5q-32 0 -51.5 -20.5t-19.5 -59.5t19 -59.5t52 -20.5z" />
    <glyph glyph-name="guillemotright" unicode="&#xbb;" horiz-adv-x="537" 
d="M23 462h111l150 -231l-150 -231h-111l149 231zM251 462h112l150 -231l-150 -231h-112l150 231z" />
    <glyph glyph-name="onequarter" unicode="&#xbc;" horiz-adv-x="793" 
d="M176 682h48v-352h-86v229l-48 -38l-41 55zM590 691h78l-457 -717h-78zM673 356h52v-199h46v-56h-46v-101h-81v101h-171v41zM644 157v88l-81 -88h81z" />
    <glyph glyph-name="onehalf" unicode="&#xbd;" horiz-adv-x="793" 
d="M176 682h48v-352h-86v229l-48 -38l-41 55zM566 691h78l-457 -717h-78zM486 0v10q25 23 85 88q47 50 65 80t18 58q0 25 -16.5 40t-43.5 15q-51 0 -97 -55v84q53 38 112 38q56 0 93.5 -30.5t37.5 -80.5q0 -36 -24 -76t-87 -105h140v-66h-283z" />
    <glyph glyph-name="threequarters" unicode="&#xbe;" horiz-adv-x="793" 
d="M588 691h78l-457 -717h-78zM673 356h52v-199h46v-56h-46v-101h-81v101h-171v41zM644 157v88l-81 -88h81zM146 688q58 0 94 -26.5t36 -70.5q0 -49 -47 -75q54 -25 54 -84q0 -47 -38.5 -77t-95.5 -30q-52 0 -106 23v73q49 -32 95 -32q26 0 41.5 11.5t15.5 32.5q0 25 -19 37
t-64 13v57h8q71 0 71 45q0 18 -16 30.5t-42 12.5q-38 0 -79 -23v64q50 19 92 19z" />
    <glyph glyph-name="questiondown" unicode="&#xbf;" horiz-adv-x="350" 
d="M295 -94l-39 -116q-31 -8 -66 -8q-64 0 -107.5 37t-43.5 109q0 77 84 174q71 85 71 152q0 16 -6 23q70 -15 70 -81q0 -54 -44 -131q-44 -74 -44 -116q0 -28 17 -44.5t48 -16.5q30 0 60 18zM198 325q-30 0 -52 22.5t-22 52.5q0 31 22 53t53 22t52.5 -21.5t21.5 -52.5
q0 -32 -22.5 -54t-52.5 -22z" />
    <glyph glyph-name="Agrave" unicode="&#xc0;" horiz-adv-x="717" 
d="M295 685h119l303 -685h-135l-79 181h-292l-76 -181h-135zM354 526l-101 -247h207zM211 889h149l83 -156h-75z" />
    <glyph glyph-name="Aacute" unicode="&#xc1;" horiz-adv-x="717" 
d="M295 685h119l303 -685h-135l-79 181h-292l-76 -181h-135zM354 526l-101 -247h207zM276 733l83 156h149l-156 -156h-76z" />
    <glyph glyph-name="Acircumflex" unicode="&#xc2;" horiz-adv-x="717" 
d="M295 685h119l303 -685h-135l-79 181h-292l-76 -181h-135zM354 526l-101 -247h207zM182 733l96 156h160l98 -156h-76l-102 89l-101 -89h-75z" />
    <glyph glyph-name="Atilde" unicode="&#xc3;" horiz-adv-x="717" 
d="M295 685h119l303 -685h-135l-79 181h-292l-76 -181h-135zM354 526l-101 -247h207zM289 865q28 0 79.5 -20t63.5 -20q32 0 37 40h58q-1 -60 -28.5 -94t-69.5 -34q-25 0 -75.5 20t-67.5 20q-32 0 -36 -40h-60q1 60 29.5 94t69.5 34z" />
    <glyph glyph-name="Adieresis" unicode="&#xc4;" horiz-adv-x="717" 
d="M295 685h119l303 -685h-135l-79 181h-292l-76 -181h-135zM354 526l-101 -247h207zM201 813q0 24 18 42t43 18q24 0 42 -18t18 -42q0 -25 -18 -43t-42 -18q-25 0 -43 18t-18 43zM396 813q0 25 18 42.5t42 17.5q25 0 42.5 -18t17.5 -42q0 -25 -17.5 -43t-42.5 -18
q-24 0 -42 18t-18 43z" />
    <glyph glyph-name="Aring" unicode="&#xc5;" horiz-adv-x="717" 
d="M295 685h119l303 -685h-135l-79 181h-292l-76 -181h-135zM354 526l-101 -247h207zM261 828q0 41 28.5 69.5t69.5 28.5t70 -29t29 -69q0 -41 -29 -69.5t-70 -28.5t-69.5 28.5t-28.5 69.5zM307 828q0 -22 15 -37t37 -15t37.5 15t15.5 37t-15.5 37.5t-37.5 15.5t-37 -15.5
t-15 -37.5z" />
    <glyph glyph-name="AE" unicode="&#xc6;" horiz-adv-x="964" 
d="M402 682h501v-103h-285v-180h274v-104h-274v-191h295v-104h-427v286h-189l-168 -286h-139zM486 606l-131 -222h131v222z" />
    <glyph glyph-name="Ccedilla" unicode="&#xc7;" horiz-adv-x="718" 
d="M418 691q116 0 247 -54v-130q-119 70 -232 70q-116 0 -184.5 -70t-68.5 -168t68 -166.5t183 -68.5q126 0 239 75v-128q-105 -57 -240 -60l-8 -21q88 -6 88 -77q0 -43 -40 -67.5t-113 -24.5q-40 0 -62 4v59q30 -3 45 -3q57 0 57 34q0 32 -39 32q-17 0 -25 -2l30 69
q-150 16 -234.5 116t-84.5 230q0 154 107 252.5t267 98.5z" />
    <glyph glyph-name="Egrave" unicode="&#xc8;" horiz-adv-x="557" 
d="M74 682h424v-103h-292v-181h281v-103h-281v-191h301v-104h-433v682zM137 889h149l83 -156h-75z" />
    <glyph glyph-name="Eacute" unicode="&#xc9;" horiz-adv-x="557" 
d="M74 682h424v-103h-292v-181h281v-103h-281v-191h301v-104h-433v682zM219 733l83 156h149l-156 -156h-76z" />
    <glyph glyph-name="Ecircumflex" unicode="&#xca;" horiz-adv-x="557" 
d="M74 682h424v-103h-292v-181h281v-103h-281v-191h301v-104h-433v682zM108 733l96 156h160l98 -156h-76l-102 89l-101 -89h-75z" />
    <glyph glyph-name="Edieresis" unicode="&#xcb;" horiz-adv-x="557" 
d="M74 682h424v-103h-292v-181h281v-103h-281v-191h301v-104h-433v682zM127 813q0 24 18 42t43 18q24 0 42 -18t18 -42q0 -25 -18 -43t-42 -18q-25 0 -43 18t-18 43zM322 813q0 25 18 42.5t42 17.5q25 0 42.5 -18t17.5 -42q0 -25 -17.5 -43t-42.5 -18q-24 0 -42 18t-18 43z
" />
    <glyph glyph-name="Igrave" unicode="&#xcc;" horiz-adv-x="280" 
d="M74 682h132v-682h-132v682zM-7 889h149l83 -156h-75z" />
    <glyph glyph-name="Iacute" unicode="&#xcd;" horiz-adv-x="280" 
d="M74 682h132v-682h-132v682zM58 733l83 156h149l-156 -156h-76z" />
    <glyph glyph-name="Icircumflex" unicode="&#xce;" horiz-adv-x="280" 
d="M74 682h132v-682h-132v682zM-36 733l96 156h160l98 -156h-76l-102 89l-101 -89h-75z" />
    <glyph glyph-name="Idieresis" unicode="&#xcf;" horiz-adv-x="280" 
d="M74 682h132v-682h-132v682zM-17 813q0 24 18 42t43 18q24 0 42 -18t18 -42q0 -25 -18 -43t-42 -18q-25 0 -43 18t-18 43zM178 813q0 25 18 42.5t42 17.5q25 0 42.5 -18t17.5 -42q0 -25 -17.5 -43t-42.5 -18q-24 0 -42 18t-18 43z" />
    <glyph glyph-name="Eth" unicode="&#xd0;" horiz-adv-x="767" 
d="M74 682h273q176 0 276 -93.5t100 -242.5q0 -160 -99.5 -253t-272.5 -93h-277v302h-74v78h74v302zM206 105h135q120 0 183.5 62t63.5 176q0 110 -65.5 173t-191.5 63h-125v-199h176v-78h-176v-197z" />
    <glyph glyph-name="Ntilde" unicode="&#xd1;" horiz-adv-x="813" 
d="M74 682h113l423 -481v481h129v-682h-116l-420 478v-478h-129v682zM335 865q28 0 79.5 -20t63.5 -20q32 0 37 40h58q-1 -60 -28.5 -94t-69.5 -34q-25 0 -75.5 20t-67.5 20q-32 0 -36 -40h-60q1 60 29.5 94t69.5 34z" />
    <glyph glyph-name="Ograve" unicode="&#xd2;" horiz-adv-x="832" 
d="M416 691q166 0 269 -100t103 -249q0 -146 -101.5 -248.5t-274.5 -102.5q-167 0 -267.5 102t-100.5 247q0 66 23.5 128t68 112.5t117 80.5t163.5 30zM417 572q-109 0 -173.5 -65.5t-64.5 -166.5t67.5 -165.5t166.5 -64.5q105 0 172.5 61t67.5 171q0 92 -63.5 161
t-172.5 69zM275 889h149l83 -156h-75z" />
    <glyph glyph-name="Oacute" unicode="&#xd3;" horiz-adv-x="832" 
d="M416 691q166 0 269 -100t103 -249q0 -146 -101.5 -248.5t-274.5 -102.5q-167 0 -267.5 102t-100.5 247q0 66 23.5 128t68 112.5t117 80.5t163.5 30zM417 572q-109 0 -173.5 -65.5t-64.5 -166.5t67.5 -165.5t166.5 -64.5q105 0 172.5 61t67.5 171q0 92 -63.5 161
t-172.5 69zM333 733l83 156h149l-156 -156h-76z" />
    <glyph glyph-name="Ocircumflex" unicode="&#xd4;" horiz-adv-x="832" 
d="M416 691q166 0 269 -100t103 -249q0 -146 -101.5 -248.5t-274.5 -102.5q-167 0 -267.5 102t-100.5 247q0 66 23.5 128t68 112.5t117 80.5t163.5 30zM417 572q-109 0 -173.5 -65.5t-64.5 -166.5t67.5 -165.5t166.5 -64.5q105 0 172.5 61t67.5 171q0 92 -63.5 161
t-172.5 69zM239 733l96 156h160l98 -156h-76l-102 89l-101 -89h-75z" />
    <glyph glyph-name="Otilde" unicode="&#xd5;" horiz-adv-x="832" 
d="M416 691q166 0 269 -100t103 -249q0 -146 -101.5 -248.5t-274.5 -102.5q-167 0 -267.5 102t-100.5 247q0 66 23.5 128t68 112.5t117 80.5t163.5 30zM417 572q-109 0 -173.5 -65.5t-64.5 -166.5t67.5 -165.5t166.5 -64.5q105 0 172.5 61t67.5 171q0 92 -63.5 161
t-172.5 69zM346 865q28 0 79.5 -20t63.5 -20q32 0 37 40h58q-1 -60 -28.5 -94t-69.5 -34q-25 0 -75.5 20t-67.5 20q-32 0 -36 -40h-60q1 60 29.5 94t69.5 34z" />
    <glyph glyph-name="Odieresis" unicode="&#xd6;" horiz-adv-x="832" 
d="M416 691q166 0 269 -100t103 -249q0 -146 -101.5 -248.5t-274.5 -102.5q-167 0 -267.5 102t-100.5 247q0 66 23.5 128t68 112.5t117 80.5t163.5 30zM417 572q-109 0 -173.5 -65.5t-64.5 -166.5t67.5 -165.5t166.5 -64.5q105 0 172.5 61t67.5 171q0 92 -63.5 161
t-172.5 69zM258 813q0 24 18 42t43 18q24 0 42 -18t18 -42q0 -25 -18 -43t-42 -18q-25 0 -43 18t-18 43zM453 813q0 25 18 42.5t42 17.5q25 0 42.5 -18t17.5 -42q0 -25 -17.5 -43t-42.5 -18q-24 0 -42 18t-18 43z" />
    <glyph glyph-name="multiply" unicode="&#xd7;" horiz-adv-x="588" 
d="M56 180l163 166l-161 161l73 74l162 -161l165 163l74 -73l-165 -164l163 -164l-74 -74l-163 165l-164 -167z" />
    <glyph glyph-name="Oslash" unicode="&#xd8;" horiz-adv-x="832" 
d="M85 26l61 65q-102 99 -102 249q0 66 23.5 128t68 112.5t117 80.5t163.5 30q124 0 219 -61l61 65l49 -46l-57 -62q100 -100 100 -245q0 -146 -101.5 -248.5t-274.5 -102.5q-124 0 -213 58l-64 -69zM417 572q-113 0 -175.5 -69.5t-62.5 -162.5q0 -88 57 -153l312 350
q-56 35 -131 35zM653 342q0 85 -56 149l-310 -348q58 -34 126 -33q62 0 110.5 21.5t75.5 57t40.5 74.5t13.5 79z" />
    <glyph glyph-name="Ugrave" unicode="&#xd9;" horiz-adv-x="759" 
d="M66 682h132v-383q0 -99 45.5 -146.5t137.5 -47.5q90 0 135 46.5t45 146.5v384h132v-386q0 -147 -80 -226t-232 -79q-153 0 -234 78t-81 225v388zM233 889h149l83 -156h-75z" />
    <glyph glyph-name="Uacute" unicode="&#xda;" horiz-adv-x="759" 
d="M66 682h132v-383q0 -99 45.5 -146.5t137.5 -47.5q90 0 135 46.5t45 146.5v384h132v-386q0 -147 -80 -226t-232 -79q-153 0 -234 78t-81 225v388zM298 733l83 156h149l-156 -156h-76z" />
    <glyph glyph-name="Ucircumflex" unicode="&#xdb;" horiz-adv-x="759" 
d="M66 682h132v-383q0 -99 45.5 -146.5t137.5 -47.5q90 0 135 46.5t45 146.5v384h132v-386q0 -147 -80 -226t-232 -79q-153 0 -234 78t-81 225v388zM204 733l96 156h160l98 -156h-76l-102 89l-101 -89h-75z" />
    <glyph glyph-name="Udieresis" unicode="&#xdc;" horiz-adv-x="759" 
d="M66 682h132v-383q0 -99 45.5 -146.5t137.5 -47.5q90 0 135 46.5t45 146.5v384h132v-386q0 -147 -80 -226t-232 -79q-153 0 -234 78t-81 225v388zM223 813q0 24 18 42t43 18q24 0 42 -18t18 -42q0 -25 -18 -43t-42 -18q-25 0 -43 18t-18 43zM418 813q0 25 18 42.5t42 17.5
q25 0 42.5 -18t17.5 -42q0 -25 -17.5 -43t-42.5 -18q-24 0 -42 18t-18 43z" />
    <glyph glyph-name="Yacute" unicode="&#xdd;" horiz-adv-x="647" 
d="M0 682h148l174 -229l176 229h149l-256 -337v-345h-133v344zM262 733l83 156h149l-156 -156h-76z" />
    <glyph glyph-name="Thorn" unicode="&#xde;" horiz-adv-x="582" 
d="M74 682h132v-141h113q110 0 172.5 -53t62.5 -147t-62.5 -146.5t-177.5 -52.5h-108v-142h-132v682zM206 441v-198h88q69 0 97 25.5t28 73.5q0 50 -29.5 74.5t-98.5 24.5h-85z" />
    <glyph glyph-name="germandbls" unicode="&#xdf;" horiz-adv-x="550" 
d="M514 197q0 -85 -50.5 -145.5t-132.5 -60.5q-35 0 -77 10v94q22 -7 43 -7q45 0 70.5 31.5t25.5 84.5q0 120 -130 121v91q103 0 103 95q0 38 -25 60.5t-67 22.5q-49 0 -72 -30.5t-23 -98.5v-465h-117v457q0 234 213 234q101 0 154.5 -50t53.5 -126q0 -99 -93 -140
q59 -17 91.5 -63.5t32.5 -114.5z" />
    <glyph glyph-name="agrave" unicode="&#xe0;" horiz-adv-x="470" 
d="M219 475q86 0 133.5 -40.5t47.5 -108.5v-214q0 -31 19 -31q15 0 46 21v-76q-61 -35 -111 -35q-56 0 -69 48q-60 -48 -131 -48q-55 0 -88.5 33t-33.5 82q0 75 87 120q39 20 164 60v19q0 41 -20 58.5t-60 17.5q-90 0 -160 -79v109q67 64 176 64zM148 124q0 -26 16.5 -42.5
t42.5 -16.5q37 0 76 36v127q-73 -26 -104 -48.5t-31 -55.5zM93 683h136l72 -157h-72z" />
    <glyph glyph-name="aacute" unicode="&#xe1;" horiz-adv-x="470" 
d="M219 475q86 0 133.5 -40.5t47.5 -108.5v-214q0 -31 19 -31q15 0 46 21v-76q-61 -35 -111 -35q-56 0 -69 48q-60 -48 -131 -48q-55 0 -88.5 33t-33.5 82q0 75 87 120q39 20 164 60v19q0 41 -20 58.5t-60 17.5q-90 0 -160 -79v109q67 64 176 64zM148 124q0 -26 16.5 -42.5
t42.5 -16.5q37 0 76 36v127q-73 -26 -104 -48.5t-31 -55.5zM226 683h135l-134 -157h-73z" />
    <glyph glyph-name="acircumflex" unicode="&#xe2;" horiz-adv-x="470" 
d="M219 475q86 0 133.5 -40.5t47.5 -108.5v-214q0 -31 19 -31q15 0 46 21v-76q-61 -35 -111 -35q-56 0 -69 48q-60 -48 -131 -48q-55 0 -88.5 33t-33.5 82q0 75 87 120q39 20 164 60v19q0 41 -20 58.5t-60 17.5q-90 0 -160 -79v109q67 64 176 64zM148 124q0 -26 16.5 -42.5
t42.5 -16.5q37 0 76 36v127q-73 -26 -104 -48.5t-31 -55.5zM153 683h137l89 -157h-74l-84 87l-82 -87h-73z" />
    <glyph glyph-name="atilde" unicode="&#xe3;" horiz-adv-x="470" 
d="M219 475q86 0 133.5 -40.5t47.5 -108.5v-214q0 -31 19 -31q15 0 46 21v-76q-61 -35 -111 -35q-56 0 -69 48q-60 -48 -131 -48q-55 0 -88.5 33t-33.5 82q0 75 87 120q39 20 164 60v19q0 41 -20 58.5t-60 17.5q-90 0 -160 -79v109q67 64 176 64zM148 124q0 -26 16.5 -42.5
t42.5 -16.5q37 0 76 36v127q-73 -26 -104 -48.5t-31 -55.5zM156 666q28 0 79.5 -20t63.5 -20q32 0 37 40h58q-1 -60 -28.5 -94t-69.5 -34q-25 0 -75.5 20t-67.5 20q-32 0 -36 -40h-60q1 60 29.5 94t69.5 34z" />
    <glyph glyph-name="adieresis" unicode="&#xe4;" horiz-adv-x="470" 
d="M219 475q86 0 133.5 -40.5t47.5 -108.5v-214q0 -31 19 -31q15 0 46 21v-76q-61 -35 -111 -35q-56 0 -69 48q-60 -48 -131 -48q-55 0 -88.5 33t-33.5 82q0 75 87 120q39 20 164 60v19q0 41 -20 58.5t-60 17.5q-90 0 -160 -79v109q67 64 176 64zM148 124q0 -26 16.5 -42.5
t42.5 -16.5q37 0 76 36v127q-73 -26 -104 -48.5t-31 -55.5zM70 608q0 24 17.5 41.5t41.5 17.5t42 -17.5t18 -41.5t-17.5 -41.5t-42.5 -17.5q-24 0 -41.5 17.5t-17.5 41.5zM263 608q0 24 17.5 41.5t42.5 17.5q24 0 41 -17.5t17 -41.5t-17 -41.5t-41 -17.5q-25 0 -42.5 17.5
t-17.5 41.5z" />
    <glyph glyph-name="aring" unicode="&#xe5;" horiz-adv-x="470" 
d="M219 475q86 0 133.5 -40.5t47.5 -108.5v-214q0 -31 19 -31q15 0 46 21v-76q-61 -35 -111 -35q-56 0 -69 48q-60 -48 -131 -48q-55 0 -88.5 33t-33.5 82q0 75 87 120q39 20 164 60v19q0 41 -20 58.5t-60 17.5q-90 0 -160 -79v109q67 64 176 64zM148 124q0 -26 16.5 -42.5
t42.5 -16.5q37 0 76 36v127q-73 -26 -104 -48.5t-31 -55.5zM127 623q0 41 28.5 70t69.5 29t70 -29t29 -70q0 -40 -29 -69t-70 -29t-69.5 28.5t-28.5 69.5zM172 623q0 -23 15 -38t38 -15t38.5 15.5t15.5 37.5q0 23 -16 39t-38 16t-37.5 -16t-15.5 -39z" />
    <glyph glyph-name="ae" unicode="&#xe6;" horiz-adv-x="713" 
d="M44 303v116q79 56 170 56q85 0 138 -57q60 57 135 57q88 0 141 -62t53 -163v-18h-291q1 -70 40 -110t100 -40q67 0 148 53v-95q-84 -49 -174 -49q-110 0 -171 69q-91 -69 -174 -69q-58 0 -92.5 33.5t-34.5 85.5q0 28 13.5 52.5t29.5 39.5t48.5 30.5t50.5 22t56.5 18
t47.5 14.5v13q0 82 -75 82q-82 0 -159 -79zM397 296h171q-10 91 -83 91q-34 0 -58 -23.5t-30 -67.5zM278 229q-72 -29 -101.5 -50.5t-29.5 -54.5q0 -28 15.5 -44.5t42.5 -16.5q47 0 97 43q-24 53 -24 115v8z" />
    <glyph glyph-name="ccedilla" unicode="&#xe7;" horiz-adv-x="460" 
d="M275 475q68 0 141 -31v-109q-65 38 -128 38q-60 0 -96 -40.5t-36 -98.5t36 -99.5t107 -41.5q55 0 126 30v-104q-65 -26 -136 -28l-8 -21q88 -6 88 -77q0 -43 -40 -67.5t-113 -24.5q-40 0 -62 4v59q30 -3 45 -3q57 0 57 34q0 32 -39 32q-17 0 -25 -2l32 71q-51 9 -89.5 35
t-59 60.5t-30 69t-9.5 68.5q0 103 62 174.5t177 71.5z" />
    <glyph glyph-name="egrave" unicode="&#xe8;" horiz-adv-x="517" 
d="M269 475q93 0 153 -64.5t60 -178.5v-18h-327q6 -58 45 -93.5t99 -35.5q88 0 173 53v-94q-85 -53 -193 -53q-106 0 -174.5 67t-68.5 178q0 105 63.5 172t169.5 67zM155 278h214q-2 51 -29 80t-74 29q-46 0 -77.5 -31t-33.5 -78zM133 683h136l72 -157h-72z" />
    <glyph glyph-name="eacute" unicode="&#xe9;" horiz-adv-x="517" 
d="M269 475q93 0 153 -64.5t60 -178.5v-18h-327q6 -58 45 -93.5t99 -35.5q88 0 173 53v-94q-85 -53 -193 -53q-106 0 -174.5 67t-68.5 178q0 105 63.5 172t169.5 67zM155 278h214q-2 51 -29 80t-74 29q-46 0 -77.5 -31t-33.5 -78zM266 683h135l-134 -157h-73z" />
    <glyph glyph-name="ecircumflex" unicode="&#xea;" horiz-adv-x="517" 
d="M269 475q93 0 153 -64.5t60 -178.5v-18h-327q6 -58 45 -93.5t99 -35.5q88 0 173 53v-94q-85 -53 -193 -53q-106 0 -174.5 67t-68.5 178q0 105 63.5 172t169.5 67zM155 278h214q-2 51 -29 80t-74 29q-46 0 -77.5 -31t-33.5 -78zM193 683h137l89 -157h-74l-84 87l-82 -87
h-73z" />
    <glyph glyph-name="edieresis" unicode="&#xeb;" horiz-adv-x="517" 
d="M269 475q93 0 153 -64.5t60 -178.5v-18h-327q6 -58 45 -93.5t99 -35.5q88 0 173 53v-94q-85 -53 -193 -53q-106 0 -174.5 67t-68.5 178q0 105 63.5 172t169.5 67zM155 278h214q-2 51 -29 80t-74 29q-46 0 -77.5 -31t-33.5 -78zM107 608q0 24 17.5 41.5t41.5 17.5
t42 -17.5t18 -41.5t-17.5 -41.5t-42.5 -17.5q-24 0 -41.5 17.5t-17.5 41.5zM300 608q0 24 17.5 41.5t42.5 17.5q24 0 41 -17.5t17 -41.5t-17 -41.5t-41 -17.5q-25 0 -42.5 17.5t-17.5 41.5z" />
    <glyph glyph-name="igrave" unicode="&#xec;" horiz-adv-x="240" 
d="M62 466h117v-466h-117v466zM-12 683h136l72 -157h-72z" />
    <glyph glyph-name="iacute" unicode="&#xed;" horiz-adv-x="240" 
d="M62 466h117v-466h-117v466zM118 683h135l-134 -157h-73z" />
    <glyph glyph-name="icircumflex" unicode="&#xee;" horiz-adv-x="240" 
d="M62 466h117v-466h-117v466zM51 683h137l89 -157h-74l-84 87l-82 -87h-73z" />
    <glyph glyph-name="idieresis" unicode="&#xef;" horiz-adv-x="240" 
d="M62 466h117v-466h-117v466zM-35 608q0 24 17.5 41.5t41.5 17.5t42 -17.5t18 -41.5t-17.5 -41.5t-42.5 -17.5q-24 0 -41.5 17.5t-17.5 41.5zM158 608q0 24 17.5 41.5t42.5 17.5q24 0 41 -17.5t17 -41.5t-17 -41.5t-41 -17.5q-25 0 -42.5 17.5t-17.5 41.5z" />
    <glyph glyph-name="eth" unicode="&#xf0;" horiz-adv-x="588" 
d="M142 636l62 54q66 -20 111 -47l112 47l20 -53l-75 -34q82 -68 127 -158t45 -190q0 -131 -73 -197.5t-181 -66.5q-121 0 -187.5 72t-66.5 166q0 104 67 173.5t178 69.5q51 0 97 -24q-36 68 -98 116l-148 -62l-20 54l113 47q-29 16 -83 33zM291 88q60 0 96 39t36 107
q0 67 -37 105.5t-97 38.5t-96 -39.5t-36 -107.5q0 -64 35.5 -103.5t98.5 -39.5z" />
    <glyph glyph-name="ntilde" unicode="&#xf1;" horiz-adv-x="546" 
d="M328 475q79 0 120 -51t41 -141v-283h-117v271q0 109 -86 109q-62 0 -107 -68v-312h-117v466h117v-62q64 71 149 71zM205 666q28 0 79.5 -20t63.5 -20q32 0 37 40h58q-1 -60 -28.5 -94t-69.5 -34q-25 0 -75.5 20t-67.5 20q-32 0 -36 -40h-60q1 60 29.5 94t69.5 34z" />
    <glyph glyph-name="ograve" unicode="&#xf2;" horiz-adv-x="580" 
d="M287 378q-57 0 -93.5 -39.5t-36.5 -105.5q0 -67 37 -106t97 -39t96 40t36 105q0 70 -38.5 107.5t-97.5 37.5zM291 475q114 0 184 -67t70 -175q0 -114 -75 -178t-181 -64q-119 0 -186 71t-67 169q0 107 69 175.5t186 68.5zM165 683h136l72 -157h-72z" />
    <glyph glyph-name="oacute" unicode="&#xf3;" horiz-adv-x="580" 
d="M287 378q-57 0 -93.5 -39.5t-36.5 -105.5q0 -67 37 -106t97 -39t96 40t36 105q0 70 -38.5 107.5t-97.5 37.5zM291 475q114 0 184 -67t70 -175q0 -114 -75 -178t-181 -64q-119 0 -186 71t-67 169q0 107 69 175.5t186 68.5zM291 683h135l-134 -157h-73z" />
    <glyph glyph-name="ocircumflex" unicode="&#xf4;" horiz-adv-x="580" 
d="M287 378q-57 0 -93.5 -39.5t-36.5 -105.5q0 -67 37 -106t97 -39t96 40t36 105q0 70 -38.5 107.5t-97.5 37.5zM291 475q114 0 184 -67t70 -175q0 -114 -75 -178t-181 -64q-119 0 -186 71t-67 169q0 107 69 175.5t186 68.5zM228 683h137l89 -157h-74l-84 87l-82 -87h-73z
" />
    <glyph glyph-name="otilde" unicode="&#xf5;" horiz-adv-x="580" 
d="M287 378q-57 0 -93.5 -39.5t-36.5 -105.5q0 -67 37 -106t97 -39t96 40t36 105q0 70 -38.5 107.5t-97.5 37.5zM291 475q114 0 184 -67t70 -175q0 -114 -75 -178t-181 -64q-119 0 -186 71t-67 169q0 107 69 175.5t186 68.5zM228 666q28 0 79.5 -20t63.5 -20q32 0 37 40h58
q-1 -60 -28.5 -94t-69.5 -34q-25 0 -75.5 20t-67.5 20q-32 0 -36 -40h-60q1 60 29.5 94t69.5 34z" />
    <glyph glyph-name="odieresis" unicode="&#xf6;" horiz-adv-x="580" 
d="M287 378q-57 0 -93.5 -39.5t-36.5 -105.5q0 -67 37 -106t97 -39t96 40t36 105q0 70 -38.5 107.5t-97.5 37.5zM291 475q114 0 184 -67t70 -175q0 -114 -75 -178t-181 -64q-119 0 -186 71t-67 169q0 107 69 175.5t186 68.5zM142 608q0 24 17.5 41.5t41.5 17.5t42 -17.5
t18 -41.5t-17.5 -41.5t-42.5 -17.5q-24 0 -41.5 17.5t-17.5 41.5zM335 608q0 24 17.5 41.5t42.5 17.5q24 0 41 -17.5t17 -41.5t-17 -41.5t-41 -17.5q-25 0 -42.5 17.5t-17.5 41.5z" />
    <glyph glyph-name="divide" unicode="&#xf7;" horiz-adv-x="564" 
d="M255 565q11 8 28 8q25 0 39 -20q8 -13 8 -27q0 -26 -21 -39q-11 -8 -27 -8q-25 0 -39 20q-8 13 -8 26q0 25 20 40zM41 289v105h482v-105h-482zM255 195q12 9 28 9q25 0 39 -20q8 -13 8 -27q0 -27 -21 -40q-11 -8 -26 -8q-25 0 -40 21q-8 11 -8 25q0 26 20 40z" />
    <glyph glyph-name="oslash" unicode="&#xf8;" horiz-adv-x="580" 
d="M48 -8l58 66q-70 69 -70 173q0 107 69 175.5t186 68.5q83 0 145 -39l53 62l36 -33l-51 -58q71 -68 71 -174q0 -114 -75 -178t-181 -64q-83 0 -145 38l-60 -70zM423 233q0 53 -25 87l-184 -211q31 -21 77 -21q60 0 96 40t36 105zM287 378q-57 0 -93.5 -39.5t-36.5 -105.5
q0 -54 25 -88l183 211q-35 22 -78 22z" />
    <glyph glyph-name="ugrave" unicode="&#xf9;" horiz-adv-x="546" 
d="M57 466h117v-271q0 -110 85 -110q62 0 108 68v313h117v-466h-117v62q-65 -71 -150 -71q-160 0 -160 203v272zM140 683h136l72 -157h-72z" />
    <glyph glyph-name="uacute" unicode="&#xfa;" horiz-adv-x="546" 
d="M57 466h117v-271q0 -110 85 -110q62 0 108 68v313h117v-466h-117v62q-65 -71 -150 -71q-160 0 -160 203v272zM276 683h135l-134 -157h-73z" />
    <glyph glyph-name="ucircumflex" unicode="&#xfb;" horiz-adv-x="546" 
d="M57 466h117v-271q0 -110 85 -110q62 0 108 68v313h117v-466h-117v62q-65 -71 -150 -71q-160 0 -160 203v272zM203 683h137l89 -157h-74l-84 87l-82 -87h-73z" />
    <glyph glyph-name="udieresis" unicode="&#xfc;" horiz-adv-x="546" 
d="M57 466h117v-271q0 -110 85 -110q62 0 108 68v313h117v-466h-117v62q-65 -71 -150 -71q-160 0 -160 203v272zM117 608q0 24 17.5 41.5t41.5 17.5t42 -17.5t18 -41.5t-17.5 -41.5t-42.5 -17.5q-24 0 -41.5 17.5t-17.5 41.5zM310 608q0 24 17.5 41.5t42.5 17.5
q24 0 41 -17.5t17 -41.5t-17 -41.5t-41 -17.5q-25 0 -42.5 17.5t-17.5 41.5z" />
    <glyph glyph-name="yacute" unicode="&#xfd;" horiz-adv-x="484" 
d="M2 466h129l117 -252l116 252h120l-325 -695h-121l148 315zM240 683h135l-134 -157h-73z" />
    <glyph glyph-name="thorn" unicode="&#xfe;" horiz-adv-x="551" 
d="M515 231q0 -101 -62 -170.5t-166 -69.5q-53 0 -107 26v-246h-118v911h118v-216h64q271 0 271 -235zM180 367v-257q41 -24 87 -24q56 0 91.5 39.5t35.5 102.5q0 69 -37 104t-107 35h-70z" />
    <glyph glyph-name="ydieresis" unicode="&#xff;" horiz-adv-x="484" 
d="M2 466h129l117 -252l116 252h120l-325 -695h-121l148 315zM91 608q0 24 17.5 41.5t41.5 17.5t42 -17.5t18 -41.5t-17.5 -41.5t-42.5 -17.5q-24 0 -41.5 17.5t-17.5 41.5zM284 608q0 24 17.5 41.5t42.5 17.5q24 0 41 -17.5t17 -41.5t-17 -41.5t-41 -17.5q-25 0 -42.5 17.5
t-17.5 41.5z" />
    <glyph glyph-name="Amacron" unicode="&#x100;" horiz-adv-x="717" 
d="M295 685h119l303 -685h-135l-79 181h-292l-76 -181h-135zM354 526l-101 -247h207zM215 767v83h287v-83h-287z" />
    <glyph glyph-name="amacron" unicode="&#x101;" horiz-adv-x="470" 
d="M219 475q86 0 133.5 -40.5t47.5 -108.5v-214q0 -31 19 -31q15 0 46 21v-76q-61 -35 -111 -35q-56 0 -69 48q-60 -48 -131 -48q-55 0 -88.5 33t-33.5 82q0 75 87 120q39 20 164 60v19q0 41 -20 58.5t-60 17.5q-90 0 -160 -79v109q67 64 176 64zM148 124q0 -26 16.5 -42.5
t42.5 -16.5q37 0 76 36v127q-73 -26 -104 -48.5t-31 -55.5zM82 646h287v-84h-287v84z" />
    <glyph glyph-name="Abreve" unicode="&#x102;" horiz-adv-x="717" 
d="M295 685h119l303 -685h-135l-79 181h-292l-76 -181h-135zM354 526l-101 -247h207zM186 882h83q17 -65 92 -65q68 0 87 65h83q-11 -72 -57 -112.5t-115 -40.5q-73 0 -118.5 40.5t-54.5 112.5z" />
    <glyph glyph-name="abreve" unicode="&#x103;" horiz-adv-x="470" 
d="M219 475q86 0 133.5 -40.5t47.5 -108.5v-214q0 -31 19 -31q15 0 46 21v-76q-61 -35 -111 -35q-56 0 -69 48q-60 -48 -131 -48q-55 0 -88.5 33t-33.5 82q0 75 87 120q39 20 164 60v19q0 41 -20 58.5t-60 17.5q-90 0 -160 -79v109q67 64 176 64zM148 124q0 -26 16.5 -42.5
t42.5 -16.5q37 0 76 36v127q-73 -26 -104 -48.5t-31 -55.5zM71 664h77q17 -60 79 -60q31 0 48 13.5t27 46.5h78q-6 -60 -48.5 -100.5t-105.5 -40.5q-62 0 -103 37t-52 104z" />
    <glyph glyph-name="Aogonek" unicode="&#x104;" horiz-adv-x="717" 
d="M295 685h119l303 -685h-64q-25 -35 -25 -61q0 -50 57 -50q24 0 50 10v-73q-37 -16 -77 -16q-54 0 -82.5 27t-28.5 74q0 48 34 90l-78 180h-292l-76 -181h-135zM354 526l-101 -247h207z" />
    <glyph glyph-name="aogonek" unicode="&#x105;" horiz-adv-x="470" 
d="M219 475q86 0 133.5 -40.5t47.5 -108.5v-214q0 -31 19 -31q15 0 46 21v-76q-40 -23 -77 -31q-21 -31 -21 -56q0 -50 57 -50q24 0 50 10v-73q-37 -16 -77 -16q-54 0 -82.5 27t-28.5 74q0 46 32 87q-26 10 -33 41q-60 -48 -131 -48q-55 0 -88.5 33t-33.5 82q0 75 87 120
q39 20 164 60v19q0 41 -20 58.5t-60 17.5q-90 0 -160 -79v109q67 64 176 64zM148 124q0 -26 16.5 -42.5t42.5 -16.5q37 0 76 36v127q-73 -26 -104 -48.5t-31 -55.5z" />
    <glyph glyph-name="Cacute" unicode="&#x106;" horiz-adv-x="718" 
d="M418 691q120 0 247 -54v-129q-117 70 -232 70q-116 0 -184.5 -70.5t-68.5 -168.5t68 -166.5t183 -68.5q126 0 239 75v-128q-111 -60 -254 -60q-89 0 -161 29.5t-117.5 79t-69.5 111.5t-24 129q0 154 107 252.5t267 98.5zM318 733l83 156h149l-156 -156h-76z" />
    <glyph glyph-name="cacute" unicode="&#x107;" horiz-adv-x="460" 
d="M275 475q68 0 141 -31v-109q-63 37 -128 37q-60 0 -95.5 -40t-35.5 -98t35.5 -99.5t106.5 -41.5q55 0 126 30v-104q-74 -28 -143 -28q-67 0 -117.5 23t-77 60.5t-39 76.5t-12.5 78q0 103 62 174.5t177 71.5zM259 683h135l-134 -157h-73z" />
    <glyph glyph-name="Ccircumflex" unicode="&#x108;" horiz-adv-x="718" 
d="M418 691q120 0 247 -54v-129q-117 70 -232 70q-116 0 -184.5 -70.5t-68.5 -168.5t68 -166.5t183 -68.5q126 0 239 75v-128q-111 -60 -254 -60q-89 0 -161 29.5t-117.5 79t-69.5 111.5t-24 129q0 154 107 252.5t267 98.5zM246 733l96 156h160l98 -156h-76l-102 89
l-101 -89h-75z" />
    <glyph glyph-name="ccircumflex" unicode="&#x109;" horiz-adv-x="460" 
d="M275 475q68 0 141 -31v-109q-63 37 -128 37q-60 0 -95.5 -40t-35.5 -98t35.5 -99.5t106.5 -41.5q55 0 126 30v-104q-74 -28 -143 -28q-67 0 -117.5 23t-77 60.5t-39 76.5t-12.5 78q0 103 62 174.5t177 71.5zM183 683h137l89 -157h-74l-84 87l-82 -87h-73z" />
    <glyph glyph-name="Cdotaccent" unicode="&#x10a;" horiz-adv-x="718" 
d="M418 691q120 0 247 -54v-129q-117 70 -232 70q-116 0 -184.5 -70.5t-68.5 -168.5t68 -166.5t183 -68.5q126 0 239 75v-128q-111 -60 -254 -60q-89 0 -161 29.5t-117.5 79t-69.5 111.5t-24 129q0 154 107 252.5t267 98.5zM411 886q28 0 48 -20t20 -47q0 -28 -20 -48
t-48 -20t-48 20t-20 48q0 27 20 47t48 20z" />
    <glyph glyph-name="cdotaccent" unicode="&#x10b;" horiz-adv-x="460" 
d="M275 475q68 0 141 -31v-109q-63 37 -128 37q-60 0 -95.5 -40t-35.5 -98t35.5 -99.5t106.5 -41.5q55 0 126 30v-104q-74 -28 -143 -28q-67 0 -117.5 23t-77 60.5t-39 76.5t-12.5 78q0 103 62 174.5t177 71.5zM253 678q28 0 48 -20t20 -47q0 -28 -20 -48t-48 -20t-48 20
t-20 48q0 27 20 47t48 20z" />
    <glyph glyph-name="Ccaron" unicode="&#x10c;" horiz-adv-x="718" 
d="M418 691q120 0 247 -54v-129q-117 70 -232 70q-116 0 -184.5 -70.5t-68.5 -168.5t68 -166.5t183 -68.5q126 0 239 75v-128q-111 -60 -254 -60q-89 0 -161 29.5t-117.5 79t-69.5 111.5t-24 129q0 154 107 252.5t267 98.5zM338 733l-97 156h76l101 -90l102 90h75l-96 -156
h-161z" />
    <glyph glyph-name="ccaron" unicode="&#x10d;" horiz-adv-x="460" 
d="M275 475q68 0 141 -31v-109q-63 37 -128 37q-60 0 -95.5 -40t-35.5 -98t35.5 -99.5t106.5 -41.5q55 0 126 30v-104q-74 -28 -143 -28q-67 0 -117.5 23t-77 60.5t-39 76.5t-12.5 78q0 103 62 174.5t177 71.5zM91 683h75l94 -87l92 87h76l-101 -157h-136z" />
    <glyph glyph-name="Dcaron" unicode="&#x10e;" horiz-adv-x="767" 
d="M74 682h273q176 0 276 -93.5t100 -242.5q0 -160 -99.5 -253t-272.5 -93h-277v682zM206 105h135q120 0 183.5 62t63.5 176q0 110 -65.5 173t-191.5 63h-125v-474zM279 733l-97 156h76l101 -90l102 90h75l-96 -156h-161z" />
    <glyph glyph-name="dcaron" unicode="&#x10f;" horiz-adv-x="680" 
d="M156 234q0 -138 152 -138h63v260q-40 24 -88 24q-56 0 -91.5 -39t-35.5 -107zM371 682h117v-682h-197q-133 0 -194 66.5t-61 168.5q0 106 64 173t163 67q60 0 108 -25v232zM544 448v19q57 19 59 92q-25 2 -39.5 18.5t-14.5 42.5q0 32 21 52t51 20q33 0 54 -24t21 -65
q0 -62 -42.5 -106t-109.5 -49z" />
    <glyph glyph-name="Dcroat" unicode="&#x110;" horiz-adv-x="767" 
d="M74 682h273q176 0 276 -93.5t100 -242.5q0 -160 -99.5 -253t-272.5 -93h-277v302h-74v78h74v302zM206 105h135q120 0 183.5 62t63.5 176q0 110 -65.5 173t-191.5 63h-125v-199h176v-78h-176v-197z" />
    <glyph glyph-name="dcroat" unicode="&#x111;" horiz-adv-x="550" 
d="M371 682h117v-76h75v-62h-75v-544h-208q-124 0 -184 62.5t-60 172.5q0 106 64 173t163 67q58 0 108 -25v94h-108v62h108v76zM156 234q0 -72 34.5 -106t114.5 -34h66v264q-39 23 -90 23q-55 0 -90 -39.5t-35 -107.5z" />
    <glyph glyph-name="Emacron" unicode="&#x112;" horiz-adv-x="557" 
d="M74 682h424v-103h-292v-181h281v-103h-281v-191h301v-104h-433v682zM140 767v83h287v-83h-287z" />
    <glyph glyph-name="emacron" unicode="&#x113;" horiz-adv-x="517" 
d="M269 475q93 0 153 -64.5t60 -178.5v-18h-327q6 -58 45 -93.5t99 -35.5q88 0 173 53v-94q-85 -53 -193 -53q-106 0 -174.5 67t-68.5 178q0 105 63.5 172t169.5 67zM155 278h214q-2 51 -29 80t-74 29q-46 0 -77.5 -31t-33.5 -78zM124 646h287v-84h-287v84z" />
    <glyph glyph-name="Ebreve" unicode="&#x114;" horiz-adv-x="557" 
d="M74 682h424v-103h-292v-181h281v-103h-281v-191h301v-104h-433v682zM114 882h83q17 -65 92 -65q68 0 87 65h83q-11 -72 -57 -112.5t-115 -40.5q-73 0 -118.5 40.5t-54.5 112.5z" />
    <glyph glyph-name="ebreve" unicode="&#x115;" horiz-adv-x="517" 
d="M269 475q93 0 153 -64.5t60 -178.5v-18h-327q6 -58 45 -93.5t99 -35.5q88 0 173 53v-94q-85 -53 -193 -53q-106 0 -174.5 67t-68.5 178q0 105 63.5 172t169.5 67zM155 278h214q-2 51 -29 80t-74 29q-46 0 -77.5 -31t-33.5 -78zM102 664h77q17 -60 79 -60q31 0 48 13.5
t27 46.5h78q-6 -60 -48.5 -100.5t-105.5 -40.5q-62 0 -103 37t-52 104z" />
    <glyph glyph-name="Edotaccent" unicode="&#x116;" horiz-adv-x="557" 
d="M74 682h424v-103h-292v-181h281v-103h-281v-191h301v-104h-433v682zM280 886q28 0 48 -20t20 -47q0 -28 -20 -48t-48 -20t-48 20t-20 48q0 27 20 47t48 20z" />
    <glyph glyph-name="edotaccent" unicode="&#x117;" horiz-adv-x="517" 
d="M269 475q93 0 153 -64.5t60 -178.5v-18h-327q6 -58 45 -93.5t99 -35.5q88 0 173 53v-94q-85 -53 -193 -53q-106 0 -174.5 67t-68.5 178q0 105 63.5 172t169.5 67zM155 278h214q-2 51 -29 80t-74 29q-46 0 -77.5 -31t-33.5 -78zM264 678q28 0 48 -20t20 -47q0 -28 -20 -48
t-48 -20t-48 20t-20 48q0 27 20 47t48 20z" />
    <glyph glyph-name="Eogonek" unicode="&#x118;" horiz-adv-x="557" 
d="M74 682h424v-103h-292v-181h281v-103h-281v-191h301v-104h-83q-25 -35 -25 -61q0 -50 57 -50q24 0 50 10v-73q-37 -16 -77 -16q-54 0 -82.5 27t-28.5 74t34 89h-278v682z" />
    <glyph glyph-name="eogonek" unicode="&#x119;" horiz-adv-x="517" 
d="M269 475q93 0 153 -64.5t60 -178.5v-18h-327q6 -58 45 -93.5t99 -35.5q88 0 173 53v-94q-66 -41 -141 -50q-20 -32 -20 -55q0 -50 57 -50q24 0 50 10v-73q-37 -16 -77 -16q-54 0 -82.5 27t-28.5 74q0 43 27 81q-98 7 -159.5 73t-61.5 171t63.5 172t169.5 67zM155 278h214
q-2 51 -29 80t-74 29q-46 0 -77.5 -31t-33.5 -78z" />
    <glyph glyph-name="Ecaron" unicode="&#x11a;" horiz-adv-x="557" 
d="M74 682h424v-103h-292v-181h281v-103h-281v-191h301v-104h-433v682zM203 733l-97 156h76l101 -90l102 90h75l-96 -156h-161z" />
    <glyph glyph-name="ecaron" unicode="&#x11b;" horiz-adv-x="517" 
d="M269 475q93 0 153 -64.5t60 -178.5v-18h-327q6 -58 45 -93.5t99 -35.5q88 0 173 53v-94q-85 -53 -193 -53q-106 0 -174.5 67t-68.5 178q0 105 63.5 172t169.5 67zM155 278h214q-2 51 -29 80t-74 29q-46 0 -77.5 -31t-33.5 -78zM100 683h75l94 -87l92 87h76l-101 -157
h-136z" />
    <glyph glyph-name="Gcircumflex" unicode="&#x11c;" horiz-adv-x="756" 
d="M672 636v-120q-113 67 -236 67q-116 0 -186 -71.5t-70 -171.5q0 -103 69.5 -171.5t181.5 -68.5q54 0 131 23v123h-118v102h242v-301q-129 -56 -266 -56q-177 0 -276.5 100.5t-99.5 245.5q0 148 102.5 251t274.5 103q119 0 251 -55zM223 733l96 156h160l98 -156h-76
l-102 89l-101 -89h-75z" />
    <glyph glyph-name="gcircumflex" unicode="&#x11d;" horiz-adv-x="471" 
d="M464 466v-82h-90q47 -37 47 -98q0 -62 -42.5 -101.5t-113.5 -49.5q-20 -3 -30 -5t-23.5 -6.5t-19.5 -11t-6 -16.5q0 -32 111 -47q160 -22 160 -135q0 -71 -60 -109t-166 -38q-109 0 -166 37t-57 97q0 95 115 119q-45 24 -45 59q0 54 73 72q-111 41 -111 147
q0 78 56.5 123t159.5 45h208zM143 295q0 -36 25.5 -58.5t60.5 -22.5q39 0 63.5 23t24.5 61q0 34 -25 57.5t-62 23.5q-38 0 -62.5 -25t-24.5 -59zM113 -93q0 -64 121 -64q120 0 120 63q0 32 -36.5 48.5t-98.5 16.5q-48 0 -77 -16t-29 -48zM161 683h137l89 -157h-74l-84 87
l-82 -87h-73z" />
    <glyph glyph-name="Gbreve" unicode="&#x11e;" horiz-adv-x="756" 
d="M672 636v-120q-113 67 -236 67q-116 0 -186 -71.5t-70 -171.5q0 -103 69.5 -171.5t181.5 -68.5q54 0 131 23v123h-118v102h242v-301q-129 -56 -266 -56q-177 0 -276.5 100.5t-99.5 245.5q0 148 102.5 251t274.5 103q119 0 251 -55zM234 882h83q17 -65 92 -65q68 0 87 65
h83q-11 -72 -57 -112.5t-115 -40.5q-73 0 -118.5 40.5t-54.5 112.5z" />
    <glyph glyph-name="gbreve" unicode="&#x11f;" horiz-adv-x="471" 
d="M464 466v-82h-90q47 -37 47 -98q0 -62 -42.5 -101.5t-113.5 -49.5q-20 -3 -30 -5t-23.5 -6.5t-19.5 -11t-6 -16.5q0 -32 111 -47q160 -22 160 -135q0 -71 -60 -109t-166 -38q-109 0 -166 37t-57 97q0 95 115 119q-45 24 -45 59q0 54 73 72q-111 41 -111 147
q0 78 56.5 123t159.5 45h208zM143 295q0 -36 25.5 -58.5t60.5 -22.5q39 0 63.5 23t24.5 61q0 34 -25 57.5t-62 23.5q-38 0 -62.5 -25t-24.5 -59zM113 -93q0 -64 121 -64q120 0 120 63q0 32 -36.5 48.5t-98.5 16.5q-48 0 -77 -16t-29 -48zM92 664h77q17 -60 79 -60
q31 0 48 13.5t27 46.5h78q-6 -60 -48.5 -100.5t-105.5 -40.5q-62 0 -103 37t-52 104z" />
    <glyph glyph-name="Gdotaccent" unicode="&#x120;" horiz-adv-x="756" 
d="M672 636v-120q-113 67 -236 67q-116 0 -186 -71.5t-70 -171.5q0 -103 69.5 -171.5t181.5 -68.5q54 0 131 23v123h-118v102h242v-301q-129 -56 -266 -56q-177 0 -276.5 100.5t-99.5 245.5q0 148 102.5 251t274.5 103q119 0 251 -55zM412 886q28 0 48 -20t20 -47
q0 -28 -20 -48t-48 -20t-48 20t-20 48q0 27 20 47t48 20z" />
    <glyph glyph-name="gdotaccent" unicode="&#x121;" horiz-adv-x="471" 
d="M464 466v-82h-90q47 -37 47 -98q0 -62 -42.5 -101.5t-113.5 -49.5q-20 -3 -30 -5t-23.5 -6.5t-19.5 -11t-6 -16.5q0 -32 111 -47q160 -22 160 -135q0 -71 -60 -109t-166 -38q-109 0 -166 37t-57 97q0 95 115 119q-45 24 -45 59q0 54 73 72q-111 41 -111 147
q0 78 56.5 123t159.5 45h208zM143 295q0 -36 25.5 -58.5t60.5 -22.5q39 0 63.5 23t24.5 61q0 34 -25 57.5t-62 23.5q-38 0 -62.5 -25t-24.5 -59zM113 -93q0 -64 121 -64q120 0 120 63q0 32 -36.5 48.5t-98.5 16.5q-48 0 -77 -16t-29 -48zM231 678q28 0 48 -20t20 -47
q0 -28 -20 -48t-48 -20t-48 20t-20 48q0 27 20 47t48 20z" />
    <glyph glyph-name="Gcommaaccent" unicode="&#x122;" horiz-adv-x="756" 
d="M672 636v-120q-113 67 -236 67q-116 0 -186 -71.5t-70 -171.5q0 -103 69.5 -171.5t181.5 -68.5q54 0 131 23v123h-118v102h242v-301q-129 -56 -266 -56q-177 0 -276.5 100.5t-99.5 245.5q0 148 102.5 251t274.5 103q119 0 251 -55zM313 -262v18q54 19 56 69
q-25 1 -39 16.5t-14 39.5q0 30 20 48.5t49 18.5q32 0 53 -22.5t21 -60.5q0 -52 -39.5 -87t-106.5 -40z" />
    <glyph glyph-name="gcommaaccent" unicode="&#x123;" horiz-adv-x="471" 
d="M464 466v-82h-90q47 -37 47 -98q0 -62 -42.5 -101.5t-113.5 -49.5q-20 -3 -30 -5t-23.5 -6.5t-19.5 -11t-6 -16.5q0 -32 111 -47q160 -22 160 -135q0 -71 -60 -109t-166 -38q-109 0 -166 37t-57 97q0 95 115 119q-45 24 -45 59q0 54 73 72q-111 41 -111 147
q0 78 56.5 123t159.5 45h208zM143 295q0 -36 25.5 -58.5t60.5 -22.5q39 0 63.5 23t24.5 61q0 34 -25 57.5t-62 23.5q-38 0 -62.5 -25t-24.5 -59zM113 -93q0 -64 121 -64q120 0 120 63q0 32 -36.5 48.5t-98.5 16.5q-48 0 -77 -16t-29 -48zM298 734l6 -11q-27 -19 -38 -37
t-13 -46q24 -4 37.5 -18.5t13.5 -36.5q0 -26 -18.5 -42.5t-44.5 -16.5q-31 0 -50.5 22t-19.5 55q0 43 34.5 81.5t92.5 49.5z" />
    <glyph glyph-name="Hcircumflex" unicode="&#x124;" horiz-adv-x="771" 
d="M74 682h132v-281h359v281h132v-682h-132v287h-359v-287h-132v682zM209 733l96 156h160l98 -156h-76l-102 89l-101 -89h-75z" />
    <glyph glyph-name="hcircumflex" unicode="&#x125;" horiz-adv-x="546" 
d="M329 475q80 0 120 -49.5t40 -136.5v-289h-117v279q0 101 -82 101q-59 0 -111 -67v-313h-117v682h117v-279q63 72 150 72zM205 879h137l89 -157h-74l-84 87l-82 -87h-73z" />
    <glyph glyph-name="Hbar" unicode="&#x126;" horiz-adv-x="771" 
d="M74 682h132v-101h359v101h132v-101h74v-79h-74v-502h-132v287h-359v-287h-132v502h-74v79h74v101zM206 401h359v101h-359v-101z" />
    <glyph glyph-name="hbar" unicode="&#x127;" horiz-adv-x="546" 
d="M329 470q80 0 120 -49.5t40 -135.5v-285h-117v274q0 102 -82 102q-58 0 -111 -68v-308h-117v544h-72v62h72v76h117v-76h172v-62h-172v-146q63 72 150 72z" />
    <glyph glyph-name="Itilde" unicode="&#x128;" horiz-adv-x="280" 
d="M74 682h132v-682h-132v682zM71 865q28 0 79.5 -20t63.5 -20q32 0 37 40h58q-1 -60 -28.5 -94t-69.5 -34q-25 0 -75.5 20t-67.5 20q-32 0 -36 -40h-60q1 60 29.5 94t69.5 34z" />
    <glyph glyph-name="itilde" unicode="&#x129;" horiz-adv-x="240" 
d="M62 466h117v-466h-117v466zM51 666q28 0 79.5 -20t63.5 -20q32 0 37 40h58q-1 -60 -28.5 -94t-69.5 -34q-25 0 -75.5 20t-67.5 20q-32 0 -36 -40h-60q1 60 29.5 94t69.5 34z" />
    <glyph glyph-name="Imacron" unicode="&#x12a;" horiz-adv-x="280" 
d="M74 682h132v-682h-132v682zM-3 767v83h287v-83h-287z" />
    <glyph glyph-name="imacron" unicode="&#x12b;" horiz-adv-x="240" 
d="M62 466h117v-466h-117v466zM-23 646h287v-84h-287v84z" />
    <glyph glyph-name="Ibreve" unicode="&#x12c;" horiz-adv-x="280" 
d="M74 682h132v-682h-132v682zM-32 882h83q17 -65 92 -65q68 0 87 65h83q-11 -72 -57 -112.5t-115 -40.5q-73 0 -118.5 40.5t-54.5 112.5z" />
    <glyph glyph-name="ibreve" unicode="&#x12d;" horiz-adv-x="240" 
d="M62 466h117v-466h-117v466zM-34 664h77q17 -60 79 -60q31 0 48 13.5t27 46.5h78q-6 -60 -48.5 -100.5t-105.5 -40.5q-62 0 -103 37t-52 104z" />
    <glyph glyph-name="Iogonek" unicode="&#x12e;" horiz-adv-x="280" 
d="M74 682h132v-682h-61q-25 -35 -25 -61q0 -50 57 -50q24 0 50 10v-73q-37 -16 -77 -16q-54 0 -82.5 27t-28.5 74q0 49 35 90v681z" />
    <glyph glyph-name="iogonek" unicode="&#x12f;" horiz-adv-x="240" 
d="M62 466h117v-466h-46q-25 -35 -25 -61q0 -50 57 -50q24 0 50 10v-73q-37 -16 -77 -16q-54 0 -82.5 27t-28.5 74q0 49 35 90v465zM120 655q25 0 42.5 -17.5t17.5 -41.5q0 -25 -17.5 -42.5t-42.5 -17.5t-42 18t-17 42q0 23 17 41t42 18z" />
    <glyph glyph-name="Idotaccent" unicode="&#x130;" horiz-adv-x="280" 
d="M74 682h132v-682h-132v682zM135 886q28 0 48 -20t20 -47q0 -28 -20 -48t-48 -20t-48 20t-20 48q0 27 20 47t48 20z" />
    <glyph glyph-name="dotlessi" unicode="&#x131;" horiz-adv-x="240" 
d="M62 466h117v-466h-117v466z" />
    <glyph glyph-name="Jcircumflex" unicode="&#x134;" horiz-adv-x="285" 
d="M79 682h132v-654q0 -131 -44 -193t-156 -62q-24 0 -45 4l-23 115q89 0 112.5 25.5t23.5 121.5v643zM-35 733l96 156h160l98 -156h-76l-102 89l-101 -89h-75z" />
    <glyph glyph-name="jcircumflex" unicode="&#x135;" horiz-adv-x="240" 
d="M62 466h117v-499q0 -87 -29.5 -131.5t-92.5 -67.5l-64 87q37 14 53 39t16 81v491zM51 683h137l89 -157h-74l-84 87l-82 -87h-73z" />
    <glyph glyph-name="Kcommaaccent" unicode="&#x136;" horiz-adv-x="695" 
d="M74 682h133v-313l273 313h154l-282 -322l345 -360h-171l-319 334v-334h-133v682zM267 -262v18q54 19 56 69q-25 1 -39 16.5t-14 39.5q0 30 20 48.5t49 18.5q32 0 53 -22.5t21 -60.5q0 -52 -39.5 -87t-106.5 -40z" />
    <glyph glyph-name="kcommaaccent" unicode="&#x137;" horiz-adv-x="535" 
d="M62 682h118v-682h-118v682zM377 466h140l-192 -224l226 -242h-153l-215 239zM203 -262v18q54 19 56 69q-25 1 -39 16.5t-14 39.5q0 30 20 48.5t49 18.5q32 0 53 -22.5t21 -60.5q0 -52 -39.5 -87t-106.5 -40z" />
    <glyph glyph-name="kgreenlandic" unicode="&#x138;" horiz-adv-x="535" 
d="M62 466h117v-220l190 220h140l-194 -225l227 -241h-152l-211 233v-233h-117v466z" />
    <glyph glyph-name="Lacute" unicode="&#x139;" horiz-adv-x="532" 
d="M74 682h133v-569h308v-113h-441v682zM91 733l83 156h149l-156 -156h-76z" />
    <glyph glyph-name="lacute" unicode="&#x13a;" horiz-adv-x="240" 
d="M62 682h117v-682h-117v682zM120 879h135l-134 -157h-73z" />
    <glyph glyph-name="Lcommaaccent" unicode="&#x13b;" horiz-adv-x="532" 
d="M74 682h133v-569h308v-113h-441v682zM208 -262v18q54 19 56 69q-25 1 -39 16.5t-14 39.5q0 30 20 48.5t49 18.5q32 0 53 -22.5t21 -60.5q0 -52 -39.5 -87t-106.5 -40z" />
    <glyph glyph-name="lcommaaccent" unicode="&#x13c;" horiz-adv-x="240" 
d="M62 682h117v-682h-117v682zM44 -262v18q54 19 56 69q-25 1 -39 16.5t-14 39.5q0 30 20 48.5t49 18.5q32 0 53 -22.5t21 -60.5q0 -52 -39.5 -87t-106.5 -40z" />
    <glyph glyph-name="Lcaron" unicode="&#x13d;" horiz-adv-x="532" 
d="M74 682h133v-569h308v-113h-441v682zM315 448v19q57 19 59 92q-25 2 -39.5 18.5t-14.5 42.5q0 32 21 52t51 20q33 0 54 -24t21 -65q0 -62 -42.5 -106t-109.5 -49z" />
    <glyph glyph-name="lcaron" unicode="&#x13e;" horiz-adv-x="373" 
d="M62 682h117v-682h-117v682zM236 448v19q57 19 59 92q-25 2 -39.5 18.5t-14.5 42.5q0 32 21 52t51 20q33 0 54 -24t21 -65q0 -62 -42.5 -106t-109.5 -49z" />
    <glyph glyph-name="Ldot" unicode="&#x13f;" horiz-adv-x="532" 
d="M74 682h133v-569h308v-113h-441v682zM401 426q28 0 48 -20t20 -47q0 -28 -20 -48t-48 -20t-48 20t-20 48q0 27 20 47t48 20z" />
    <glyph glyph-name="ldot" unicode="&#x140;" horiz-adv-x="349" 
d="M62 682h117v-682h-117v682zM296 427q28 0 48 -20t20 -47q0 -28 -20 -48t-48 -20t-48 20t-20 48q0 27 20 47t48 20z" />
    <glyph glyph-name="Lslash" unicode="&#x141;" horiz-adv-x="537" 
d="M78 682h132v-247l135 108v-101l-135 -112v-217h309v-113h-441v230l-89 -71v105l89 72v346z" />
    <glyph glyph-name="lslash" unicode="&#x142;" horiz-adv-x="240" 
d="M62 682h117v-252l74 60v-88l-74 -61v-341h-117v252l-75 -60v88l75 61v341z" />
    <glyph glyph-name="Nacute" unicode="&#x143;" horiz-adv-x="813" 
d="M74 682h113l423 -481v481h129v-682h-116l-420 478v-478h-129v682zM345 733l83 156h149l-156 -156h-76z" />
    <glyph glyph-name="nacute" unicode="&#x144;" horiz-adv-x="546" 
d="M328 475q79 0 120 -51t41 -141v-283h-117v271q0 109 -86 109q-62 0 -107 -68v-312h-117v466h117v-62q64 71 149 71zM275 683h135l-134 -157h-73z" />
    <glyph glyph-name="Ncommaaccent" unicode="&#x145;" horiz-adv-x="813" 
d="M74 682h113l423 -481v481h129v-682h-116l-420 478v-478h-129v682zM327 -262v18q54 19 56 69q-25 1 -39 16.5t-14 39.5q0 30 20 48.5t49 18.5q32 0 53 -22.5t21 -60.5q0 -52 -39.5 -87t-106.5 -40z" />
    <glyph glyph-name="ncommaaccent" unicode="&#x146;" horiz-adv-x="546" 
d="M328 475q79 0 120 -51t41 -141v-283h-117v271q0 109 -86 109q-62 0 -107 -68v-312h-117v466h117v-62q64 71 149 71zM199 -262v18q54 19 56 69q-25 1 -39 16.5t-14 39.5q0 30 20 48.5t49 18.5q32 0 53 -22.5t21 -60.5q0 -52 -39.5 -87t-106.5 -40z" />
    <glyph glyph-name="Ncaron" unicode="&#x147;" horiz-adv-x="813" 
d="M74 682h113l423 -481v481h129v-682h-116l-420 478v-478h-129v682zM324 733l-97 156h76l101 -90l102 90h75l-96 -156h-161z" />
    <glyph glyph-name="ncaron" unicode="&#x148;" horiz-adv-x="546" 
d="M328 475q79 0 120 -51t41 -141v-283h-117v271q0 109 -86 109q-62 0 -107 -68v-312h-117v466h117v-62q64 71 149 71zM107 683h75l94 -87l92 87h76l-101 -157h-136z" />
    <glyph glyph-name="napostrophe" unicode="&#x149;" horiz-adv-x="674" 
d="M456 475q79 0 120 -51t41 -141v-283h-117v271q0 109 -86 109q-62 0 -107 -68v-312h-117v466h117v-62q64 71 149 71zM74 691q39 0 63 -33t24 -80q0 -61 -39.5 -109.5t-113.5 -65.5v23q52 37 52 114q-60 16 -60 74q0 32 21.5 54.5t52.5 22.5z" />
    <glyph glyph-name="Eng" unicode="&#x14a;" horiz-adv-x="772" 
d="M468 103q54 0 78.5 28.5t24.5 88.5v172q0 88 -41.5 136.5t-123.5 48.5q-58 0 -110.5 -29.5t-85.5 -86.5v-461h-132v682h132v-91q94 100 226 100q124 0 195.5 -74.5t71.5 -208.5v-183q0 -108 -52 -171t-158 -63q-29 0 -52 4l-18 112q24 -4 45 -4z" />
    <glyph glyph-name="eng" unicode="&#x14b;" horiz-adv-x="546" 
d="M328 475q76 0 118.5 -49t42.5 -149v-298q0 -91 -30 -139t-93 -72l-64 87q42 20 55.5 49t13.5 98v269q0 62 -23 85.5t-62 23.5q-61 0 -106 -68v-312h-118v466h118v-62q65 71 148 71z" />
    <glyph glyph-name="Omacron" unicode="&#x14c;" horiz-adv-x="832" 
d="M416 691q166 0 269 -100t103 -249q0 -146 -101.5 -248.5t-274.5 -102.5q-167 0 -267.5 102t-100.5 247q0 66 23.5 128t68 112.5t117 80.5t163.5 30zM417 572q-109 0 -173.5 -65.5t-64.5 -166.5t67.5 -165.5t166.5 -64.5q105 0 172.5 61t67.5 171q0 92 -63.5 161
t-172.5 69zM272 767v83h287v-83h-287z" />
    <glyph glyph-name="omacron" unicode="&#x14d;" horiz-adv-x="580" 
d="M287 378q-57 0 -93.5 -39.5t-36.5 -105.5q0 -67 37 -106t97 -39t96 40t36 105q0 70 -38.5 107.5t-97.5 37.5zM291 475q114 0 184 -67t70 -175q0 -114 -75 -178t-181 -64q-119 0 -186 71t-67 169q0 107 69 175.5t186 68.5zM147 646h287v-84h-287v84z" />
    <glyph glyph-name="Obreve" unicode="&#x14e;" horiz-adv-x="832" 
d="M416 691q166 0 269 -100t103 -249q0 -146 -101.5 -248.5t-274.5 -102.5q-167 0 -267.5 102t-100.5 247q0 66 23.5 128t68 112.5t117 80.5t163.5 30zM417 572q-109 0 -173.5 -65.5t-64.5 -166.5t67.5 -165.5t166.5 -64.5q105 0 172.5 61t67.5 171q0 92 -63.5 161
t-172.5 69zM243 882h83q17 -65 92 -65q68 0 87 65h83q-11 -72 -57 -112.5t-115 -40.5q-73 0 -118.5 40.5t-54.5 112.5z" />
    <glyph glyph-name="obreve" unicode="&#x14f;" horiz-adv-x="580" 
d="M287 378q-57 0 -93.5 -39.5t-36.5 -105.5q0 -67 37 -106t97 -39t96 40t36 105q0 70 -38.5 107.5t-97.5 37.5zM291 475q114 0 184 -67t70 -175q0 -114 -75 -178t-181 -64q-119 0 -186 71t-67 169q0 107 69 175.5t186 68.5zM136 664h77q17 -60 79 -60q31 0 48 13.5t27 46.5
h78q-6 -60 -48.5 -100.5t-105.5 -40.5q-62 0 -103 37t-52 104z" />
    <glyph glyph-name="Ohungarumlaut" unicode="&#x150;" horiz-adv-x="832" 
d="M416 691q166 0 269 -100t103 -249q0 -146 -101.5 -248.5t-274.5 -102.5q-167 0 -267.5 102t-100.5 247q0 66 23.5 128t68 112.5t117 80.5t163.5 30zM417 572q-109 0 -173.5 -65.5t-64.5 -166.5t67.5 -165.5t166.5 -64.5q105 0 172.5 61t67.5 171q0 92 -63.5 161
t-172.5 69zM285 733l56 156h139l-128 -156h-67zM470 733l57 156h138l-128 -156h-67z" />
    <glyph glyph-name="ohungarumlaut" unicode="&#x151;" horiz-adv-x="580" 
d="M287 378q-57 0 -93.5 -39.5t-36.5 -105.5q0 -67 37 -106t97 -39t96 40t36 105q0 70 -38.5 107.5t-97.5 37.5zM291 475q114 0 184 -67t70 -175q0 -114 -75 -178t-181 -64q-119 0 -186 71t-67 169q0 107 69 175.5t186 68.5zM240 679h133l-133 -153h-70zM422 679h132
l-133 -153h-71z" />
    <glyph glyph-name="OE" unicode="&#x152;" horiz-adv-x="972" 
d="M437 682h475v-102h-284v-181h272v-104h-272v-193h293v-102h-490q-179 0 -283 93.5t-104 247.5q0 162 107 251.5t286 89.5zM181 341q0 -112 71.5 -175.5t203.5 -63.5h40v478h-35q-132 0 -206 -60.5t-74 -178.5z" />
    <glyph glyph-name="oe" unicode="&#x153;" horiz-adv-x="875" 
d="M464 398q66 77 162 77t155 -65t59 -179v-17h-319q4 -60 44 -94.5t99 -34.5q82 0 167 53v-95q-92 -52 -189 -52q-110 0 -174 79q-63 -79 -182 -79q-114 0 -182 66.5t-68 171.5q0 109 68 177.5t181 68.5q111 0 179 -77zM521 278h210q-5 52 -31.5 80.5t-72.5 28.5
q-45 0 -74.5 -30.5t-31.5 -78.5zM285 88q58 0 93 40.5t35 104.5q0 75 -40.5 110t-89.5 35q-56 0 -91 -39t-35 -106t35.5 -106t92.5 -39z" />
    <glyph glyph-name="Racute" unicode="&#x154;" horiz-adv-x="644" 
d="M74 682h232q107 0 165.5 -55.5t58.5 -141.5q0 -121 -113 -169q33 -19 56 -46t63 -93l105 -177h-149l-94 162q-43 75 -77 100t-77 25h-38v-287h-132v682zM206 582v-198h67q58 0 90.5 22t32.5 78q0 47 -28 72.5t-82 25.5h-80zM205 733l83 156h149l-156 -156h-76z" />
    <glyph glyph-name="racute" unicode="&#x155;" horiz-adv-x="420" 
d="M316 475q52 0 105 -47l-53 -110q-42 42 -84 42q-38 0 -70 -34.5t-39 -93.5v-232h-117v466h117v-109q65 118 141 118zM231 683h135l-134 -157h-73z" />
    <glyph glyph-name="Rcommaaccent" unicode="&#x156;" horiz-adv-x="644" 
d="M74 682h232q107 0 165.5 -55.5t58.5 -141.5q0 -121 -113 -169q33 -19 56 -46t63 -93l105 -177h-149l-94 162q-43 75 -77 100t-77 25h-38v-287h-132v682zM206 582v-198h67q58 0 90.5 22t32.5 78q0 47 -28 72.5t-82 25.5h-80zM262 -262v18q54 19 56 69q-25 1 -39 16.5
t-14 39.5q0 30 20 48.5t49 18.5q32 0 53 -22.5t21 -60.5q0 -52 -39.5 -87t-106.5 -40z" />
    <glyph glyph-name="rcommaaccent" unicode="&#x157;" horiz-adv-x="420" 
d="M316 475q52 0 105 -47l-53 -110q-42 42 -84 42q-38 0 -70 -34.5t-39 -93.5v-232h-117v466h117v-109q65 118 141 118zM40 -262v18q54 19 56 69q-25 1 -39 16.5t-14 39.5q0 30 20 48.5t49 18.5q32 0 53 -22.5t21 -60.5q0 -52 -39.5 -87t-106.5 -40z" />
    <glyph glyph-name="Rcaron" unicode="&#x158;" horiz-adv-x="644" 
d="M74 682h232q107 0 165.5 -55.5t58.5 -141.5q0 -121 -113 -169q33 -19 56 -46t63 -93l105 -177h-149l-94 162q-43 75 -77 100t-77 25h-38v-287h-132v682zM206 582v-198h67q58 0 90.5 22t32.5 78q0 47 -28 72.5t-82 25.5h-80zM194 733l-97 156h76l101 -90l102 90h75
l-96 -156h-161z" />
    <glyph glyph-name="rcaron" unicode="&#x159;" horiz-adv-x="420" 
d="M316 475q52 0 105 -47l-53 -110q-42 42 -84 42q-38 0 -70 -34.5t-39 -93.5v-232h-117v466h117v-109q65 118 141 118zM60 683h75l94 -87l92 87h76l-101 -157h-136z" />
    <glyph glyph-name="Sacute" unicode="&#x15a;" horiz-adv-x="514" 
d="M263 691q99 0 179 -51v-127q-84 73 -173 73q-43 0 -67 -19t-24 -51q0 -29 21 -54t87 -61q103 -56 143.5 -102.5t40.5 -120.5q0 -82 -60 -134.5t-156 -52.5q-106 0 -202 60v138q90 -92 191 -92q43 0 69 22t26 55q0 34 -25 61t-112 74q-76 43 -114.5 88.5t-38.5 114.5
q0 77 59 128t156 51zM176 733l83 156h149l-156 -156h-76z" />
    <glyph glyph-name="sacute" unicode="&#x15b;" horiz-adv-x="417" 
d="M45 347q0 54 44.5 91t116.5 37q79 0 148 -39v-99q-80 48 -135 48q-27 0 -41 -9.5t-14 -23.5q0 -17 15 -31t73 -44q60 -30 92.5 -64.5t32.5 -84.5q0 -55 -43 -96t-125 -41q-75 0 -164 40v106q80 -57 145 -57q33 0 50.5 11.5t17.5 27.5q0 20 -17.5 35.5t-83.5 51.5
q-57 29 -84.5 62.5t-27.5 78.5zM219 683h135l-134 -157h-73z" />
    <glyph glyph-name="Scircumflex" unicode="&#x15c;" horiz-adv-x="514" 
d="M263 691q99 0 179 -51v-127q-84 73 -173 73q-43 0 -67 -19t-24 -51q0 -29 21 -54t87 -61q103 -56 143.5 -102.5t40.5 -120.5q0 -82 -60 -134.5t-156 -52.5q-106 0 -202 60v138q90 -92 191 -92q43 0 69 22t26 55q0 34 -25 61t-112 74q-76 43 -114.5 88.5t-38.5 114.5
q0 77 59 128t156 51zM79 733l96 156h160l98 -156h-76l-102 89l-101 -89h-75z" />
    <glyph glyph-name="scircumflex" unicode="&#x15d;" horiz-adv-x="417" 
d="M45 347q0 54 44.5 91t116.5 37q79 0 148 -39v-99q-80 48 -135 48q-27 0 -41 -9.5t-14 -23.5q0 -17 15 -31t73 -44q60 -30 92.5 -64.5t32.5 -84.5q0 -55 -43 -96t-125 -41q-75 0 -164 40v106q80 -57 145 -57q33 0 50.5 11.5t17.5 27.5q0 20 -17.5 35.5t-83.5 51.5
q-57 29 -84.5 62.5t-27.5 78.5zM139 683h137l89 -157h-74l-84 87l-82 -87h-73z" />
    <glyph glyph-name="Scedilla" unicode="&#x15e;" horiz-adv-x="514" 
d="M263 691q99 0 179 -51v-127q-84 73 -173 73q-43 0 -67 -19t-24 -51q0 -29 21 -54t87 -61q103 -56 143.5 -102.5t40.5 -120.5q0 -77 -53 -128t-139 -57l-9 -23q88 -6 88 -77q0 -43 -40 -67.5t-113 -24.5q-39 0 -61 4v59q27 -3 44 -3q57 0 57 34q0 32 -39 32q-17 0 -25 -2
l31 69q-80 9 -159 57v138q90 -92 191 -92q43 0 69 22t26 55q0 34 -25 61t-112 74q-76 43 -114.5 88.5t-38.5 114.5q0 77 59 128t156 51z" />
    <glyph glyph-name="scedilla" unicode="&#x15f;" horiz-adv-x="417" 
d="M45 347q0 54 44.5 91t116.5 37q79 0 148 -39v-99q-80 48 -135 48q-27 0 -41 -9.5t-14 -23.5q0 -17 15 -31t73 -44q60 -30 92.5 -64.5t32.5 -84.5q0 -52 -38 -92t-113 -45l-9 -21q88 -6 88 -77q0 -43 -40 -67.5t-113 -24.5q-39 0 -61 4v59q30 -3 44 -3q58 0 58 34
q0 32 -40 32q-15 0 -25 -2l31 70q-51 6 -114 36v106q80 -57 145 -57q33 0 50.5 11.5t17.5 27.5q0 20 -17 34.5t-84 52.5q-57 29 -84.5 62.5t-27.5 78.5z" />
    <glyph glyph-name="Scaron" unicode="&#x160;" horiz-adv-x="514" 
d="M263 691q99 0 179 -51v-127q-84 73 -173 73q-43 0 -67 -19t-24 -51q0 -29 21 -54t87 -61q103 -56 143.5 -102.5t40.5 -120.5q0 -82 -60 -134.5t-156 -52.5q-106 0 -202 60v138q90 -92 191 -92q43 0 69 22t26 55q0 34 -25 61t-112 74q-76 43 -114.5 88.5t-38.5 114.5
q0 77 59 128t156 51zM183 733l-97 156h76l101 -90l102 90h75l-96 -156h-161z" />
    <glyph glyph-name="scaron" unicode="&#x161;" horiz-adv-x="417" 
d="M45 347q0 54 44.5 91t116.5 37q79 0 148 -39v-99q-80 48 -135 48q-27 0 -41 -9.5t-14 -23.5q0 -17 15 -31t73 -44q60 -30 92.5 -64.5t32.5 -84.5q0 -55 -43 -96t-125 -41q-75 0 -164 40v106q80 -57 145 -57q33 0 50.5 11.5t17.5 27.5q0 20 -17.5 35.5t-83.5 51.5
q-57 29 -84.5 62.5t-27.5 78.5zM41 683h75l94 -87l92 87h76l-101 -157h-136z" />
    <glyph glyph-name="Tcedilla" unicode="&#x162;" horiz-adv-x="646" 
d="M17 682h612v-112h-241v-570h-132v570h-239v112zM244 -262v18q54 19 56 69q-25 1 -39 16.5t-14 39.5q0 30 20 48.5t49 18.5q32 0 53 -22.5t21 -60.5q0 -52 -39.5 -87t-106.5 -40z" />
    <glyph glyph-name="tcedilla" unicode="&#x163;" horiz-adv-x="386" 
d="M4 389l187 188h8v-111h150v-93h-150v-197q0 -41 13.5 -63t52.5 -22q49 0 104 33v-100q-58 -33 -132 -33q-78 0 -116.5 42t-38.5 132v208h-78v16zM160 -262v18q54 19 56 69q-25 1 -39 16.5t-14 39.5q0 30 20 48.5t49 18.5q32 0 53 -22.5t21 -60.5q0 -52 -39.5 -87
t-106.5 -40z" />
    <glyph glyph-name="Tcaron" unicode="&#x164;" horiz-adv-x="646" 
d="M17 682h612v-112h-241v-570h-132v570h-239v112zM237 733l-97 156h76l101 -90l102 90h75l-96 -156h-161z" />
    <glyph glyph-name="tcaron" unicode="&#x165;" horiz-adv-x="475" 
d="M4 389l187 188h8v-111h150v-93h-150v-197q0 -41 13.5 -63t52.5 -22q49 0 104 33v-100q-58 -33 -132 -33q-78 0 -116.5 42t-38.5 132v208h-78v16zM338 448v19q57 19 59 92q-25 2 -39.5 18.5t-14.5 42.5q0 32 21 52t51 20q33 0 54 -24t21 -65q0 -62 -42.5 -106t-109.5 -49z
" />
    <glyph glyph-name="Tbar" unicode="&#x166;" horiz-adv-x="646" 
d="M17 682h612v-112h-241v-230h183v-78h-183v-262h-132v262h-183v78h183v230h-239v112z" />
    <glyph glyph-name="tbar" unicode="&#x167;" horiz-adv-x="386" 
d="M349 227h-150v-51q0 -41 13.5 -63t52.5 -22q49 0 104 33v-100q-58 -33 -132 -33q-78 0 -116.5 42t-38.5 132v62h-74v62h74v84h-78v16l187 188h8v-111h150v-93h-150v-84h150v-62z" />
    <glyph glyph-name="Utilde" unicode="&#x168;" horiz-adv-x="759" 
d="M66 682h132v-383q0 -99 45.5 -146.5t137.5 -47.5q90 0 135 46.5t45 146.5v384h132v-386q0 -147 -80 -226t-232 -79q-153 0 -234 78t-81 225v388zM311 865q28 0 79.5 -20t63.5 -20q32 0 37 40h58q-1 -60 -28.5 -94t-69.5 -34q-25 0 -75.5 20t-67.5 20q-32 0 -36 -40h-60
q1 60 29.5 94t69.5 34z" />
    <glyph glyph-name="utilde" unicode="&#x169;" horiz-adv-x="546" 
d="M57 466h117v-271q0 -110 85 -110q62 0 108 68v313h117v-466h-117v62q-65 -71 -150 -71q-160 0 -160 203v272zM203 666q28 0 79.5 -20t63.5 -20q32 0 37 40h58q-1 -60 -28.5 -94t-69.5 -34q-25 0 -75.5 20t-67.5 20q-32 0 -36 -40h-60q1 60 29.5 94t69.5 34z" />
    <glyph glyph-name="Umacron" unicode="&#x16a;" horiz-adv-x="759" 
d="M66 682h132v-383q0 -99 45.5 -146.5t137.5 -47.5q90 0 135 46.5t45 146.5v384h132v-386q0 -147 -80 -226t-232 -79q-153 0 -234 78t-81 225v388zM237 767v83h287v-83h-287z" />
    <glyph glyph-name="umacron" unicode="&#x16b;" horiz-adv-x="546" 
d="M57 466h117v-271q0 -110 85 -110q62 0 108 68v313h117v-466h-117v62q-65 -71 -150 -71q-160 0 -160 203v272zM129 646h287v-84h-287v84z" />
    <glyph glyph-name="Ubreve" unicode="&#x16c;" horiz-adv-x="759" 
d="M66 682h132v-383q0 -99 45.5 -146.5t137.5 -47.5q90 0 135 46.5t45 146.5v384h132v-386q0 -147 -80 -226t-232 -79q-153 0 -234 78t-81 225v388zM208 882h83q17 -65 92 -65q68 0 87 65h83q-11 -72 -57 -112.5t-115 -40.5q-73 0 -118.5 40.5t-54.5 112.5z" />
    <glyph glyph-name="ubreve" unicode="&#x16d;" horiz-adv-x="546" 
d="M57 466h117v-271q0 -110 85 -110q62 0 108 68v313h117v-466h-117v62q-65 -71 -150 -71q-160 0 -160 203v272zM118 664h77q17 -60 79 -60q31 0 48 13.5t27 46.5h78q-6 -60 -48.5 -100.5t-105.5 -40.5q-62 0 -103 37t-52 104z" />
    <glyph glyph-name="Uring" unicode="&#x16e;" horiz-adv-x="759" 
d="M66 682h132v-383q0 -99 45.5 -146.5t137.5 -47.5q90 0 135 46.5t45 146.5v384h132v-386q0 -147 -80 -226t-232 -79q-153 0 -234 78t-81 225v388zM283 828q0 41 28.5 69.5t69.5 28.5t70 -29t29 -69q0 -41 -29 -69.5t-70 -28.5t-69.5 28.5t-28.5 69.5zM329 828
q0 -22 15 -37t37 -15t37.5 15t15.5 37t-15.5 37.5t-37.5 15.5t-37 -15.5t-15 -37.5z" />
    <glyph glyph-name="uring" unicode="&#x16f;" horiz-adv-x="546" 
d="M57 466h117v-271q0 -110 85 -110q62 0 108 68v313h117v-466h-117v62q-65 -71 -150 -71q-160 0 -160 203v272zM174 623q0 41 28.5 70t69.5 29q40 0 69.5 -29t29.5 -70q0 -40 -29 -69t-70 -29t-69.5 28.5t-28.5 69.5zM219 623q0 -23 15.5 -38t37.5 -15q23 0 38.5 15.5
t15.5 37.5q0 23 -16 39t-38 16t-37.5 -16t-15.5 -39z" />
    <glyph glyph-name="Uhungarumlaut" unicode="&#x170;" horiz-adv-x="759" 
d="M66 682h132v-383q0 -99 45.5 -146.5t137.5 -47.5q90 0 135 46.5t45 146.5v384h132v-386q0 -147 -80 -226t-232 -79q-153 0 -234 78t-81 225v388zM251 733l56 156h139l-128 -156h-67zM436 733l57 156h138l-128 -156h-67z" />
    <glyph glyph-name="uhungarumlaut" unicode="&#x171;" horiz-adv-x="546" 
d="M57 466h117v-271q0 -110 85 -110q62 0 108 68v313h117v-466h-117v62q-65 -71 -150 -71q-160 0 -160 203v272zM212 679h133l-133 -153h-70zM394 679h132l-133 -153h-71z" />
    <glyph glyph-name="Uogonek" unicode="&#x172;" horiz-adv-x="759" 
d="M66 682h132v-383q0 -99 45.5 -146.5t137.5 -47.5q90 0 135 46.5t45 146.5v384h132v-386q0 -139 -72.5 -218t-210.5 -86q-19 -29 -19 -53q0 -50 57 -50q24 0 50 10v-73q-37 -16 -77 -16q-54 0 -82.5 27t-28.5 74q0 43 28 82q-132 11 -202 87.5t-70 213.5v388z" />
    <glyph glyph-name="uogonek" unicode="&#x173;" horiz-adv-x="546" 
d="M57 466h117v-271q0 -110 85 -110q62 0 108 68v313h117v-466h-47q-25 -35 -25 -61q0 -50 57 -50q24 0 50 10v-73q-37 -16 -77 -16q-54 0 -82.5 27t-28.5 74q0 51 36 91v60q-65 -71 -150 -71q-160 0 -160 203v272z" />
    <glyph glyph-name="Wcircumflex" unicode="&#x174;" horiz-adv-x="1083" 
d="M0 682h134l173 -440l180 440h110l180 -440l173 440h133l-281 -688h-52l-208 507l-211 -507h-52zM366 733l96 156h160l98 -156h-76l-102 89l-101 -89h-75z" />
    <glyph glyph-name="wcircumflex" unicode="&#x175;" horiz-adv-x="758" 
d="M0 466h122l109 -266l109 266h80l109 -266l108 266h121l-198 -472h-54l-126 301l-124 -301h-56zM309 683h137l89 -157h-74l-84 87l-82 -87h-73z" />
    <glyph glyph-name="Ycircumflex" unicode="&#x176;" horiz-adv-x="647" 
d="M0 682h148l174 -229l176 229h149l-256 -337v-345h-133v344zM145 733l96 156h160l98 -156h-76l-102 89l-101 -89h-75z" />
    <glyph glyph-name="ycircumflex" unicode="&#x177;" horiz-adv-x="484" 
d="M2 466h129l117 -252l116 252h120l-325 -695h-121l148 315zM173 683h137l89 -157h-74l-84 87l-82 -87h-73z" />
    <glyph glyph-name="Ydieresis" unicode="&#x178;" horiz-adv-x="647" 
d="M0 682h148l174 -229l176 229h149l-256 -337v-345h-133v344zM166 813q0 24 18 42t43 18q24 0 42 -18t18 -42q0 -25 -18 -43t-42 -18q-25 0 -43 18t-18 43zM361 813q0 25 18 42.5t42 17.5q25 0 42.5 -18t17.5 -42q0 -25 -17.5 -43t-42.5 -18q-24 0 -42 18t-18 43z" />
    <glyph glyph-name="Zacute" unicode="&#x179;" horiz-adv-x="672" 
d="M42 682h610l-408 -571h408v-111h-639l409 571h-380v111zM246 733l83 156h149l-156 -156h-76z" />
    <glyph glyph-name="zacute" unicode="&#x17a;" horiz-adv-x="460" 
d="M25 466h418v-7l-236 -361h236v-98h-430v7l236 360h-224v99zM224 683h135l-134 -157h-73z" />
    <glyph glyph-name="Zdotaccent" unicode="&#x17b;" horiz-adv-x="672" 
d="M42 682h610l-408 -571h408v-111h-639l409 571h-380v111zM333 886q28 0 48 -20t20 -47q0 -28 -20 -48t-48 -20t-48 20t-20 48q0 27 20 47t48 20z" />
    <glyph glyph-name="zdotaccent" unicode="&#x17c;" horiz-adv-x="460" 
d="M25 466h418v-7l-236 -361h236v-98h-430v7l236 360h-224v99zM230 678q28 0 48 -20t20 -47q0 -28 -20 -48t-48 -20t-48 20t-20 48q0 27 20 47t48 20z" />
    <glyph glyph-name="Zcaron" unicode="&#x17d;" horiz-adv-x="672" 
d="M42 682h610l-408 -571h408v-111h-639l409 571h-380v111zM253 733l-97 156h76l101 -90l102 90h75l-96 -156h-161z" />
    <glyph glyph-name="zcaron" unicode="&#x17e;" horiz-adv-x="460" 
d="M25 466h418v-7l-236 -361h236v-98h-430v7l236 360h-224v99zM63 683h75l94 -87l92 87h76l-101 -157h-136z" />
    <glyph glyph-name="longs" unicode="&#x17f;" horiz-adv-x="270" 
d="M253 690q40 0 73 -9v-97q-27 9 -56 9q-37 0 -56 -24.5t-19 -82.5v-486h-118v364h-69v93h69v26q0 98 47 152.5t129 54.5z" />
    <glyph glyph-name="Schwa" unicode="&#x18f;" horiz-adv-x="772" 
d="M40 358h550q-6 104 -74 164.5t-177 60.5q-130 0 -252 -75v120q120 63 269 63q163 0 267.5 -97.5t104.5 -246.5q0 -161 -94 -258.5t-256 -97.5q-160 0 -249 94.5t-89 251.5v21zM584 261h-402q17 -79 67 -122t129 -43q81 0 134.5 43.5t71.5 121.5z" />
    <glyph glyph-name="florin" unicode="&#x192;" horiz-adv-x="530" 
d="M495 674l-17 -90q-39 13 -67 13q-38 0 -55 -27.5t-28 -93.5l-9 -54h103l-14 -84h-103l-59 -355q-18 -113 -60.5 -163t-109.5 -50q-46 0 -105 13l18 91q35 -10 63 -10q35 0 54.5 31t34.5 123l51 320h-103l14 84h103l10 54q20 114 59.5 164.5t121.5 50.5q39 0 98 -17z" />
    <glyph glyph-name="Ohorn" unicode="&#x1a0;" horiz-adv-x="872" 
d="M416 691q166 0 271 -103q53 4 76 37t23 117h101q0 -109 -35.5 -162.5t-107.5 -68.5q44 -79 44 -169q0 -146 -101.5 -248.5t-274.5 -102.5q-167 0 -267.5 102t-100.5 247q0 66 23.5 128t68 112.5t117 80.5t163.5 30zM417 572q-109 0 -173.5 -65.5t-64.5 -166.5
t67.5 -165.5t166.5 -64.5q105 0 172.5 61t67.5 171q0 92 -63.5 161t-172.5 69z" />
    <glyph glyph-name="ohorn" unicode="&#x1a1;" horiz-adv-x="636" 
d="M291 475q117 0 188 -73q35 7 49.5 32t14.5 81h101q0 -85 -28.5 -130t-88.5 -60q18 -46 18 -92q0 -114 -75 -178t-181 -64q-119 0 -186 71t-67 169q0 107 69 175.5t186 68.5zM287 378q-57 0 -93.5 -39.5t-36.5 -105.5q0 -67 37 -106t97 -39t96 40t36 105q0 70 -38.5 107.5
t-97.5 37.5z" />
    <glyph glyph-name="Uhorn" unicode="&#x1af;" horiz-adv-x="857" 
d="M66 682h132v-383q0 -99 45.5 -146.5t137.5 -47.5q90 0 135 46.5t45 146.5v384h132v-94q48 5 69.5 39t21.5 115h102q0 -126 -47.5 -178.5t-145.5 -58.5v-209q0 -147 -80 -226t-232 -79q-153 0 -234 78t-81 225v388z" />
    <glyph glyph-name="uhorn" unicode="&#x1b0;" horiz-adv-x="649" 
d="M57 466h117v-271q0 -110 85 -110q62 0 108 68v313h117v-66q47 2 66 26.5t19 88.5h101q0 -107 -44.5 -151t-141.5 -47v-317h-117v62q-65 -71 -150 -71q-160 0 -160 203v272z" />
    <glyph glyph-name="Aringacute" unicode="&#x1fa;" horiz-adv-x="717" 
d="M255 734q0 41 29 70t69 29q41 0 70 -29t29 -70q0 -26 -13.5 -47.5t-36.5 -32.5h24l291 -654h-135l-79 181h-292l-76 -181h-135l284 654h21q-23 11 -36.5 32.5t-13.5 47.5zM354 522l-101 -243h207zM294 844l70 111h140l-134 -111h-76zM300 734q0 -22 15.5 -37.5
t37.5 -15.5q23 0 39 15.5t16 37.5t-16 38.5t-39 16.5q-22 0 -37.5 -16t-15.5 -39z" />
    <glyph glyph-name="aringacute" unicode="&#x1fb;" horiz-adv-x="470" 
d="M219 475q86 0 133.5 -40.5t47.5 -108.5v-214q0 -31 19 -31q15 0 46 21v-76q-61 -35 -111 -35q-56 0 -69 48q-60 -48 -131 -48q-55 0 -88.5 33t-33.5 82q0 75 87 120q39 20 164 60v19q0 41 -20 58.5t-60 17.5q-90 0 -160 -79v109q67 64 176 64zM148 124q0 -26 16.5 -42.5
t42.5 -16.5q37 0 76 36v127q-73 -26 -104 -48.5t-31 -55.5zM123 600q0 41 28.5 70t69.5 29t70 -29.5t29 -69.5t-29 -69t-70 -29t-69.5 28.5t-28.5 69.5zM168 600q0 -22 15 -37.5t38 -15.5t38.5 15.5t15.5 37.5q0 23 -16 39t-38 16t-37.5 -16t-15.5 -39zM218 867h135
l-134 -157h-73z" />
    <glyph glyph-name="AEacute" unicode="&#x1fc;" horiz-adv-x="964" 
d="M402 682h501v-103h-285v-180h274v-104h-274v-191h295v-104h-427v286h-189l-168 -286h-139zM486 606l-131 -222h131v222zM571 733l83 156h149l-156 -156h-76z" />
    <glyph glyph-name="aeacute" unicode="&#x1fd;" horiz-adv-x="713" 
d="M44 303v116q79 56 170 56q85 0 138 -57q60 57 135 57q88 0 141 -62t53 -163v-18h-291q1 -70 40 -110t100 -40q67 0 148 53v-95q-84 -49 -174 -49q-110 0 -171 69q-91 -69 -174 -69q-58 0 -92.5 33.5t-34.5 85.5q0 28 13.5 52.5t29.5 39.5t48.5 30.5t50.5 22t56.5 18
t47.5 14.5v13q0 82 -75 82q-82 0 -159 -79zM397 296h171q-10 91 -83 91q-34 0 -58 -23.5t-30 -67.5zM278 229q-72 -29 -101.5 -50.5t-29.5 -54.5q0 -28 15.5 -44.5t42.5 -16.5q47 0 97 43q-24 53 -24 115v8zM350 683h135l-134 -157h-73z" />
    <glyph glyph-name="Oslashacute" unicode="&#x1fe;" horiz-adv-x="832" 
d="M85 26l61 65q-102 99 -102 249q0 66 23.5 128t68 112.5t117 80.5t163.5 30q124 0 219 -61l61 65l49 -46l-57 -62q100 -100 100 -245q0 -146 -101.5 -248.5t-274.5 -102.5q-124 0 -213 58l-64 -69zM417 572q-113 0 -175.5 -69.5t-62.5 -162.5q0 -88 57 -153l312 350
q-56 35 -131 35zM653 342q0 85 -56 149l-310 -348q58 -34 126 -33q62 0 110.5 21.5t75.5 57t40.5 74.5t13.5 79zM333 733l83 156h149l-156 -156h-76z" />
    <glyph glyph-name="oslashacute" unicode="&#x1ff;" horiz-adv-x="580" 
d="M48 -8l58 66q-70 69 -70 173q0 107 69 175.5t186 68.5q83 0 145 -39l53 62l36 -33l-51 -58q71 -68 71 -174q0 -114 -75 -178t-181 -64q-83 0 -145 38l-60 -70zM423 233q0 53 -25 87l-184 -211q31 -21 77 -21q60 0 96 40t36 105zM287 378q-57 0 -93.5 -39.5t-36.5 -105.5
q0 -54 25 -88l183 211q-35 22 -78 22zM291 683h135l-134 -157h-73z" />
    <glyph glyph-name="Scommaaccent" unicode="&#x218;" horiz-adv-x="514" 
d="M263 691q99 0 179 -51v-127q-84 73 -173 73q-43 0 -67 -19t-24 -51q0 -29 21 -54t87 -61q103 -56 143.5 -102.5t40.5 -120.5q0 -82 -60 -134.5t-156 -52.5q-106 0 -202 60v138q90 -92 191 -92q43 0 69 22t26 55q0 34 -25 61t-112 74q-76 43 -114.5 88.5t-38.5 114.5
q0 77 59 128t156 51zM175 -262v18q54 19 56 69q-25 1 -39 16.5t-14 39.5q0 30 20 48.5t49 18.5q32 0 53 -22.5t21 -60.5q0 -52 -39.5 -87t-106.5 -40z" />
    <glyph glyph-name="scommaaccent" unicode="&#x219;" horiz-adv-x="417" 
d="M45 347q0 54 44.5 91t116.5 37q79 0 148 -39v-99q-80 48 -135 48q-27 0 -41 -9.5t-14 -23.5q0 -17 15 -31t73 -44q60 -30 92.5 -64.5t32.5 -84.5q0 -55 -43 -96t-125 -41q-75 0 -164 40v106q80 -57 145 -57q33 0 50.5 11.5t17.5 27.5q0 20 -17.5 35.5t-83.5 51.5
q-57 29 -84.5 62.5t-27.5 78.5zM131 -262v18q54 19 56 69q-25 1 -39 16.5t-14 39.5q0 30 20 48.5t49 18.5q32 0 53 -22.5t21 -60.5q0 -52 -39.5 -87t-106.5 -40z" />
    <glyph glyph-name="Tcommaaccent" unicode="&#x21a;" horiz-adv-x="646" 
d="M17 682h612v-112h-241v-570h-132v570h-239v112zM244 -262v18q54 19 56 69q-25 1 -39 16.5t-14 39.5q0 30 20 48.5t49 18.5q32 0 53 -22.5t21 -60.5q0 -52 -39.5 -87t-106.5 -40z" />
    <glyph glyph-name="tcommaaccent" unicode="&#x21b;" horiz-adv-x="386" 
d="M4 389l187 188h8v-111h150v-93h-150v-197q0 -41 13.5 -63t52.5 -22q49 0 104 33v-100q-58 -33 -132 -33q-78 0 -116.5 42t-38.5 132v208h-78v16zM160 -262v18q54 19 56 69q-25 1 -39 16.5t-14 39.5q0 30 20 48.5t49 18.5q32 0 53 -22.5t21 -60.5q0 -52 -39.5 -87
t-106.5 -40z" />
    <glyph glyph-name="dotlessj" unicode="&#x237;" horiz-adv-x="241" 
d="M62 466h117v-499q0 -87 -29.5 -131.5t-92.5 -67.5l-64 87q37 14 53 39t16 81v491z" />
    <glyph glyph-name="schwa" unicode="&#x259;" horiz-adv-x="517" 
d="M247 -9q-93 0 -152.5 64t-59.5 179v18h327q-7 58 -46 93.5t-98 35.5q-88 0 -174 -54v95q86 53 194 53q106 0 174.5 -67t68.5 -178q0 -105 -63.5 -172t-170.5 -67zM362 188h-215q2 -52 29 -81t75 -29q46 0 77.5 31.5t33.5 78.5z" />
    <glyph glyph-name="uni02BC" unicode="&#x2bc;" horiz-adv-x="246" 
d="M111 691q39 0 63 -33t24 -80q0 -61 -39.5 -109.5t-113.5 -65.5v23q52 37 52 114q-60 16 -60 74q0 32 21.5 54.5t52.5 22.5z" />
    <glyph glyph-name="circumflex" unicode="&#x2c6;" 
d="M97 683h137l89 -157h-74l-84 87l-82 -87h-73z" />
    <glyph glyph-name="caron" unicode="&#x2c7;" 
d="M-1 683h75l94 -87l92 87h76l-101 -157h-136z" />
    <glyph glyph-name="uni02C9" unicode="&#x2c9;" 
d="M23 646h287v-84h-287v84z" />
    <glyph glyph-name="breve" unicode="&#x2d8;" 
d="M12 664h77q17 -60 79 -60q31 0 48 13.5t27 46.5h78q-6 -60 -48.5 -100.5t-105.5 -40.5q-62 0 -103 37t-52 104z" />
    <glyph glyph-name="dotaccent" unicode="&#x2d9;" 
d="M167 678q28 0 48 -20t20 -47q0 -28 -20 -48t-48 -20t-48 20t-20 48q0 27 20 47t48 20z" />
    <glyph glyph-name="ring" unicode="&#x2da;" 
d="M68 623q0 41 28.5 70t69.5 29q40 0 69.5 -29t29.5 -70q0 -40 -29 -69t-70 -29t-69.5 28.5t-28.5 69.5zM113 623q0 -23 15.5 -38t37.5 -15q23 0 38.5 15.5t15.5 37.5q0 23 -16 39t-38 16t-37.5 -16t-15.5 -39z" />
    <glyph glyph-name="ogonek" unicode="&#x2db;" 
d="M130 9h71q-32 -39 -32 -70q0 -50 57 -50q24 0 50 10v-73q-37 -16 -77 -16q-54 0 -82.5 27t-28.5 74q0 53 42 98z" />
    <glyph glyph-name="tilde" unicode="&#x2dc;" 
d="M97 666q28 0 79.5 -20t63.5 -20q32 0 37 40h58q-1 -60 -28.5 -94t-69.5 -34q-25 0 -75.5 20t-67.5 20q-32 0 -36 -40h-60q1 60 29.5 94t69.5 34z" />
    <glyph glyph-name="hungarumlaut" unicode="&#x2dd;" 
d="M90 679h133l-133 -153h-70zM272 679h132l-133 -153h-71z" />
    <glyph glyph-name="gravecomb" unicode="&#x300;" horiz-adv-x="0" 
d="M-419 683h135l73 -157h-72z" />
    <glyph glyph-name="acutecomb" unicode="&#x301;" horiz-adv-x="0" 
d="M-289 683h135l-134 -157h-73z" />
    <glyph glyph-name="tildecomb" unicode="&#x303;" horiz-adv-x="0" 
d="M-343 666q28 0 80 -20t64 -20q31 0 36 40h58q-1 -60 -28.5 -94t-69.5 -34q-25 0 -75 20t-67 20q-33 0 -37 -40h-60q1 60 29.5 94t69.5 34z" />
    <glyph glyph-name="hookabovecomb" unicode="&#x309;" horiz-adv-x="0" 
d="M-323 511v83h21q18 0 30 8t12 21q0 32 -45 32q-33 0 -57 -6v60q37 7 80 7q56 0 86.5 -24t30.5 -69q0 -36 -26 -57.5t-67 -23.5v-31h-65z" />
    <glyph glyph-name="dotbelowcomb" unicode="&#x323;" horiz-adv-x="0" 
d="M-290 -67q28 0 48 -20t20 -48t-20 -47.5t-48 -19.5t-48 20t-20 47q0 28 20 48t48 20z" />
    <glyph glyph-name="uni0374" unicode="&#x374;" horiz-adv-x="239" 
d="M35 505l49 177h122l-94 -177h-77z" />
    <glyph glyph-name="uni0375" unicode="&#x375;" horiz-adv-x="239" 
d="M33 -85l94 177h77l-49 -177h-122z" />
    <glyph glyph-name="uni037E" unicode="&#x37e;" horiz-adv-x="252" 
d="M119 152q39 0 63 -33.5t24 -78.5q0 -62 -40.5 -111t-112.5 -64v22q52 38 52 114q-60 17 -60 75q0 32 22 54t52 22zM126 474q30 0 52 -21.5t22 -51.5t-22 -52.5t-52 -22.5t-52 21.5t-22 52.5q0 32 22 53t52 21z" />
    <glyph glyph-name="tonos" unicode="&#x384;" 
d="M106 526l48 147h128l-101 -147h-75z" />
    <glyph glyph-name="dieresistonos" unicode="&#x385;" 
d="M110 553l34 150h106l-80 -150h-60zM-20 618q0 23 16 39t39 16t39 -16.5t16 -38.5q0 -23 -16 -39.5t-39 -16.5t-39 16.5t-16 39.5zM244 618q0 22 16 38.5t39 16.5t39 -16.5t16 -38.5q0 -23 -16 -39.5t-39 -16.5t-39 16.5t-16 39.5z" />
    <glyph glyph-name="Alphatonos" unicode="&#x386;" horiz-adv-x="719" 
d="M297 688h119l303 -685h-135l-79 181h-292l-76 -181h-135zM356 529l-101 -247h207zM20 512l48 170h128l-101 -170h-75z" />
    <glyph glyph-name="anoteleia" unicode="&#x387;" horiz-adv-x="239" 
d="M119 449q30 0 52 -21.5t22 -51.5t-21.5 -52.5t-52.5 -22.5q-30 0 -52 21.5t-22 52.5q0 32 22 53t52 21z" />
    <glyph glyph-name="Epsilontonos" unicode="&#x388;" horiz-adv-x="693" 
d="M210 682h424v-103h-292v-181h281v-103h-281v-191h301v-104h-433v682zM0 512l48 170h128l-101 -170h-75z" />
    <glyph glyph-name="Etatonos" unicode="&#x389;" horiz-adv-x="909" 
d="M212 682h132v-281h359v281h132v-682h-132v287h-359v-287h-132v682zM0 512l48 170h128l-101 -170h-75z" />
    <glyph glyph-name="Iotatonos" unicode="&#x38a;" horiz-adv-x="414" 
d="M208 682h132v-682h-132v682zM0 512l48 170h128l-101 -170h-75z" />
    <glyph glyph-name="Omicrontonos" unicode="&#x38c;" horiz-adv-x="899" 
d="M483 691q166 0 269 -100t103 -249q0 -146 -101.5 -248.5t-274.5 -102.5q-167 0 -267.5 102t-100.5 247q0 66 23.5 128t68 112.5t117 80.5t163.5 30zM484 572q-109 0 -173.5 -65.5t-64.5 -166.5t67.5 -165.5t166.5 -64.5q105 0 172.5 61t67.5 171q0 92 -63.5 161
t-172.5 69zM0 512l48 170h128l-101 -170h-75z" />
    <glyph glyph-name="Upsilontonos" unicode="&#x38e;" horiz-adv-x="839" 
d="M192 682h148l174 -229l176 229h149l-256 -337v-345h-133v344zM0 512l48 170h128l-101 -170h-75z" />
    <glyph glyph-name="Omegatonos" unicode="&#x38f;" horiz-adv-x="862" 
d="M130 0v108h149q-87 63 -123 129.5t-36 155.5q0 131 95 214.5t254 83.5q160 0 254.5 -84.5t94.5 -213.5q0 -90 -36 -156t-124 -129h150v-108h-281v106q86 58 121.5 122.5t35.5 146.5q0 90 -56.5 145t-160.5 55q-100 0 -156.5 -56t-56.5 -142q0 -82 36 -148.5t119 -122.5
v-106h-279zM0 512l48 170h128l-101 -170h-75z" />
    <glyph glyph-name="iotadieresistonos" unicode="&#x390;" horiz-adv-x="256" 
d="M62 102v364h117v-346q0 -19 6 -26.5t21 -7.5q20 0 48 16v-77q-52 -35 -108 -35q-48 0 -66 26t-18 86zM71 553l34 150h106l-80 -150h-60zM-59 618q0 23 16 39t39 16q22 0 38.5 -16.5t16.5 -38.5q0 -23 -16 -39.5t-39 -16.5t-39 16.5t-16 39.5zM205 618q0 22 16.5 38.5
t38.5 16.5t38.5 -16.5t16.5 -38.5q0 -23 -16 -39.5t-39 -16.5t-39 16.5t-16 39.5z" />
    <glyph glyph-name="Alpha" unicode="&#x391;" horiz-adv-x="717" 
d="M295 685h119l303 -685h-135l-79 181h-292l-76 -181h-135zM354 526l-101 -247h207z" />
    <glyph glyph-name="Beta" unicode="&#x392;" horiz-adv-x="618" 
d="M74 682h240q104 0 162 -47t58 -125q0 -103 -101 -145q75 -18 115.5 -65.5t40.5 -111.5q0 -99 -73.5 -143.5t-187.5 -44.5h-254v682zM205 587v-194h71q65 0 96.5 26.5t31.5 73.5q0 49 -27.5 71.5t-88.5 22.5h-83zM205 95h98q152 0 152 102t-155 102h-95v-204z" />
    <glyph glyph-name="Gamma" unicode="&#x393;" horiz-adv-x="533" 
d="M78 0v682h442v-113h-310v-569h-132z" />
    <glyph glyph-name="uni0394" unicode="&#x394;" horiz-adv-x="713" 
d="M0 0l300 686h114l299 -686h-713zM179 107h353l-176 418z" />
    <glyph glyph-name="Epsilon" unicode="&#x395;" horiz-adv-x="557" 
d="M74 682h424v-103h-292v-181h281v-103h-281v-191h301v-104h-433v682z" />
    <glyph glyph-name="Zeta" unicode="&#x396;" horiz-adv-x="672" 
d="M42 682h610l-408 -571h408v-111h-639l409 571h-380v111z" />
    <glyph glyph-name="Eta" unicode="&#x397;" horiz-adv-x="771" 
d="M74 682h132v-281h359v281h132v-682h-132v287h-359v-287h-132v682z" />
    <glyph glyph-name="Theta" unicode="&#x398;" horiz-adv-x="837" 
d="M418 691q167 0 271 -100t104 -249q0 -146 -102.5 -248.5t-276.5 -102.5q-167 0 -268.5 102t-101.5 247q0 66 23.5 128t68.5 112.5t118 80.5t164 30zM419 577q-115 0 -179 -70.5t-64 -166.5q0 -103 69 -169t170 -66q64 0 113.5 22t77 58t41.5 76t14 81q0 93 -65 164
t-177 71zM242 396h353v-102h-353v102z" />
    <glyph glyph-name="Iota" unicode="&#x399;" horiz-adv-x="280" 
d="M74 682h132v-682h-132v682z" />
    <glyph glyph-name="Kappa" unicode="&#x39a;" horiz-adv-x="695" 
d="M74 682h133v-313l273 313h154l-282 -322l345 -360h-171l-319 334v-334h-133v682z" />
    <glyph glyph-name="Lambda" unicode="&#x39b;" horiz-adv-x="687" 
d="M687 0h-133l-209 488l-210 -488h-135l302 688h86z" />
    <glyph glyph-name="Mu" unicode="&#x39c;" horiz-adv-x="833" 
d="M74 682h122l221 -272l220 272h121v-682h-132v487l-201 -252h-18l-203 252v-487h-130v682z" />
    <glyph glyph-name="Nu" unicode="&#x39d;" horiz-adv-x="813" 
d="M74 682h113l423 -481v481h129v-682h-116l-420 478v-478h-129v682z" />
    <glyph glyph-name="Xi" unicode="&#x39e;" horiz-adv-x="643" 
d="M41 0v110h560v-110h-560zM106 290v109h430v-109h-430zM49 572v110h544v-109z" />
    <glyph glyph-name="Omicron" unicode="&#x39f;" horiz-adv-x="832" 
d="M416 691q166 0 269 -100t103 -249q0 -146 -101.5 -248.5t-274.5 -102.5q-167 0 -267.5 102t-100.5 247q0 66 23.5 128t68 112.5t117 80.5t163.5 30zM417 572q-109 0 -173.5 -65.5t-64.5 -166.5t67.5 -165.5t166.5 -64.5q105 0 172.5 61t67.5 171q0 92 -63.5 161
t-172.5 69z" />
    <glyph glyph-name="Pi" unicode="&#x3a0;" horiz-adv-x="769" 
d="M74 0v682h621v-682h-132v568h-357v-568h-132z" />
    <glyph glyph-name="Rho" unicode="&#x3a1;" horiz-adv-x="582" 
d="M74 682h245q110 0 172.5 -53t62.5 -147t-62.5 -146.5t-177.5 -52.5h-108v-283h-132v682zM206 582v-198h88q69 0 97 25.5t28 73.5q0 50 -29.5 74.5t-98.5 24.5h-85z" />
    <glyph glyph-name="Sigma" unicode="&#x3a3;" horiz-adv-x="638" 
d="M14 0l281 345l-281 337h577v-111h-329l186 -227l-186 -233h352v-111h-600z" />
    <glyph glyph-name="Tau" unicode="&#x3a4;" horiz-adv-x="646" 
d="M17 682h612v-112h-241v-570h-132v570h-239v112z" />
    <glyph glyph-name="Upsilon" unicode="&#x3a5;" horiz-adv-x="647" 
d="M0 682h148l174 -229l176 229h149l-256 -337v-345h-133v344z" />
    <glyph glyph-name="Phi" unicode="&#x3a6;" horiz-adv-x="828" 
d="M350 -9v110q-141 7 -223.5 75t-82.5 174q0 104 81.5 169.5t224.5 72.5v99h128v-99q138 -5 222 -73t84 -170q0 -105 -82 -173t-224 -75v-110h-128zM350 205v282q-82 -1 -126.5 -40.5t-44.5 -98.5t42.5 -99t128.5 -44zM478 487v-282q82 3 126.5 42.5t44.5 101.5
q0 63 -48.5 99.5t-122.5 38.5z" />
    <glyph glyph-name="Chi" unicode="&#x3a7;" horiz-adv-x="755" 
d="M21 682h165l191 -235l189 235h162l-269 -328l293 -354h-164l-211 256l-210 -256h-164l292 354z" />
    <glyph glyph-name="Psi" unicode="&#x3a8;" horiz-adv-x="819" 
d="M345 -9v117q-155 17 -225.5 121t-70.5 303v35h132q0 -170 37 -251t127 -95v470h129v-470q91 14 127.5 96.5t36.5 249.5h132v-35q0 -197 -72.5 -301t-223.5 -123v-117h-129z" />
    <glyph glyph-name="uni03A9" unicode="&#x3a9;" horiz-adv-x="786" 
d="M54 0v108h149q-87 63 -123 129.5t-36 155.5q0 131 95 214.5t254 83.5q160 0 254.5 -84.5t94.5 -213.5q0 -90 -36 -156t-124 -129h150v-108h-281v106q86 58 121.5 122.5t35.5 146.5q0 90 -56.5 145t-160.5 55q-100 0 -156.5 -56t-56.5 -142q0 -82 36 -148.5t119 -122.5
v-106h-279z" />
    <glyph glyph-name="Iotadieresis" unicode="&#x3aa;" horiz-adv-x="280" 
d="M74 682h132v-682h-132v682zM-17 813q0 24 18 42t43 18q24 0 42 -18t18 -42q0 -25 -18 -43t-42 -18q-25 0 -43 18t-18 43zM178 813q0 25 18 42.5t42 17.5q25 0 42.5 -18t17.5 -42q0 -25 -17.5 -43t-42.5 -18q-24 0 -42 18t-18 43z" />
    <glyph glyph-name="Upsilondieresis" unicode="&#x3ab;" horiz-adv-x="647" 
d="M0 682h148l174 -229l176 229h149l-256 -337v-345h-133v344zM165 813q0 24 18 42t43 18q24 0 42 -18t18 -42q0 -25 -18 -43t-42 -18q-25 0 -43 18t-18 43zM360 813q0 25 18 42.5t42 17.5q25 0 42.5 -18t17.5 -42q0 -25 -17.5 -43t-42.5 -18q-24 0 -42 18t-18 43z" />
    <glyph glyph-name="alphatonos" unicode="&#x3ac;" horiz-adv-x="566" 
d="M372 132v221q-37 25 -85 27q-62 0 -96 -39.5t-34 -107.5q0 -71 30.5 -109.5t82.5 -38.5q58 0 102 47zM554 102v-79q-59 -32 -100 -32q-62 0 -75 57q-62 -58 -139 -58q-89 0 -146.5 67t-57.5 177q0 107 62.5 174t162.5 67q56 0 111 -29v20h117v-335q0 -25 5.5 -34.5
t18.5 -9.5t41 15zM220 526l48 147h128l-101 -147h-75z" />
    <glyph glyph-name="epsilontonos" unicode="&#x3ad;" horiz-adv-x="454" 
d="M421 118v-97q-68 -31 -175 -31q-97 0 -152 35.5t-55 101.5q0 41 28 71.5t76 41.5v3q-41 9 -65.5 37.5t-24.5 64.5q0 58 47.5 94t141.5 36q90 0 164 -33v-90q-72 31 -139 31q-94 0 -94 -50q0 -31 25.5 -44.5t80.5 -13.5h43v-83h-55q-107 0 -107 -52q0 -58 114 -58
q78 0 147 36zM197 526l48 147h128l-101 -147h-75z" />
    <glyph glyph-name="etatonos" unicode="&#x3ae;" horiz-adv-x="553" 
d="M77 0v339q0 34 -23 34q-17 0 -42 -17v84q57 34 97 34q67 0 80 -72q68 73 148 73q76 0 117.5 -51t41.5 -138v-515h-117v502q0 107 -83 107q-59 0 -102 -64v-316h-117zM243 526l48 147h128l-101 -147h-75z" />
    <glyph glyph-name="iotatonos" unicode="&#x3af;" horiz-adv-x="256" 
d="M62 102v364h117v-346q0 -19 6 -26.5t21 -7.5q20 0 48 16v-77q-52 -35 -108 -35q-48 0 -66 26t-18 86zM65 526l48 147h128l-101 -147h-75z" />
    <glyph glyph-name="upsilondieresistonos" unicode="&#x3b0;" horiz-adv-x="532" 
d="M57 200v266h117v-268q0 -110 92 -110t92 112v266h117v-262q0 -100 -51 -156.5t-157 -56.5q-108 0 -159 52t-51 157zM210 553l34 150h106l-80 -150h-60zM80 618q0 23 16 39t39 16t39 -16.5t16 -38.5q0 -23 -16 -39.5t-39 -16.5t-39 16.5t-16 39.5zM344 618q0 22 16 38.5
t39 16.5t39 -16.5t16 -38.5q0 -23 -16 -39.5t-39 -16.5t-39 16.5t-16 39.5z" />
    <glyph glyph-name="alpha" unicode="&#x3b1;" horiz-adv-x="566" 
d="M372 132v221q-37 25 -85 27q-62 0 -96 -39.5t-34 -107.5q0 -71 30.5 -109.5t82.5 -38.5q58 0 102 47zM554 102v-79q-59 -32 -100 -32q-62 0 -75 57q-62 -58 -139 -58q-89 0 -146.5 67t-57.5 177q0 107 62.5 174t162.5 67q56 0 111 -29v20h117v-335q0 -25 5.5 -34.5
t18.5 -9.5t41 15z" />
    <glyph glyph-name="beta" unicode="&#x3b2;" horiz-adv-x="549" 
d="M513 197q0 -93 -56 -150t-152 -57q-76 0 -126 40v-261h-117v691q0 231 214 231q97 0 151 -49t54 -128q0 -43 -25.5 -82t-72.5 -56q63 -16 96.5 -62t33.5 -117zM179 463v-268q0 -50 29 -79t80 -29q49 0 76.5 31t27.5 85q0 120 -134 123v90h7q99 0 99 93q0 38 -24.5 61.5
t-64.5 23.5q-51 0 -73.5 -31.5t-22.5 -99.5z" />
    <glyph glyph-name="gamma" unicode="&#x3b3;" horiz-adv-x="525" 
d="M12 364l-20 78q37 34 91 34q72 0 110 -60.5t85 -238.5q49 150 122 288h125q-56 -102 -114 -234.5t-89 -235.5q18 -59 18 -105q0 -56 -18.5 -87.5t-49.5 -31.5q-29 0 -48 30t-19 83q0 54 19 111q-42 159 -72.5 243.5t-53 112.5t-49.5 28q-20 0 -37 -15z" />
    <glyph glyph-name="delta" unicode="&#x3b4;" horiz-adv-x="580" 
d="M477 649l-33 -87q-83 39 -161 39q-76 0 -76 -28q0 -18 26 -35t128 -63q184 -81 184 -242q0 -108 -71 -175t-188 -67q-116 0 -183 70.5t-67 165.5q0 83 50 142t137 71q-128 59 -128 134q0 54 47.5 85.5t143.5 31.5t191 -42zM288 88q61 0 98 40t37 106q0 61 -36 99.5
t-100 38.5q-57 0 -93.5 -40t-36.5 -102q0 -65 36 -103.5t95 -38.5z" />
    <glyph glyph-name="epsilon" unicode="&#x3b5;" horiz-adv-x="454" 
d="M421 118v-97q-68 -31 -175 -31q-97 0 -152 35.5t-55 101.5q0 41 28 71.5t76 41.5v3q-41 9 -65.5 37.5t-24.5 64.5q0 58 47.5 94t141.5 36q90 0 164 -33v-90q-72 31 -139 31q-94 0 -94 -50q0 -31 25.5 -44.5t80.5 -13.5h43v-83h-55q-107 0 -107 -52q0 -58 114 -58
q78 0 147 36z" />
    <glyph glyph-name="zeta" unicode="&#x3b6;" horiz-adv-x="475" 
d="M155 -219l26 94q35 -5 59 -5q44 0 68.5 18t24.5 48q0 32 -24 46.5t-80 15.5q-188 3 -188 194q0 146 163 354q-95 21 -149 79l63 72q79 -67 165 -73q83 59 150 59q62 0 62 -43q0 -47 -57 -76t-132 -32q-144 -169 -144 -328q0 -56 21.5 -78.5t88.5 -23.5q87 -2 132.5 -42
t45.5 -115q0 -76 -56.5 -125t-152.5 -49q-46 0 -86 10z" />
    <glyph glyph-name="eta" unicode="&#x3b7;" horiz-adv-x="553" 
d="M77 0v339q0 34 -23 34q-17 0 -42 -17v84q57 34 97 34q67 0 80 -72q68 73 148 73q76 0 117.5 -51t41.5 -138v-515h-117v502q0 107 -83 107q-59 0 -102 -64v-316h-117z" />
    <glyph glyph-name="theta" unicode="&#x3b8;" horiz-adv-x="533" 
d="M266 -8q-104 0 -167 88.5t-63 256.5q0 165 62 260t169 95q101 0 165.5 -89.5t64.5 -257.5q0 -167 -61.5 -260t-169.5 -93zM377 294h-221q4 -105 31 -153.5t79 -48.5q108 0 111 202zM156 387h221q-4 205 -112 205q-104 0 -109 -205z" />
    <glyph glyph-name="iota" unicode="&#x3b9;" horiz-adv-x="256" 
d="M62 102v364h117v-346q0 -19 6 -26.5t21 -7.5q20 0 48 16v-77q-52 -35 -108 -35q-48 0 -66 26t-18 86z" />
    <glyph glyph-name="kappa" unicode="&#x3ba;" horiz-adv-x="550" 
d="M62 0v466h117v-222l140 158q63 73 134 73q34 0 68 -16v-97q-26 12 -50 12q-38 0 -73 -41l-80 -88l232 -245h-148l-223 237v-237h-117z" />
    <glyph glyph-name="lambda" unicode="&#x3bb;" horiz-adv-x="496" 
d="M0 0l186 449l-13 33t-13.5 33.5t-13.5 27.5t-16.5 26t-20 17.5t-26.5 11.5l45 94q45 -5 75.5 -33t55.5 -87l145 -363q28 -72 45 -94.5t47 -34.5l-47 -89q-50 5 -82 45.5t-64 119.5l-60 154l-125 -310h-118z" />
    <glyph glyph-name="uni03BC" unicode="&#x3bc;" horiz-adv-x="558" 
d="M62 -230v694h116v-312q36 -66 92 -66q44 0 70 26t26 70v282h116v-343q0 -39 26 -39q18 0 37 14v-80q-39 -25 -87 -25q-70 0 -83 61q-39 -61 -100 -61q-58 0 -97 62v-283h-116z" />
    <glyph glyph-name="nu" unicode="&#x3bd;" horiz-adv-x="500" 
d="M199 -6l-199 472h126l127 -318q46 58 75 121.5t29 105.5q0 47 -44 73l114 26q23 -12 36.5 -37t13.5 -54q0 -70 -61 -175.5t-158 -213.5h-59z" />
    <glyph glyph-name="xi" unicode="&#x3be;" horiz-adv-x="466" 
d="M153 -217l30 96q42 -9 70 -9q37 0 60 18t23 46q0 30 -23.5 45.5t-84.5 16.5q-91 3 -140.5 53t-49.5 133q0 73 40.5 131t115.5 89q-62 30 -62 90q0 43 33 75q-77 21 -120 76l70 66q57 -55 130 -68q79 46 144 46q72 0 72 -46q0 -27 -32 -50.5t-85 -32.5q-32 -7 -80 -7
q-22 -19 -22 -48q0 -58 106 -58h53v-91h-39q-97 0 -149.5 -39.5t-52.5 -118.5q0 -46 24.5 -70t80.5 -26q96 -2 142 -44.5t46 -113.5q0 -73 -55 -122t-154 -49q-52 0 -91 12z" />
    <glyph glyph-name="omicron" unicode="&#x3bf;" horiz-adv-x="580" 
d="M287 378q-57 0 -93.5 -39.5t-36.5 -105.5q0 -67 37 -106t97 -39t96 40t36 105q0 70 -38.5 107.5t-97.5 37.5zM291 475q114 0 184 -67t70 -175q0 -114 -75 -178t-181 -64q-119 0 -186 71t-67 169q0 107 69 175.5t186 68.5z" />
    <glyph glyph-name="pi" unicode="&#x3c0;" horiz-adv-x="641" 
d="M111 0v367q-49 -3 -97 -25v96q50 27 121 27h492v-99h-95v-366h-117v366h-187v-366h-117z" />
    <glyph glyph-name="rho" unicode="&#x3c1;" horiz-adv-x="597" 
d="M57 -228v448q0 116 66.5 185.5t184.5 69.5q110 0 182 -66t72 -174q0 -109 -69.5 -176.5t-174.5 -67.5q-86 0 -144 57v-276h-117zM307 88q62 0 98 38.5t36 107.5q0 64 -36.5 104.5t-99.5 40.5q-61 0 -96 -41.5t-35 -106.5t35.5 -104t97.5 -39z" />
    <glyph glyph-name="sigma1" unicode="&#x3c2;" horiz-adv-x="484" 
d="M152 -219l29 96q38 -7 63 -7q42 0 66.5 20t24.5 51q0 55 -84 57q-215 13 -215 213q0 47 15.5 92.5t46 84.5t83.5 63t120 24q86 0 157 -40l-40 -95q-55 33 -117 33q-68 0 -106 -44.5t-38 -116.5q0 -55 27.5 -81.5t93.5 -30.5q174 -10 174 -156q0 -75 -60 -124t-153 -49
q-44 0 -87 10z" />
    <glyph glyph-name="sigma" unicode="&#x3c3;" horiz-adv-x="620" 
d="M292 466h314v-97h-128q67 -53 67 -145q0 -100 -71.5 -166.5t-183.5 -66.5q-114 0 -184 68t-70 169q0 104 70 171t186 67zM290 369q-62 0 -97.5 -39t-35.5 -101q0 -61 34.5 -101t98.5 -40q61 0 97.5 39t36.5 104q0 58 -36.5 98t-97.5 40z" />
    <glyph glyph-name="tau" unicode="&#x3c4;" horiz-adv-x="463" 
d="M173 0v367q-64 0 -96 -5.5t-63 -22.5v98q51 29 121 29h314v-99h-159v-367h-117z" />
    <glyph glyph-name="upsilon" unicode="&#x3c5;" horiz-adv-x="532" 
d="M57 200v266h117v-268q0 -110 92 -110t92 112v266h117v-262q0 -100 -51 -156.5t-157 -56.5q-108 0 -159 52t-51 157z" />
    <glyph glyph-name="phi" unicode="&#x3c6;" horiz-adv-x="680" 
d="M281 -229v229q-112 6 -178.5 69t-66.5 163q0 96 67 160.5t178 71.5v218h117v-218q112 -6 179 -70.5t67 -161.5q0 -99 -65.5 -161t-180.5 -71v-229h-117zM281 93v278q-57 -4 -91 -42t-34 -95q0 -59 35.5 -98t89.5 -43zM398 371v-278q57 7 91 42t34 95t-34.5 99t-90.5 42z
" />
    <glyph glyph-name="chi" unicode="&#x3c7;" horiz-adv-x="495" 
d="M2 -222l186 356l-76 137q-40 71 -55.5 87.5t-52.5 25.5l35 92q56 -3 88.5 -33t77.5 -113l50 -91l116 227h120l-175 -330l105 -185q25 -45 44 -62t45 -20l-47 -101q-45 0 -75.5 32.5t-73.5 109.5l-66 120l-126 -252h-120z" />
    <glyph glyph-name="psi" unicode="&#x3c8;" horiz-adv-x="654" 
d="M269 -229v228q-110 7 -161 70.5t-51 189.5v207h117v-216q0 -70 24 -110.5t71 -44.5v587h117v-587q95 16 95 146v225h116v-208q0 -238 -211 -259v-228h-117z" />
    <glyph glyph-name="omega" unicode="&#x3c9;" horiz-adv-x="803" 
d="M344 231v65h117v-66q0 -68 25 -105t69 -37q43 0 66.5 40t23.5 106q0 104 -76 232h125q31 -44 51 -107t20 -122q0 -109 -53 -177.5t-149 -68.5q-118 0 -162 104q-27 -53 -65 -78.5t-98 -25.5q-94 0 -147.5 66t-53.5 178q0 110 72 231h125q-77 -129 -77 -235
q0 -64 23 -103.5t65 -39.5q46 0 72.5 35.5t26.5 107.5z" />
    <glyph glyph-name="iotadieresis" unicode="&#x3ca;" horiz-adv-x="256" 
d="M62 102v364h117v-346q0 -19 6 -26.5t21 -7.5q20 0 48 16v-77q-52 -35 -108 -35q-48 0 -66 26t-18 86zM-36 610q0 24 17.5 41.5t41.5 17.5t42 -17.5t18 -41.5t-17.5 -41.5t-42.5 -17.5q-24 0 -41.5 17.5t-17.5 41.5zM157 610q0 24 17.5 41.5t42.5 17.5q24 0 41 -17.5
t17 -41.5t-17 -41.5t-41 -17.5q-25 0 -42.5 17.5t-17.5 41.5z" />
    <glyph glyph-name="upsilondieresis" unicode="&#x3cb;" horiz-adv-x="532" 
d="M57 200v266h117v-268q0 -110 92 -110t92 112v266h117v-262q0 -100 -51 -156.5t-157 -56.5q-108 0 -159 52t-51 157zM113 634q0 24 17.5 41.5t41.5 17.5t42 -17.5t18 -41.5t-17.5 -41.5t-42.5 -17.5q-24 0 -41.5 17.5t-17.5 41.5zM306 634q0 24 17.5 41.5t42.5 17.5
q24 0 41 -17.5t17 -41.5t-17 -41.5t-41 -17.5q-25 0 -42.5 17.5t-17.5 41.5z" />
    <glyph glyph-name="omicrontonos" unicode="&#x3cc;" horiz-adv-x="580" 
d="M287 378q-57 0 -93.5 -39.5t-36.5 -105.5q0 -67 37 -106t97 -39t96 40t36 105q0 70 -38.5 107.5t-97.5 37.5zM291 475q114 0 184 -67t70 -175q0 -114 -75 -178t-181 -64q-119 0 -186 71t-67 169q0 107 69 175.5t186 68.5zM240 526l48 147h128l-101 -147h-75z" />
    <glyph glyph-name="upsilontonos" unicode="&#x3cd;" horiz-adv-x="532" 
d="M57 200v266h117v-268q0 -110 92 -110t92 112v266h117v-262q0 -100 -51 -156.5t-157 -56.5q-108 0 -159 52t-51 157zM218 526l48 147h128l-101 -147h-75z" />
    <glyph glyph-name="omegatonos" unicode="&#x3ce;" horiz-adv-x="803" 
d="M344 231v65h117v-66q0 -68 25 -105t69 -37q43 0 66.5 40t23.5 106q0 104 -76 232h125q31 -44 51 -107t20 -122q0 -109 -53 -177.5t-149 -68.5q-118 0 -162 104q-27 -53 -65 -78.5t-98 -25.5q-94 0 -147.5 66t-53.5 178q0 110 72 231h125q-77 -129 -77 -235
q0 -64 23 -103.5t65 -39.5q46 0 72.5 35.5t26.5 107.5zM353 526l48 147h128l-101 -147h-75z" />
    <glyph glyph-name="uni0400" unicode="&#x400;" horiz-adv-x="557" 
d="M74 682h424v-103h-292v-181h281v-103h-281v-191h301v-104h-433v682zM137 889h149l83 -156h-75z" />
    <glyph glyph-name="uni0401" unicode="&#x401;" horiz-adv-x="557" 
d="M74 682h424v-103h-292v-181h281v-103h-281v-191h301v-104h-433v682zM127 813q0 24 18 42t43 18q24 0 42 -18t18 -42q0 -25 -18 -43t-42 -18q-25 0 -43 18t-18 43zM322 813q0 25 18 42.5t42 17.5q25 0 42.5 -18t17.5 -42q0 -25 -17.5 -43t-42.5 -18q-24 0 -42 18t-18 43z
" />
    <glyph glyph-name="uni0402" unicode="&#x402;" horiz-adv-x="799" 
d="M251 0v571h-234v112h601v-112h-235v-163q59 39 151 39q105 0 167 -58t62 -163q0 -100 -61.5 -167.5t-181.5 -67.5q-44 0 -75 9v104q27 -9 68 -9q53 0 85 35t32 95q0 58 -32.5 88.5t-92.5 30.5q-33 0 -68 -10.5t-54 -26.5v-307h-132z" />
    <glyph glyph-name="uni0403" unicode="&#x403;" horiz-adv-x="520" 
d="M78 0v682h428v-112h-296v-570h-132zM220 733l83 156h149l-156 -156h-76z" />
    <glyph glyph-name="uni0404" unicode="&#x404;" horiz-adv-x="718" 
d="M186 397h344v-108h-345q16 -87 84.5 -136.5t167.5 -49.5q110 0 233 73v-125q-114 -60 -250 -60q-91 0 -164.5 30.5t-118.5 80.5t-69 110t-24 123q0 154 106.5 255t275.5 101q119 0 235 -52v-126q-117 66 -228 66q-94 0 -161 -49t-86 -133z" />
    <glyph glyph-name="uni0405" unicode="&#x405;" horiz-adv-x="514" 
d="M263 691q99 0 179 -51v-127q-84 73 -173 73q-43 0 -67 -19t-24 -51q0 -29 21 -54t87 -61q103 -56 143.5 -102.5t40.5 -120.5q0 -82 -60 -134.5t-156 -52.5q-106 0 -202 60v138q90 -92 191 -92q43 0 69 22t26 55q0 34 -25 61t-112 74q-76 43 -114.5 88.5t-38.5 114.5
q0 77 59 128t156 51z" />
    <glyph glyph-name="uni0406" unicode="&#x406;" horiz-adv-x="280" 
d="M74 682h132v-682h-132v682z" />
    <glyph glyph-name="uni0407" unicode="&#x407;" horiz-adv-x="280" 
d="M74 682h132v-682h-132v682zM-17 813q0 24 18 42t43 18q24 0 42 -18t18 -42q0 -25 -18 -43t-42 -18q-25 0 -43 18t-18 43zM178 813q0 25 18 42.5t42 17.5q25 0 42.5 -18t17.5 -42q0 -25 -17.5 -43t-42.5 -18q-24 0 -42 18t-18 43z" />
    <glyph glyph-name="uni0408" unicode="&#x408;" horiz-adv-x="285" 
d="M79 682h132v-654q0 -131 -44 -193t-156 -62q-24 0 -45 4l-23 115q89 0 112.5 25.5t23.5 121.5v643z" />
    <glyph glyph-name="uni0409" unicode="&#x409;" horiz-adv-x="909" 
d="M510 0l-188 518h-2l-190 -518h-130l275 686h104l106 -272h143q117 0 185 -56.5t68 -152.5q0 -88 -65.5 -146.5t-181.5 -58.5h-124zM606 106h31q50 0 79.5 26t29.5 72q0 48 -30 75.5t-81 27.5h-108z" />
    <glyph glyph-name="uni040A" unicode="&#x40a;" horiz-adv-x="1017" 
d="M74 682h132v-275h298v275h132v-275h100q117 0 185 -55t68 -150q0 -88 -65 -145t-181 -57h-239v301h-298v-301h-132v682zM636 106h109q51 0 80 25t29 70q0 47 -29.5 73.5t-80.5 26.5h-108v-195z" />
    <glyph glyph-name="uni040B" unicode="&#x40b;" horiz-adv-x="830" 
d="M17 682h599v-112h-235v-147q70 28 157 28q133 0 191.5 -64t58.5 -200v-187h-132v187q0 87 -29.5 121t-112.5 34q-74 0 -133 -24v-318h-132v570h-232v112z" />
    <glyph glyph-name="uni040C" unicode="&#x40c;" horiz-adv-x="644" 
d="M74 0v682h132v-272h8q55 0 84.5 25t59.5 94l5 13q31 74 72 108t118 34q8 0 14 -0.5t24 -1.5l-1 -107h-8q-49 0 -72.5 -20t-42.5 -69l-5 -13q-33 -85 -92 -115q52 -21 83 -58t81 -130l93 -170h-147l-86 160q-48 92 -83 121t-98 29h-7v-310h-132zM249 733l83 156h149
l-156 -156h-76z" />
    <glyph glyph-name="uni040D" unicode="&#x40d;" horiz-adv-x="775" 
d="M74 -6v688h132v-468l420 468h75v-682h-132v453l-422 -459h-73zM229 889h149l83 -156h-75z" />
    <glyph glyph-name="uni040E" unicode="&#x40e;" horiz-adv-x="697" 
d="M127 -147v108q34 -32 95 -32q31 0 55.5 21.5t31.5 52.5l-299 679h135l225 -529l186 529h132l-253 -662q-40 -104 -88 -148.5t-116 -44.5q-55 0 -104 26zM180 882h83q17 -65 92 -65q68 0 87 65h83q-11 -72 -57 -112.5t-115 -40.5q-73 0 -118.5 40.5t-54.5 112.5z" />
    <glyph glyph-name="uni040F" unicode="&#x40f;" horiz-adv-x="768" 
d="M74 0v682h132v-569h356v569h132v-682h-246v-140h-129v140h-245z" />
    <glyph glyph-name="uni0410" unicode="&#x410;" horiz-adv-x="717" 
d="M295 685h119l303 -685h-135l-79 181h-292l-76 -181h-135zM354 526l-101 -247h207z" />
    <glyph glyph-name="uni0411" unicode="&#x411;" horiz-adv-x="636" 
d="M78 0v682h473v-103h-341v-161h135q119 0 188.5 -56.5t69.5 -152.5q0 -94 -67.5 -151.5t-183.5 -57.5h-274zM210 103h134q54 0 89 30t35 76q0 51 -36 78.5t-100 27.5h-122v-212z" />
    <glyph glyph-name="uni0412" unicode="&#x412;" horiz-adv-x="618" 
d="M74 682h240q104 0 162 -47t58 -125q0 -103 -101 -145q75 -18 115.5 -65.5t40.5 -111.5q0 -99 -73.5 -143.5t-187.5 -44.5h-254v682zM205 587v-194h71q65 0 96.5 26.5t31.5 73.5q0 49 -27.5 71.5t-88.5 22.5h-83zM205 95h98q152 0 152 102t-155 102h-95v-204z" />
    <glyph glyph-name="uni0413" unicode="&#x413;" horiz-adv-x="520" 
d="M78 0v682h428v-112h-296v-570h-132z" />
    <glyph glyph-name="uni0414" unicode="&#x414;" horiz-adv-x="744" 
d="M12 -140v248h72l223 577h118l235 -577h72v-248h-129v140h-463v-140h-128zM213 106h317l-164 427z" />
    <glyph glyph-name="uni0415" unicode="&#x415;" horiz-adv-x="557" 
d="M74 682h424v-103h-292v-181h281v-103h-281v-191h301v-104h-433v682z" />
    <glyph glyph-name="uni0416" unicode="&#x416;" horiz-adv-x="969" 
d="M17 0l87 153q60 102 95 144t81 60q-61 31 -97 115l-13 33q-17 40 -39.5 55t-74.5 15l-2 107q26 2 37 2q73 0 113 -27.5t67 -89.5l18 -43q27 -63 54.5 -88.5t68.5 -25.5h7v272h132v-272h6q43 0 69 27.5t57 95.5l18 41q25 56 67 83t110 27q11 0 37 -2l-1 -107
q-48 0 -70.5 -13.5t-38.5 -47.5l-17 -37q-45 -93 -99 -120q28 -10 49 -24.5t42 -42t33 -48l39 -67.5l100 -175h-149l-82 152q-49 90 -85.5 124t-81.5 34h-3v-310h-132v310h-3q-48 0 -82.5 -33.5t-83.5 -122.5l-84 -154h-149z" />
    <glyph glyph-name="uni0417" unicode="&#x417;" horiz-adv-x="557" 
d="M47 32v118q85 -51 188 -51q141 0 141 98q0 97 -152 97h-78v102h94q63 0 97.5 27.5t34.5 71.5q0 89 -132 89q-42 0 -96 -12.5t-91 -33.5v111q98 42 210 42q114 0 176 -46.5t62 -128.5q0 -56 -31 -97.5t-88 -62.5q62 -22 94.5 -65.5t32.5 -101.5q0 -90 -69.5 -144
t-194.5 -54q-104 0 -198 41z" />
    <glyph glyph-name="uni0418" unicode="&#x418;" horiz-adv-x="775" 
d="M74 -6v688h132v-468l420 468h75v-682h-132v453l-422 -459h-73z" />
    <glyph glyph-name="uni0419" unicode="&#x419;" horiz-adv-x="775" 
d="M74 -6v688h132v-468l420 468h75v-682h-132v453l-422 -459h-73zM218 882h83q17 -65 92 -65q68 0 87 65h83q-11 -72 -57 -112.5t-115 -40.5q-73 0 -118.5 40.5t-54.5 112.5z" />
    <glyph glyph-name="uni041A" unicode="&#x41a;" horiz-adv-x="644" 
d="M74 0v682h132v-272h8q55 0 84.5 25t59.5 94l5 13q31 74 72 108t118 34q8 0 14 -0.5t24 -1.5l-1 -107h-8q-49 0 -72.5 -20t-42.5 -69l-5 -13q-33 -85 -92 -115q52 -21 83 -58t81 -130l93 -170h-147l-86 160q-48 92 -83 121t-98 29h-7v-310h-132z" />
    <glyph glyph-name="uni041B" unicode="&#x41b;" horiz-adv-x="702" 
d="M0 0l295 686h104l303 -686h-138l-222 524h-2l-210 -524h-130z" />
    <glyph glyph-name="uni041C" unicode="&#x41c;" horiz-adv-x="833" 
d="M74 682h122l221 -272l220 272h121v-682h-132v487l-201 -252h-18l-203 252v-487h-130v682z" />
    <glyph glyph-name="uni041D" unicode="&#x41d;" horiz-adv-x="771" 
d="M74 682h132v-281h359v281h132v-682h-132v287h-359v-287h-132v682z" />
    <glyph glyph-name="uni041E" unicode="&#x41e;" horiz-adv-x="832" 
d="M416 691q166 0 269 -100t103 -249q0 -146 -101.5 -248.5t-274.5 -102.5q-167 0 -267.5 102t-100.5 247q0 66 23.5 128t68 112.5t117 80.5t163.5 30zM417 572q-109 0 -173.5 -65.5t-64.5 -166.5t67.5 -165.5t166.5 -64.5q105 0 172.5 61t67.5 171q0 92 -63.5 161
t-172.5 69z" />
    <glyph glyph-name="uni041F" unicode="&#x41f;" horiz-adv-x="768" 
d="M74 0v682h620v-682h-132v569h-356v-569h-132z" />
    <glyph glyph-name="uni0420" unicode="&#x420;" horiz-adv-x="582" 
d="M74 682h245q110 0 172.5 -53t62.5 -147t-62.5 -146.5t-177.5 -52.5h-108v-283h-132v682zM206 582v-198h88q69 0 97 25.5t28 73.5q0 50 -29.5 74.5t-98.5 24.5h-85z" />
    <glyph glyph-name="uni0421" unicode="&#x421;" horiz-adv-x="718" 
d="M418 691q120 0 247 -54v-129q-117 70 -232 70q-116 0 -184.5 -70.5t-68.5 -168.5t68 -166.5t183 -68.5q126 0 239 75v-128q-111 -60 -254 -60q-89 0 -161 29.5t-117.5 79t-69.5 111.5t-24 129q0 154 107 252.5t267 98.5z" />
    <glyph glyph-name="uni0422" unicode="&#x422;" horiz-adv-x="646" 
d="M17 682h612v-112h-241v-570h-132v570h-239v112z" />
    <glyph glyph-name="uni0423" unicode="&#x423;" horiz-adv-x="697" 
d="M127 -147v108q34 -32 95 -32q31 0 55.5 21.5t31.5 52.5l-299 679h135l225 -529l186 529h132l-253 -662q-40 -104 -88 -148.5t-116 -44.5q-55 0 -104 26z" />
    <glyph glyph-name="uni0424" unicode="&#x424;" horiz-adv-x="863" 
d="M367 -9v77q-146 2 -234.5 77.5t-88.5 197.5q0 121 86.5 195.5t236.5 78.5v74h129v-74q149 -4 236 -78.5t87 -195.5q0 -122 -87.5 -197.5t-235.5 -77.5v-77h-129zM367 174v337q-88 -2 -138.5 -45.5t-50.5 -123.5t49.5 -122t139.5 -46zM496 511v-337q89 1 139 45.5
t50 121.5q0 79 -49 124t-140 46z" />
    <glyph glyph-name="uni0425" unicode="&#x425;" horiz-adv-x="755" 
d="M21 682h165l191 -235l189 235h162l-269 -328l293 -354h-164l-211 256l-210 -256h-164l292 354z" />
    <glyph glyph-name="uni0426" unicode="&#x426;" horiz-adv-x="801" 
d="M74 0v682h132v-569h352v569h132v-569h100v-253h-129v140h-587z" />
    <glyph glyph-name="uni0427" unicode="&#x427;" horiz-adv-x="660" 
d="M454 0v270q-65 -28 -159 -28q-135 0 -194 65t-59 205v170h132v-176q0 -88 30 -121.5t115 -33.5q73 0 135 23v308h132v-682h-132z" />
    <glyph glyph-name="uni0428" unicode="&#x428;" horiz-adv-x="999" 
d="M74 0v682h132v-569h227v569h132v-569h228v569h132v-682h-851z" />
    <glyph glyph-name="uni0429" unicode="&#x429;" horiz-adv-x="1036" 
d="M74 0v682h132v-569h227v569h132v-569h228v569h132v-569h99v-253h-128v140h-822z" />
    <glyph glyph-name="uni042A" unicode="&#x42a;" horiz-adv-x="702" 
d="M180 0v576h-163v106h295v-268h108q120 0 187 -58.5t67 -151.5q0 -89 -64.5 -146.5t-180.5 -57.5h-249zM312 106h117q51 0 80 26t29 72q0 48 -30 75.5t-81 27.5h-115v-201z" />
    <glyph glyph-name="uni042B" unicode="&#x42b;" horiz-adv-x="866" 
d="M660 0v682h132v-682h-132zM74 0v682h132v-268h98q117 0 185.5 -56.5t68.5 -152.5q0 -88 -65.5 -146.5t-181.5 -58.5h-237zM206 106h108q50 0 79 26t29 72q0 48 -30 75.5t-80 27.5h-106v-201z" />
    <glyph glyph-name="uni042C" unicode="&#x42c;" horiz-adv-x="597" 
d="M74 0v682h132v-268h110q117 0 185 -56.5t68 -152.5q0 -89 -65 -147t-181 -58h-249zM206 106h119q51 0 80 26t29 72q0 48 -30 75.5t-80 27.5h-118v-201z" />
    <glyph glyph-name="uni042D" unicode="&#x42d;" horiz-adv-x="718" 
d="M188 397h344q-19 84 -86 133t-161 49q-111 0 -229 -66v126q117 52 235 52q169 0 275.5 -101t106.5 -255q0 -63 -24 -123t-69 -110t-118.5 -80.5t-164.5 -30.5q-134 0 -250 60v125q124 -73 233 -73q99 0 167.5 49.5t85.5 136.5h-345v108z" />
    <glyph glyph-name="uni042E" unicode="&#x42e;" horiz-adv-x="1074" 
d="M666 691q163 0 263.5 -100t100.5 -249q0 -147 -99.5 -249t-268.5 -102q-147 0 -241.5 84.5t-111.5 213.5h-103v-289h-132v682h132v-282h105q19 124 110.5 207.5t244.5 83.5zM667 572q-109 0 -169 -69.5t-60 -162.5q0 -101 65 -166t161 -64q60 0 106.5 21.5t72.5 57
t39 74.5t13 79q0 92 -61 161t-167 69z" />
    <glyph glyph-name="uni042F" unicode="&#x42f;" horiz-adv-x="644" 
d="M325 682h245v-682h-132v269h-38q-47 0 -80 -20.5t-76 -91.5l-92 -157h-149l103 172q30 50 56 79t62 53q-67 21 -102 66t-35 108q0 88 61.5 146t176.5 58zM438 370v212h-91q-62 0 -94 -28t-32 -78q0 -106 141 -106h76z" />
    <glyph glyph-name="uni0430" unicode="&#x430;" horiz-adv-x="470" 
d="M219 475q86 0 133.5 -40.5t47.5 -108.5v-214q0 -31 19 -31q15 0 46 21v-76q-61 -35 -111 -35q-56 0 -69 48q-60 -48 -131 -48q-55 0 -88.5 33t-33.5 82q0 75 87 120q39 20 164 60v19q0 41 -20 58.5t-60 17.5q-90 0 -160 -79v109q67 64 176 64zM148 124q0 -26 16.5 -42.5
t42.5 -16.5q37 0 76 36v127q-73 -26 -104 -48.5t-31 -55.5z" />
    <glyph glyph-name="uni0431" unicode="&#x431;" horiz-adv-x="580" 
d="M491 606q-65 -6 -108 -13t-84 -20.5t-66.5 -34t-44 -52t-28.5 -76.5q58 52 147 52q101 0 169.5 -63.5t68.5 -167.5q0 -109 -72 -174.5t-185 -65.5q-120 0 -186 73t-66 197q0 205 87 308.5t281 125.5l92 9zM288 365q-59 0 -95 -37t-36 -98q0 -63 33 -102.5t97 -39.5
q62 0 99 36.5t37 104.5q0 63 -36.5 99.5t-98.5 36.5z" />
    <glyph glyph-name="uni0432" unicode="&#x432;" horiz-adv-x="490" 
d="M62 466h194q179 0 179 -122q0 -69 -65 -101q82 -26 82 -110q0 -63 -46.5 -98t-133.5 -35h-210v466zM179 271h66q72 0 72 56t-70 56h-68v-112zM179 83h77q76 0 76 56q0 26 -19 41.5t-55 15.5h-79v-113z" />
    <glyph glyph-name="uni0433" unicode="&#x433;" horiz-adv-x="399" 
d="M62 0v464h323v-98h-206v-366h-117z" />
    <glyph glyph-name="uni0434" unicode="&#x434;" horiz-adv-x="564" 
d="M12 -140v237h49l178 375h95l169 -375h49v-237h-113v140h-314v-140h-113zM177 97h204l-101 225z" />
    <glyph glyph-name="uni0435" unicode="&#x435;" horiz-adv-x="517" 
d="M269 475q93 0 153 -64.5t60 -178.5v-18h-327q6 -58 45 -93.5t99 -35.5q88 0 173 53v-94q-85 -53 -193 -53q-106 0 -174.5 67t-68.5 178q0 105 63.5 172t169.5 67zM155 278h214q-2 51 -29 80t-74 29q-46 0 -77.5 -31t-33.5 -78z" />
    <glyph glyph-name="uni0436" unicode="&#x436;" horiz-adv-x="734" 
d="M309 0v197q-38 0 -59 -15.5t-41 -53.5l-67 -128h-131l72 129q31 55 53.5 77.5t57.5 34.5q-48 17 -74 64l-23 40q-10 19 -20.5 24t-26.5 5h-17l-1 92q27 3 37 3q49 0 73 -16t51 -64l28 -51q19 -33 37 -44.5t51 -11.5v184h116v-184q34 0 54 14t35 43l27 50q24 46 50.5 62.5
t73.5 17.5q10 0 37 -3l-1 -92h-16q-19 0 -29.5 -6.5t-20.5 -25.5l-20 -37q-27 -47 -75 -64q31 -9 56 -33t53 -76l74 -132h-131l-67 128q-20 38 -41.5 53.5t-58.5 15.5v-197h-116z" />
    <glyph glyph-name="uni0437" unicode="&#x437;" horiz-adv-x="449" 
d="M33 28v96q77 -42 146 -42q58 0 84.5 14t26.5 46q0 56 -108 56h-51v83h43q55 0 80.5 12.5t25.5 41.5q0 48 -94 48q-73 0 -143 -35v88q61 39 168 39q92 0 140 -32.5t48 -89.5q0 -38 -24.5 -66t-66.5 -37v-3q48 -12 75.5 -43.5t27.5 -74.5q0 -67 -54 -103t-153 -36
q-45 0 -94.5 10.5t-76.5 27.5z" />
    <glyph glyph-name="uni0438" unicode="&#x438;" horiz-adv-x="566" 
d="M62 -6v472h117v-287l249 287h76v-466h-117v274l-251 -280h-74z" />
    <glyph glyph-name="uni0439" unicode="&#x439;" horiz-adv-x="566" 
d="M62 -6v472h117v-287l249 287h76v-466h-117v274l-251 -280h-74zM131 669h77q17 -60 79 -60q31 0 48 13.5t27 46.5h78q-6 -60 -48.5 -100.5t-105.5 -40.5q-62 0 -103 37t-52 104z" />
    <glyph glyph-name="uni043A" unicode="&#x43a;" horiz-adv-x="494" 
d="M62 0v466h117v-184h8q32 0 50 14t36 47l28 53q21 40 48.5 56.5t73.5 16.5q15 0 39 -3l-1 -92h-17q-31 0 -47 -28l-24 -44q-14 -25 -30.5 -38t-43.5 -23q34 -11 58 -34.5t48 -67.5l77 -139h-130l-66 125q-19 38 -42 55t-57 17h-8v-197h-117z" />
    <glyph glyph-name="uni043B" unicode="&#x43b;" horiz-adv-x="479" 
d="M479 0h-126l-115 274l-117 -274h-121l210 472h63z" />
    <glyph glyph-name="uni043C" unicode="&#x43c;" horiz-adv-x="656" 
d="M41 0l35 466h102l151 -270l150 270h101l34 -466h-113l-22 282l-150 -282l-156 282l-18 -282h-114z" />
    <glyph glyph-name="uni043D" unicode="&#x43d;" horiz-adv-x="563" 
d="M62 0v466h117v-178h205v178h117v-466h-117v191h-205v-191h-117z" />
    <glyph glyph-name="uni043E" unicode="&#x43e;" horiz-adv-x="580" 
d="M287 378q-57 0 -93.5 -39.5t-36.5 -105.5q0 -67 37 -106t97 -39t96 40t36 105q0 70 -38.5 107.5t-97.5 37.5zM291 475q114 0 184 -67t70 -175q0 -114 -75 -178t-181 -64q-119 0 -186 71t-67 169q0 107 69 175.5t186 68.5z" />
    <glyph glyph-name="uni043F" unicode="&#x43f;" horiz-adv-x="563" 
d="M62 0v466h439v-466h-117v369h-205v-369h-117z" />
    <glyph glyph-name="uni0440" unicode="&#x440;" horiz-adv-x="551" 
d="M515 231q0 -101 -62 -170.5t-166 -69.5q-54 0 -108 26v-246h-117v695h190q121 0 192 -56.5t71 -178.5zM179 370v-259q38 -25 88 -25q56 0 91.5 40t35.5 102q0 69 -37 105.5t-107 36.5h-71z" />
    <glyph glyph-name="uni0441" unicode="&#x441;" horiz-adv-x="460" 
d="M275 475q68 0 141 -31v-109q-63 37 -128 37q-60 0 -95.5 -40t-35.5 -98t35.5 -99.5t106.5 -41.5q55 0 126 30v-104q-74 -28 -143 -28q-67 0 -117.5 23t-77 60.5t-39 76.5t-12.5 78q0 103 62 174.5t177 71.5z" />
    <glyph glyph-name="uni0442" unicode="&#x442;" horiz-adv-x="467" 
d="M175 0v367h-161v99h439v-99h-161v-367h-117z" />
    <glyph glyph-name="uni0443" unicode="&#x443;" horiz-adv-x="484" 
d="M2 466h129l117 -252l116 252h120l-325 -695h-121l148 315z" />
    <glyph glyph-name="uni0444" unicode="&#x444;" horiz-adv-x="713" 
d="M298 -231v231q-116 2 -189 68t-73 168q0 98 74 162t188 66v218h117v-218q115 -2 188.5 -65.5t73.5 -163.5t-74 -166.5t-188 -68.5v-231h-117zM298 92v280q-61 -1 -101 -39t-40 -97q0 -63 39.5 -103t101.5 -41zM415 372v-280q63 1 102 41t39 103q0 59 -40 97t-101 39z" />
    <glyph glyph-name="uni0445" unicode="&#x445;" horiz-adv-x="537" 
d="M2 466h145l120 -149l117 149h139l-186 -227l198 -239h-147l-126 155l-121 -155h-138l190 234z" />
    <glyph glyph-name="uni0446" unicode="&#x446;" horiz-adv-x="600" 
d="M62 0v466h117v-369h203v369h117v-369h90v-237h-113v140h-414z" />
    <glyph glyph-name="uni0447" unicode="&#x447;" horiz-adv-x="526" 
d="M34 466h117v-119q0 -56 21.5 -76t65.5 -20q72 0 110 52v163h117v-466h-117v207q-54 -54 -144 -54q-87 0 -128.5 45t-41.5 139v129z" />
    <glyph glyph-name="uni0448" unicode="&#x448;" horiz-adv-x="786" 
d="M62 0v466h117v-369h156v369h117v-369h156v369h117v-466h-663z" />
    <glyph glyph-name="uni0449" unicode="&#x449;" horiz-adv-x="826" 
d="M62 0v466h117v-369h156v369h117v-369h156v369h117v-369h89v-237h-113v140h-639z" />
    <glyph glyph-name="uni044A" unicode="&#x44a;" horiz-adv-x="563" 
d="M145 0v367h-131v99h248v-160h99q78 0 126 -42t48 -110q0 -67 -47 -110.5t-124 -43.5h-219zM262 83h63q90 0 90 72q0 68 -89 68h-64v-140z" />
    <glyph glyph-name="uni044B" unicode="&#x44b;" horiz-adv-x="715" 
d="M62 0v466h117v-160h90q85 0 136 -41.5t51 -110.5q0 -68 -49.5 -111t-136.5 -43h-208zM179 83h64q92 0 92 72q0 33 -24 50.5t-67 17.5h-65v-140zM537 466h117v-466h-117v466z" />
    <glyph glyph-name="uni044C" unicode="&#x44c;" horiz-adv-x="483" 
d="M62 0v466h117v-160h90q85 0 136 -41.5t51 -110.5q0 -68 -49.5 -111t-136.5 -43h-208zM179 83h64q92 0 92 72q0 33 -24 50.5t-67 17.5h-65v-140z" />
    <glyph glyph-name="uni044D" unicode="&#x44d;" horiz-adv-x="460" 
d="M184 475q118 0 179 -71.5t61 -175.5q0 -97 -64 -167t-180 -70q-81 0 -145 27v96q74 -30 126 -30q56 0 92.5 27.5t46.5 78.5h-186v90h184q-9 45 -42.5 73t-83.5 28q-63 0 -128 -37v101q71 30 140 30z" />
    <glyph glyph-name="uni044E" unicode="&#x44e;" horiz-adv-x="792" 
d="M500 475q114 0 185 -66.5t71 -172.5q0 -110 -69.5 -177.5t-186.5 -67.5q-99 0 -164.5 53.5t-80.5 143.5h-76v-188h-117v466h117v-181h76q16 86 82.5 138t162.5 52zM498 378q-56 0 -92.5 -39.5t-36.5 -102.5q0 -67 35.5 -107.5t94.5 -40.5q64 0 100 40t36 107
q0 65 -38 104t-99 39z" />
    <glyph glyph-name="uni044F" unicode="&#x44f;" horiz-adv-x="512" 
d="M2 0l68 109q38 63 86 81q-99 32 -99 129q0 62 48.5 104.5t136.5 42.5h208v-466h-117v160h-31q-41 0 -65.5 -16t-46.5 -51l-55 -93h-133zM264 246h69v134h-67q-88 0 -88 -67q0 -31 22 -49t64 -18z" />
    <glyph glyph-name="uni0450" unicode="&#x450;" horiz-adv-x="517" 
d="M269 475q93 0 153 -64.5t60 -178.5v-18h-327q6 -58 45 -93.5t99 -35.5q88 0 173 53v-94q-85 -53 -193 -53q-106 0 -174.5 67t-68.5 178q0 105 63.5 172t169.5 67zM155 278h214q-2 51 -29 80t-74 29q-46 0 -77.5 -31t-33.5 -78zM133 683h136l72 -157h-72z" />
    <glyph glyph-name="uni0451" unicode="&#x451;" horiz-adv-x="517" 
d="M269 475q93 0 153 -64.5t60 -178.5v-18h-327q6 -58 45 -93.5t99 -35.5q88 0 173 53v-94q-85 -53 -193 -53q-106 0 -174.5 67t-68.5 178q0 105 63.5 172t169.5 67zM155 278h214q-2 51 -29 80t-74 29q-46 0 -77.5 -31t-33.5 -78zM107 608q0 24 17.5 41.5t41.5 17.5
t42 -17.5t18 -41.5t-17.5 -41.5t-42.5 -17.5q-24 0 -41.5 17.5t-17.5 41.5zM300 608q0 24 17.5 41.5t42.5 17.5q24 0 41 -17.5t17 -41.5t-17 -41.5t-41 -17.5q-25 0 -42.5 17.5t-17.5 41.5z" />
    <glyph glyph-name="uni0452" unicode="&#x452;" horiz-adv-x="546" 
d="M489 285v-285q0 -98 -35.5 -147.5t-123.5 -49.5q-43 0 -71 8v95q17 -6 41 -6q41 0 56.5 18t15.5 69v287q0 102 -82 102q-58 0 -111 -68v-308h-117v544h-72v62h72v76h117v-76h172v-62h-172v-146q63 72 150 72q80 0 120 -49.5t40 -135.5z" />
    <glyph glyph-name="uni0453" unicode="&#x453;" horiz-adv-x="399" 
d="M62 0v464h323v-98h-206v-366h-117zM240 683h135l-134 -157h-73z" />
    <glyph glyph-name="uni0454" unicode="&#x454;" horiz-adv-x="460" 
d="M276 475q69 0 140 -30v-101q-65 37 -128 37q-50 0 -83.5 -28t-42.5 -73h184v-90h-186q10 -51 46.5 -78.5t92.5 -27.5q52 0 126 30v-96q-64 -27 -145 -27q-116 0 -180 70t-64 167q0 104 61 175.5t179 71.5z" />
    <glyph glyph-name="uni0455" unicode="&#x455;" horiz-adv-x="417" 
d="M45 347q0 54 44.5 91t116.5 37q79 0 148 -39v-99q-80 48 -135 48q-27 0 -41 -9.5t-14 -23.5q0 -17 15 -31t73 -44q60 -30 92.5 -64.5t32.5 -84.5q0 -55 -43 -96t-125 -41q-75 0 -164 40v106q80 -57 145 -57q33 0 50.5 11.5t17.5 27.5q0 20 -17.5 35.5t-83.5 51.5
q-57 29 -84.5 62.5t-27.5 78.5z" />
    <glyph glyph-name="uni0456" unicode="&#x456;" horiz-adv-x="240" 
d="M120 655q25 0 42.5 -17.5t17.5 -41.5q0 -25 -17.5 -42.5t-42.5 -17.5t-42 18t-17 42q0 23 17 41t42 18zM62 466h117v-466h-117v466z" />
    <glyph glyph-name="uni0457" unicode="&#x457;" horiz-adv-x="240" 
d="M62 466h117v-466h-117v466zM-35 608q0 24 17.5 41.5t41.5 17.5t42 -17.5t18 -41.5t-17.5 -41.5t-42.5 -17.5q-24 0 -41.5 17.5t-17.5 41.5zM158 608q0 24 17.5 41.5t42.5 17.5q24 0 41 -17.5t17 -41.5t-17 -41.5t-41 -17.5q-25 0 -42.5 17.5t-17.5 41.5z" />
    <glyph glyph-name="uni0458" unicode="&#x458;" horiz-adv-x="240" 
d="M62 466h117v-499q0 -87 -29.5 -131.5t-93.5 -67.5l-64 87q37 14 53.5 39t16.5 81v491zM119 655q25 0 42 -18t17 -41q0 -26 -16.5 -43t-42.5 -17q-25 0 -42.5 18t-17.5 42q0 23 18 41t42 18z" />
    <glyph glyph-name="uni0459" unicode="&#x459;" horiz-adv-x="691" 
d="M353 0l-115 274l-117 -274h-121l210 472h63l72 -166h131q85 0 136 -41.5t51 -110.5q0 -68 -49.5 -111t-136.5 -43h-124zM443 83h13q86 0 86 72q0 68 -90 68h-70z" />
    <glyph glyph-name="uni045A" unicode="&#x45a;" horiz-adv-x="783" 
d="M62 0v466h117v-174h186v174h117v-174h86q85 0 136 -39.5t51 -104.5q0 -66 -49.5 -107t-136.5 -41h-204v200h-186v-200h-117zM482 83h60q92 0 92 65q0 61 -90 61h-62v-126z" />
    <glyph glyph-name="uni045B" unicode="&#x45b;" horiz-adv-x="546" 
d="M329 470q80 0 120 -49.5t40 -135.5v-285h-117v274q0 102 -82 102q-58 0 -111 -68v-308h-117v544h-72v62h72v76h117v-76h172v-62h-172v-146q63 72 150 72z" />
    <glyph glyph-name="uni045C" unicode="&#x45c;" horiz-adv-x="494" 
d="M62 0v466h117v-184h8q32 0 50 14t36 47l28 53q21 40 48.5 56.5t73.5 16.5q15 0 39 -3l-1 -92h-17q-31 0 -47 -28l-24 -44q-14 -25 -30.5 -38t-43.5 -23q34 -11 58 -34.5t48 -67.5l77 -139h-130l-66 125q-19 38 -42 55t-57 17h-8v-197h-117zM279 683h135l-134 -157h-73z
" />
    <glyph glyph-name="uni045D" unicode="&#x45d;" horiz-adv-x="566" 
d="M62 -6v472h117v-287l249 287h76v-466h-117v274l-251 -280h-74zM151 683h136l72 -157h-72z" />
    <glyph glyph-name="uni045E" unicode="&#x45e;" horiz-adv-x="484" 
d="M2 466h129l117 -252l116 252h120l-325 -695h-121l148 315zM92 669h77q17 -60 79 -60q31 0 48 13.5t27 46.5h78q-6 -60 -48.5 -100.5t-105.5 -40.5q-62 0 -103 37t-52 104z" />
    <glyph glyph-name="uni045F" unicode="&#x45f;" horiz-adv-x="563" 
d="M225 0h-163v466h117v-369h205v369h117v-466h-162v-137h-114v137z" />
    <glyph glyph-name="uni0462" unicode="&#x462;" horiz-adv-x="669" 
d="M145 0v519h-145v90h145v73h132v-73h155v-90h-155v-108h110q118 0 186 -56t68 -152q0 -88 -65.5 -145.5t-181.5 -57.5h-249zM277 106h120q50 0 79 25.5t29 71.5q0 48 -29.5 75t-80.5 27h-118v-199z" />
    <glyph glyph-name="uni0463" unicode="&#x463;" horiz-adv-x="515" 
d="M94 0v444h-94v85h94v153h117v-153h128v-85h-128v-138h90q85 0 136 -41.5t51 -110.5q0 -68 -49.5 -111t-136.5 -43h-208zM211 83h64q92 0 92 72q0 33 -24 50.5t-67 17.5h-65v-140z" />
    <glyph glyph-name="uni0472" unicode="&#x472;" horiz-adv-x="832" 
d="M44 341q0 148 102 249t270 101q167 0 269.5 -100t102.5 -250q0 -94 -42 -172t-129 -128t-203 -50q-166 0 -268 101.5t-102 248.5zM179 395h472q-13 82 -79 133.5t-157 51.5q-89 0 -152 -49t-84 -136zM651 291h-472q13 -83 80.5 -136t156.5 -53q97 0 163 57t72 132z" />
    <glyph glyph-name="uni0473" unicode="&#x473;" horiz-adv-x="588" 
d="M295 475q115 0 186 -67t71 -175q0 -114 -75.5 -178t-183.5 -64q-121 0 -189 71t-68 169q0 107 70 175.5t189 68.5zM295 83q52 0 87.5 29t46.5 78h-270q11 -51 47 -79t89 -28zM291 382q-50 0 -85 -27.5t-46 -76.5h268q-12 51 -49 77.5t-88 26.5z" />
    <glyph glyph-name="uni0474" unicode="&#x474;" horiz-adv-x="653" 
d="M265 -6l-265 688h132l166 -452h1l109 305q32 89 70.5 123t98.5 34q38 0 72 -11v-110q-19 11 -47 11q-27 0 -43 -14.5t-29 -46.5l-203 -527h-62z" />
    <glyph glyph-name="uni0475" unicode="&#x475;" horiz-adv-x="509" 
d="M409 328l-142 -334h-62l-205 472h127l111 -271l74 181q23 58 52.5 81t73.5 23q40 0 71 -14v-95q-17 11 -42 11q-22 0 -34.5 -13.5t-23.5 -40.5z" />
    <glyph glyph-name="uni0490" unicode="&#x490;" horiz-adv-x="521" 
d="M78 0v682h305v116h123v-223h-296v-575h-132z" />
    <glyph glyph-name="uni0491" unicode="&#x491;" horiz-adv-x="402" 
d="M62 0v464h210v112h113v-210h-206v-366h-117z" />
    <glyph glyph-name="uni0492" unicode="&#x492;" horiz-adv-x="520" 
d="M78 377v305h428v-112h-296v-193h208v-99h-208v-278h-132v278h-74v99h74z" />
    <glyph glyph-name="uni0493" unicode="&#x493;" horiz-adv-x="399" 
d="M62 0v183h-53v85h53v196h323v-98h-206v-98h136v-85h-136v-183h-117z" />
    <glyph glyph-name="uni0496" unicode="&#x496;" horiz-adv-x="985" 
d="M17 0l87 153q63 106 97.5 146.5t78.5 57.5q-60 32 -97 115q-24 58 -50 80.5t-77 22.5l-2 107q26 2 37 2q75 0 117.5 -36t79.5 -121q25 -62 53 -89.5t71 -27.5h7v272h128v-272h7q44 0 70.5 27.5t55.5 95.5q34 81 77 116t118 35q11 0 37 -2l-2 -107q-48 0 -75.5 -20
t-47.5 -72q-37 -95 -101 -126q48 -17 81 -55.5t96 -149.5l23 -39h88v-253h-129v140h-45l-82 152q-50 90 -86 124t-81 34h-4v-310h-128v310h-3q-48 0 -82.5 -33.5t-83.5 -122.5l-84 -154h-149z" />
    <glyph glyph-name="uni0497" unicode="&#x497;" horiz-adv-x="746" 
d="M309 0v197q-38 0 -59 -15.5t-41 -53.5l-67 -128h-131l72 129q31 55 53.5 77.5t57.5 34.5q-48 17 -74 64l-23 40q-10 19 -20.5 24t-26.5 5h-17l-1 92q21 3 37 3q49 0 73 -16t51 -64l28 -51q18 -33 36.5 -44.5t51.5 -11.5v184h116v-184q34 0 54 14t35 43l27 50
q24 46 50.5 62.5t73.5 17.5q16 0 37 -3l-1 -92h-16q-19 0 -29.5 -6.5t-20.5 -25.5l-20 -37q-27 -47 -75 -64q31 -9 56 -33t53 -76l19 -35h67v-237h-114v140h-29l-67 128q-20 38 -41.5 53.5t-58.5 15.5v-197h-116z" />
    <glyph glyph-name="uni049A" unicode="&#x49a;" horiz-adv-x="669" 
d="M529 0h-45l-86 160q-49 94 -85 122t-103 28v-310h-132v682h132v-272q62 0 91 23.5t61 95.5q37 85 79 120t116 35q12 0 38 -2l-1 -107q-59 0 -83 -22t-45 -79q-15 -40 -40.5 -71.5t-51.5 -44.5q54 -24 89 -68t109 -177h86v-253h-129v140z" />
    <glyph glyph-name="uni049B" unicode="&#x49b;" horiz-adv-x="504" 
d="M62 0v466h117v-184h8q32 0 50 14t36 47l28 53q21 40 48.5 56.5t73.5 16.5q15 0 39 -3l-1 -92h-17q-31 0 -47 -28l-24 -44q-14 -25 -30.5 -38t-43.5 -23q34 -11 58 -34.5t48 -67.5l23 -42h64v-237h-113v140h-27l-66 125q-19 38 -42 55t-57 17h-8v-197h-117z" />
    <glyph glyph-name="uni049C" unicode="&#x49c;" horiz-adv-x="697" 
d="M257 110v200h-51v-310h-132v682h132v-272h51v166h90v-150q27 18 64 103l5 13q30 73 71.5 107.5t118.5 34.5q10 0 38 -2l-2 -107h-7q-49 0 -73 -20t-42 -69l-5 -13q-34 -90 -86 -115q22 -9 39.5 -21.5t28.5 -22.5t29 -38.5t26.5 -43t34.5 -62.5l93 -170h-147l-86 160
q-35 66 -55 95t-45 42v-187h-90z" />
    <glyph glyph-name="uni049D" unicode="&#x49d;" horiz-adv-x="563" 
d="M304 70h-81v127h-44v-197h-117v466h117v-184h44v119h81v-110q16 10 38 52l28 53q21 39 49 55.5t74 17.5q8 0 38 -3l-1 -92h-16q-32 0 -47 -28l-25 -44q-14 -25 -30 -38t-43 -23q34 -11 57.5 -34t48.5 -68l77 -139h-131l-65 125q-28 50 -52 63v-118z" />
    <glyph glyph-name="uni04A2" unicode="&#x4a2;" horiz-adv-x="811" 
d="M671 0h-107v287h-358v-287h-132v682h132v-282h358v282h132v-569h103v-253h-128v140z" />
    <glyph glyph-name="uni04A3" unicode="&#x4a3;" horiz-adv-x="602" 
d="M477 0h-93v191h-205v-191h-117v466h117v-178h205v178h117v-369h89v-237h-113v140z" />
    <glyph glyph-name="uni04AE" unicode="&#x4ae;" horiz-adv-x="647" 
d="M0 682h148l174 -229l176 229h149l-256 -337v-345h-133v344z" />
    <glyph glyph-name="uni04AF" unicode="&#x4af;" horiz-adv-x="478" 
d="M182 -229v284l-182 411h127l115 -274l116 274h120l-179 -409v-286h-117z" />
    <glyph glyph-name="uni04B0" unicode="&#x4b0;" horiz-adv-x="647" 
d="M0 682h148l174 -229l176 229h149l-257 -337v-18h200v-94h-200v-233h-132v233h-200v94h200v17z" />
    <glyph glyph-name="uni04B1" unicode="&#x4b1;" horiz-adv-x="478" 
d="M182 -230v230h-153v85h153v10l-182 371h127l116 -246l115 246h120l-179 -369v-12h153v-85h-153v-230h-117z" />
    <glyph glyph-name="uni04B2" unicode="&#x4b2;" horiz-adv-x="760" 
d="M21 682h165l191 -235l189 235h162l-269 -328l200 -241h89v-253h-129v140h-31l-211 256l-210 -256h-164l292 354z" />
    <glyph glyph-name="uni04B3" unicode="&#x4b3;" horiz-adv-x="544" 
d="M2 466h145l120 -149l117 149h139l-186 -227l118 -142h78v-237h-113v140h-32l-126 155l-121 -155h-138l190 234z" />
    <glyph glyph-name="uni04B6" unicode="&#x4b6;" horiz-adv-x="701" 
d="M454 0v270q-58 -28 -152 -28q-139 0 -199.5 63.5t-60.5 206.5v170h132v-179q0 -80 30.5 -116t116.5 -36q71 0 133 23v308h132v-569h103v-253h-129v140h-106z" />
    <glyph glyph-name="uni04B7" unicode="&#x4b7;" horiz-adv-x="565" 
d="M441 0h-93v207q-54 -54 -144 -54q-170 0 -170 184v129h117v-116q0 -57 20.5 -78t66.5 -21q72 0 110 52v163h117v-369h89v-237h-113v140z" />
    <glyph glyph-name="uni04B8" unicode="&#x4b8;" horiz-adv-x="660" 
d="M355 110h-90v159q-119 5 -171 66.5t-52 199.5v147h132v-153q0 -72 19.5 -105t71.5 -42v194h90v-197q54 3 99 22v281h132v-682h-132v296q-43 -18 -99 -25v-161z" />
    <glyph glyph-name="uni04B9" unicode="&#x4b9;" horiz-adv-x="532" 
d="M293 70h-81v96q-96 4 -137 47.5t-41 137.5v115h117v-113q0 -44 15 -63.5t46 -23.5v128h81v-122q41 12 61 35v159h117v-466h-117v210q-19 -16 -61 -31v-109z" />
    <glyph glyph-name="uni04BA" unicode="&#x4ba;" horiz-adv-x="660" 
d="M206 682v-253q70 28 159 28q135 0 194 -64t59 -200v-193h-132v193q0 88 -30.5 121.5t-114.5 33.5q-74 0 -135 -23v-325h-132v682h132z" />
    <glyph glyph-name="uni04BB" unicode="&#x4bb;" horiz-adv-x="546" 
d="M329 475q80 0 120 -49.5t40 -136.5v-289h-117v279q0 101 -82 101q-59 0 -111 -67v-313h-117v682h117v-279q63 72 150 72z" />
    <glyph glyph-name="uni04C0" unicode="&#x4c0;" horiz-adv-x="280" 
d="M74 682h132v-682h-132v682z" />
    <glyph glyph-name="uni04CF" unicode="&#x4cf;" horiz-adv-x="280" 
d="M74 682h132v-682h-132v682z" />
    <glyph glyph-name="uni04D8" unicode="&#x4d8;" horiz-adv-x="772" 
d="M40 358h550q-6 104 -74 164.5t-177 60.5q-130 0 -252 -75v120q120 63 269 63q163 0 267.5 -97.5t104.5 -246.5q0 -161 -94 -258.5t-256 -97.5q-160 0 -249 94.5t-89 251.5v21zM584 261h-402q17 -79 67 -122t129 -43q81 0 134.5 43.5t71.5 121.5z" />
    <glyph glyph-name="uni04D9" unicode="&#x4d9;" horiz-adv-x="517" 
d="M247 -9q-93 0 -152.5 64t-59.5 179v18h327q-7 58 -46 93.5t-98 35.5q-88 0 -174 -54v95q86 53 194 53q106 0 174.5 -67t68.5 -178q0 -105 -63.5 -172t-170.5 -67zM362 188h-215q2 -52 29 -81t75 -29q46 0 77.5 31.5t33.5 78.5z" />
    <glyph glyph-name="uni04E2" unicode="&#x4e2;" horiz-adv-x="775" 
d="M74 -6v688h132v-468l420 468h75v-682h-132v453l-422 -459h-73zM245 767v83h287v-83h-287z" />
    <glyph glyph-name="uni04E3" unicode="&#x4e3;" horiz-adv-x="566" 
d="M62 -6v472h117v-287l249 287h76v-466h-117v274l-251 -280h-74zM139 646h287v-84h-287v84z" />
    <glyph glyph-name="uni04E8" unicode="&#x4e8;" horiz-adv-x="832" 
d="M44 341q0 148 102 249t270 101q167 0 269.5 -100t102.5 -250q0 -94 -42 -172t-129 -128t-203 -50q-166 0 -268 101.5t-102 248.5zM179 395h472q-13 82 -79 133.5t-157 51.5q-89 0 -152 -49t-84 -136zM651 291h-472q13 -83 80.5 -136t156.5 -53q97 0 163 57t72 132z" />
    <glyph glyph-name="uni04E9" unicode="&#x4e9;" horiz-adv-x="580" 
d="M295 475q115 0 186 -67t71 -175q0 -114 -75.5 -178t-183.5 -64q-121 0 -189 71t-68 169q0 107 70 175.5t189 68.5zM295 83q52 0 87.5 29t46.5 78h-270q11 -51 47 -79t89 -28zM291 382q-50 0 -85 -27.5t-46 -76.5h268q-12 51 -49 77.5t-88 26.5z" />
    <glyph glyph-name="uni04EE" unicode="&#x4ee;" horiz-adv-x="697" 
d="M127 -147v108q34 -32 95 -32q31 0 55.5 21.5t31.5 52.5l-299 679h135l225 -529l186 529h132l-253 -662q-40 -104 -88 -148.5t-116 -44.5q-55 0 -104 26zM206 767v83h287v-83h-287z" />
    <glyph glyph-name="uni04EF" unicode="&#x4ef;" horiz-adv-x="484" 
d="M2 466h129l117 -252l116 252h120l-325 -695h-121l148 315zM98 646h287v-84h-287v84z" />
    <glyph glyph-name="uni0E3F" unicode="&#xe3f;" horiz-adv-x="549" 
d="M295 746v-65q94 -4 143.5 -51t49.5 -122q0 -102 -100 -143q62 -22 96.5 -67t34.5 -102q0 -92 -60 -142t-164 -53v-79h-69v78h-176v682h176v64h69zM393 197q0 43 -25 69.5t-73 31.5v-203q98 10 98 102zM169 94h57v206h-57v-206zM169 588v-196h57v196h-57zM371 493
q0 82 -76 93v-192q37 7 56.5 34t19.5 65z" />
    <glyph glyph-name="Wgrave" unicode="&#x1e80;" horiz-adv-x="1083" 
d="M0 682h134l173 -440l180 440h110l180 -440l173 440h133l-281 -688h-52l-208 507l-211 -507h-52zM395 889h149l83 -156h-75z" />
    <glyph glyph-name="wgrave" unicode="&#x1e81;" horiz-adv-x="758" 
d="M0 466h122l109 -266l109 266h80l109 -266l108 266h121l-198 -472h-54l-126 301l-124 -301h-56zM243 683h136l72 -157h-72z" />
    <glyph glyph-name="Wacute" unicode="&#x1e82;" horiz-adv-x="1083" 
d="M0 682h134l173 -440l180 440h110l180 -440l173 440h133l-281 -688h-52l-208 507l-211 -507h-52zM453 733l83 156h149l-156 -156h-76z" />
    <glyph glyph-name="wacute" unicode="&#x1e83;" horiz-adv-x="758" 
d="M0 466h122l109 -266l109 266h80l109 -266l108 266h121l-198 -472h-54l-126 301l-124 -301h-56zM376 683h135l-134 -157h-73z" />
    <glyph glyph-name="Wdieresis" unicode="&#x1e84;" horiz-adv-x="1083" 
d="M0 682h134l173 -440l180 440h110l180 -440l173 440h133l-281 -688h-52l-208 507l-211 -507h-52zM385 813q0 24 18 42t43 18q24 0 42 -18t18 -42q0 -25 -18 -43t-42 -18q-25 0 -43 18t-18 43zM580 813q0 25 18 42.5t42 17.5q25 0 42.5 -18t17.5 -42q0 -25 -17.5 -43
t-42.5 -18q-24 0 -42 18t-18 43z" />
    <glyph glyph-name="wdieresis" unicode="&#x1e85;" horiz-adv-x="758" 
d="M0 466h122l109 -266l109 266h80l109 -266l108 266h121l-198 -472h-54l-126 301l-124 -301h-56zM223 608q0 24 17.5 41.5t41.5 17.5t42 -17.5t18 -41.5t-17.5 -41.5t-42.5 -17.5q-24 0 -41.5 17.5t-17.5 41.5zM416 608q0 24 17.5 41.5t42.5 17.5q24 0 41 -17.5t17 -41.5
t-17 -41.5t-41 -17.5q-25 0 -42.5 17.5t-17.5 41.5z" />
    <glyph glyph-name="uni1E9E" unicode="&#x1e9e;" horiz-adv-x="710" 
d="M332 356l141 181q-42 40 -109 40q-83 0 -124.5 -46t-41.5 -146v-385h-132v386q0 151 77 228t219 77q168 0 260 -131l-128 -161q96 -53 134 -101t38 -120q0 -82 -60 -134.5t-156 -52.5q-100 0 -190 56v135q77 -85 179 -85q43 0 69 22t26 55q0 25 -5.5 40t-34 40.5
t-86.5 58.5z" />
    <glyph glyph-name="Ygrave" unicode="&#x1ef2;" horiz-adv-x="647" 
d="M0 682h148l174 -229l176 229h149l-256 -337v-345h-133v344zM156 889h149l83 -156h-75z" />
    <glyph glyph-name="ygrave" unicode="&#x1ef3;" horiz-adv-x="484" 
d="M2 466h129l117 -252l116 252h120l-325 -695h-121l148 315zM107 683h136l72 -157h-72z" />
    <glyph glyph-name="uni2010" unicode="&#x2010;" horiz-adv-x="377" 
d="M54 290h268v-117h-268v117z" />
    <glyph glyph-name="endash" unicode="&#x2013;" horiz-adv-x="500" 
d="M-5 293h510v-88h-510v88z" />
    <glyph glyph-name="emdash" unicode="&#x2014;" horiz-adv-x="1000" 
d="M-5 295h1010v-89h-1010v89z" />
    <glyph glyph-name="uni2015" unicode="&#x2015;" horiz-adv-x="820" 
d="M134 295h552v-89h-552v89z" />
    <glyph glyph-name="underscoredbl" unicode="&#x2017;" horiz-adv-x="500" 
d="M-6 -62h512v-60h-512v60zM-6 -170h512v-60h-512v60z" />
    <glyph glyph-name="quoteleft" unicode="&#x2018;" horiz-adv-x="246" 
d="M134 403q-38 0 -61.5 33.5t-23.5 80.5q0 61 40 109.5t113 64.5v-22q-53 -36 -53 -114q60 -16 60 -75q0 -31 -22 -54t-53 -23z" />
    <glyph glyph-name="quoteright" unicode="&#x2019;" horiz-adv-x="246" 
d="M111 691q39 0 63 -33t24 -80q0 -61 -39.5 -109.5t-113.5 -65.5v23q52 37 52 114q-60 16 -60 74q0 32 21.5 54.5t52.5 22.5z" />
    <glyph glyph-name="quotesinglbase" unicode="&#x201a;" horiz-adv-x="246" 
d="M111 152q39 0 63 -33.5t24 -78.5q0 -62 -40.5 -110.5t-112.5 -64.5v22q51 35 52 114q-60 16 -60 75q0 31 21.5 53.5t52.5 22.5z" />
    <glyph glyph-name="quotereversed" unicode="&#x201b;" horiz-adv-x="246" 
d="M134 691q31 0 53 -22.5t22 -54.5q0 -58 -60 -74q0 -77 52 -114v-23q-74 17 -113.5 65.5t-39.5 109.5q0 47 23.5 80t62.5 33z" />
    <glyph glyph-name="quotedblleft" unicode="&#x201c;" horiz-adv-x="470" 
d="M121 403q-40 0 -63.5 33.5t-23.5 80.5q0 61 40.5 109.5t113.5 64.5v-22q-53 -38 -53 -114q60 -16 60 -75q0 -30 -22 -53.5t-52 -23.5zM359 403q-39 0 -62.5 33.5t-23.5 80.5q0 60 40 109t114 65v-22q-54 -39 -54 -114q60 -16 60 -75q0 -30 -21.5 -53.5t-52.5 -23.5z" />
    <glyph glyph-name="quotedblright" unicode="&#x201d;" horiz-adv-x="470" 
d="M109 691q40 0 63.5 -33.5t23.5 -79.5q0 -61 -40.5 -110t-113.5 -65v23q26 18 38.5 42t14.5 72q-60 16 -60 74q0 31 22 54t52 23zM347 691q40 0 63.5 -33.5t23.5 -79.5q0 -62 -40.5 -110.5t-112.5 -64.5v23q26 19 38.5 43t13.5 71q-60 16 -60 74q0 31 22 54t52 23z" />
    <glyph glyph-name="quotedblbase" unicode="&#x201e;" horiz-adv-x="485" 
d="M116 152q40 0 63 -33t23 -79q0 -62 -40.5 -110.5t-112.5 -64.5v22q53 38 53 114q-60 16 -60 75q0 31 22 53.5t52 22.5zM356 152q39 0 62 -33t23 -79q0 -62 -40.5 -110.5t-112.5 -64.5v22q52 37 52 114q-59 16 -59 75q0 31 21.5 53.5t53.5 22.5z" />
    <glyph glyph-name="dagger" unicode="&#x2020;" horiz-adv-x="510" 
d="M226 691h55q36 0 36 -24q0 -6 -5 -41l-35 -204l134 30q45 8 47 8q24 0 24 -27v-64q0 -34 -20 -34q-11 0 -50 9l-135 31l39 -501q1 -13 2 -29.5t2 -27.5t1 -18q0 -32 -37 -32h-67q-36 0 -36 31q0 3 5 81l41 496l-127 -32q-38 -8 -48 -8q-25 0 -25 27v71q0 27 25 27
q4 0 49 -8l126 -30l-35 206q-4 21 -4 39q0 24 38 24z" />
    <glyph glyph-name="daggerdbl" unicode="&#x2021;" horiz-adv-x="510" 
d="M230 691h48q37 0 37 -23q0 -15 -6 -51l-29 -171l120 28q41 8 53 8q29 0 29 -33v-54q0 -34 -28 -34q-15 0 -55 9l-119 28l29 -169l-29 -170l130 31q35 7 46 7q26 0 26 -33v-54q0 -35 -24 -35q-12 0 -46 6l-132 29l28 -167q8 -48 8 -50q0 -30 -39 -30h-44q-38 0 -38 27
q0 13 6 43l29 177l-136 -29q-33 -6 -47 -6q-19 0 -19 34v57q0 31 21 31q5 0 38 -6l143 -32l-34 170l34 169l-125 -29q-35 -8 -50 -8q-27 0 -27 34v56q0 31 28 31q10 0 39 -6l135 -30l-29 171q-7 42 -7 50q0 24 36 24z" />
    <glyph glyph-name="bullet" unicode="&#x2022;" horiz-adv-x="401" 
d="M337 341q0 -57 -40.5 -97t-96.5 -40t-96 40t-40 97q0 56 40 96.5t96 40.5q57 0 97 -40.5t40 -96.5z" />
    <glyph glyph-name="ellipsis" unicode="&#x2026;" horiz-adv-x="1000" 
d="M241 66q0 -31 -22 -53t-52 -22q-31 0 -53 22t-22 53t22 52.5t53 21.5t52.5 -22t21.5 -52zM574 66q0 -31 -21.5 -53t-52.5 -22t-52.5 22t-21.5 53t22 52.5t52 21.5q31 0 52.5 -22t21.5 -52zM908 66q0 -31 -21.5 -53t-52.5 -22t-53 22t-22 53q0 30 22.5 52t52.5 22
q31 0 52.5 -22t21.5 -52z" />
    <glyph glyph-name="perthousand" unicode="&#x2030;" horiz-adv-x="1063" 
d="M347 536q0 -66 -46 -111.5t-111 -45.5t-111 45.5t-46 111.5t46 111t111 45t111 -45.5t46 -110.5zM546 692h83l-461 -701h-83zM190 459q31 0 52.5 22t21.5 54t-21.5 54.5t-52.5 22.5t-52 -22.5t-21 -54.5t21 -54t52 -22zM676 148q0 -65 -46 -111t-111 -46t-111 46.5
t-46 110.5q0 65 46 110.5t111 45.5t111 -45t46 -111zM519 71q31 0 52.5 22t21.5 54t-22 54.5t-53 22.5t-51.5 -22.5t-20.5 -54.5q0 -31 20.5 -53.5t52.5 -22.5zM1030 148q0 -64 -46 -110.5t-111 -46.5t-111 46t-46 111t46 110.5t111 45.5q64 0 110.5 -45.5t46.5 -110.5z
M872 71q31 0 52.5 22t21.5 54t-22 54.5t-53 22.5t-51.5 -22.5t-20.5 -54.5q0 -31 20.5 -53.5t52.5 -22.5z" />
    <glyph glyph-name="minute" unicode="&#x2032;" horiz-adv-x="222" 
d="M35 428l52 254h123l-98 -254h-77z" />
    <glyph glyph-name="second" unicode="&#x2033;" horiz-adv-x="420" 
d="M35 428l52 254h119l-97 -254h-74zM236 428l52 254h120l-98 -254h-74z" />
    <glyph glyph-name="guilsinglleft" unicode="&#x2039;" horiz-adv-x="325" 
d="M179 462h112l-150 -231l150 -231h-112l-150 231z" />
    <glyph glyph-name="guilsinglright" unicode="&#x203a;" horiz-adv-x="325" 
d="M36 462h111l150 -231l-150 -231h-111l149 231z" />
    <glyph glyph-name="exclamdbl" unicode="&#x203c;" horiz-adv-x="521" 
d="M212 548q0 -140 -43 -298q-12 -44 -27 -44q-16 0 -29 43q-14 57 -29 147t-15 149q0 72 20 109t52 37q71 0 71 -143zM215 66q0 -31 -21 -53t-53 -22q-31 0 -53.5 21.5t-22.5 53.5t22 54t53 22q32 0 53.5 -22.5t21.5 -53.5zM452 548q0 -140 -43 -298q-12 -44 -27 -44
q-16 0 -29 43q-14 57 -29 147t-15 149q0 72 20 109t52 37q71 0 71 -143zM455 66q0 -31 -21 -53t-53 -22q-31 0 -53.5 21.5t-22.5 53.5t22 54t53 22q32 0 53.5 -22.5t21.5 -53.5z" />
    <glyph glyph-name="interrobang" unicode="&#x203d;" horiz-adv-x="429" 
d="M41 570l41 113q46 8 100 8q94 0 152 -37.5t58 -107.5q0 -90 -92 -175q-96 -89 -96 -152q0 -15 6 -23q-53 13 -64 46q-12 33 -28.5 137t-16.5 170v39q-23 -5 -60 -18zM185 140q30 0 52.5 -22t22.5 -52q0 -31 -22 -53t-53 -22t-52.5 21.5t-21.5 52.5t22 53t52 22zM226 547
q0 -57 -10 -130q53 64 53 107q0 48 -44 61q1 -11 1 -38z" />
    <glyph glyph-name="uni203E" unicode="&#x203e;" horiz-adv-x="500" 
d="M-6 803h512v-78h-512v78z" />
    <glyph glyph-name="fraction" unicode="&#x2044;" horiz-adv-x="168" 
d="M273 691h78l-457 -717h-78z" />
    <glyph glyph-name="zero.superior" unicode="&#x2070;" 
d="M168 853q63 0 103 -49.5t40 -131.5t-40.5 -132t-104.5 -50t-104 49t-40 132q0 92 44 137t102 45zM108 671q0 -119 58 -119q27 0 43 32.5t16 86.5q0 58 -16.5 88.5t-43.5 30.5q-26 0 -41.5 -31.5t-15.5 -87.5z" />
    <glyph glyph-name="four.superior" unicode="&#x2074;" 
d="M213 851h52v-200h46v-56h-46v-100h-81v100h-171v42zM184 651v88l-81 -88h81z" />
    <glyph glyph-name="five.superior" unicode="&#x2075;" 
d="M74 847h204v-62h-130l-2 -72q69 0 107.5 -30t38.5 -79q0 -51 -39.5 -82.5t-103.5 -31.5q-57 0 -110 24v68q49 -28 93 -28q32 0 52 14.5t20 37.5q0 26 -23 40.5t-62 15.5q-29 0 -52 -9z" />
    <glyph glyph-name="six.superior" unicode="&#x2076;" 
d="M171 490q-56 0 -98.5 34t-42.5 98q0 136 170 233l60 -44q-82 -44 -116 -106q17 6 39 6q53 0 88.5 -30.5t35.5 -76.5q0 -47 -38.5 -80.5t-97.5 -33.5zM112 610q0 -27 17 -42.5t42 -15.5q24 0 39 14.5t15 37.5q0 24 -16 38t-43 14q-22 0 -38 -11t-16 -35z" />
    <glyph glyph-name="seven.superior" unicode="&#x2077;" 
d="M41 847h287v-5l-183 -352l-80 23l138 267h-162v67z" />
    <glyph glyph-name="eight.superior" unicode="&#x2078;" 
d="M117 749q0 -19 15 -32.5t36 -13.5t35.5 13t14.5 33q0 19 -14 32t-37 13t-36.5 -13t-13.5 -32zM109 597q0 -22 16.5 -35.5t41.5 -13.5q26 0 41.5 14t15.5 36q0 21 -16 34.5t-42 13.5q-25 0 -41 -13.5t-16 -35.5zM169 853q60 0 97 -29t37 -72q0 -49 -50 -77q58 -27 58 -83
q0 -43 -38.5 -72.5t-105.5 -29.5q-66 0 -105.5 30t-39.5 73q0 56 59 82q-49 30 -49 77q0 43 38.5 72t98.5 29z" />
    <glyph glyph-name="nine.superior" unicode="&#x2079;" 
d="M110 739q0 -21 17 -35.5t40 -14.5q12 0 23 3t22 13.5t11 27.5q0 23 -15 41t-43 18q-25 0 -40 -15.5t-15 -37.5zM28 740q0 45 38 79.5t97 34.5q66 0 105 -38.5t39 -95.5q0 -65 -46.5 -128t-125.5 -102l-59 42q84 46 116 108q-24 -7 -41 -7q-55 0 -89 33t-34 74z" />
    <glyph glyph-name="uni207A" unicode="&#x207a;" 
d="M37 638v68h96v101h68v-101h96v-68h-96v-101h-68v101h-96z" />
    <glyph glyph-name="uni207B" unicode="&#x207b;" 
d="M37 636v69h260v-69h-260z" />
    <glyph glyph-name="uni207C" unicode="&#x207c;" 
d="M37 694v69h260v-69h-260zM37 569v68h260v-68h-260z" />
    <glyph glyph-name="uni207D" unicode="&#x207d;" horiz-adv-x="224" 
d="M155 893h61q-43 -54 -62.5 -109.5t-19.5 -127.5q0 -136 82 -235h-61q-108 108 -108 236q0 68 27 123t81 113z" />
    <glyph glyph-name="uni207E" unicode="&#x207e;" horiz-adv-x="224" 
d="M8 893h62q53 -58 80 -113.5t27 -122.5q0 -127 -107 -236h-62q82 97 82 235q0 72 -19.5 127.5t-62.5 109.5z" />
    <glyph glyph-name="n.superior" unicode="&#x207f;" horiz-adv-x="351" 
d="M215 688q45 0 70 -28t25 -79v-176h-86v160q0 53 -44 53q-32 0 -51 -37v-176h-86v277h86v-32q31 38 86 38z" />
    <glyph glyph-name="zero.inferior" unicode="&#x2080;" 
d="M168 193q63 0 103 -49.5t40 -131.5t-40.5 -132t-104.5 -50t-104 49t-40 132q0 92 44 137t102 45zM108 11q0 -118 58 -118q27 0 43 32t16 86q0 59 -16.5 89.5t-43.5 30.5q-26 0 -41.5 -31.5t-15.5 -88.5z" />
    <glyph glyph-name="one.inferior" unicode="&#x2081;" 
d="M176 187h48v-352h-86v229l-48 -38l-41 55z" />
    <glyph glyph-name="two.inferior" unicode="&#x2082;" 
d="M25 -165v10q25 23 85 88q47 50 65 80t18 58q0 25 -16.5 40t-43.5 15q-51 0 -97 -55v84q53 38 112 38q56 0 93.5 -30.5t37.5 -80.5q0 -36 -24 -76t-87 -105h140v-66h-283z" />
    <glyph glyph-name="three.inferior" unicode="&#x2083;" 
d="M146 193q58 0 94 -26.5t36 -70.5q0 -48 -47 -75q54 -25 54 -84q0 -47 -38.5 -77t-95.5 -30q-52 0 -106 23v73q52 -32 95 -32q26 0 41.5 12t15.5 33q0 48 -83 49v58h8q71 0 71 44q0 19 -15.5 31t-42.5 12q-38 0 -79 -23v64q50 19 92 19z" />
    <glyph glyph-name="four.inferior" unicode="&#x2084;" 
d="M213 191h52v-199h46v-56h-46v-101h-81v101h-171v41zM184 -8v88l-81 -88h81z" />
    <glyph glyph-name="five.inferior" unicode="&#x2085;" 
d="M74 187h204v-62h-130l-2 -72q69 0 107.5 -30t38.5 -78q0 -51 -39.5 -83t-103.5 -32q-57 0 -110 24v68q49 -28 93 -28q32 0 52 15t20 38q0 25 -23 39.5t-62 15.5q-28 0 -52 -8z" />
    <glyph glyph-name="six.inferior" unicode="&#x2086;" 
d="M171 -170q-56 0 -98.5 34t-42.5 99q0 64 43.5 124.5t126.5 107.5l60 -44q-81 -42 -116 -106q17 6 39 6q53 0 88.5 -30.5t35.5 -76.5q0 -47 -38.5 -80.5t-97.5 -33.5zM112 -49q0 -27 17 -43t42 -16q24 0 39 15t15 37q0 24 -16 38t-43 14q-22 0 -38 -10.5t-16 -34.5z" />
    <glyph glyph-name="seven.inferior" unicode="&#x2087;" 
d="M41 188h286v-4l-182 -353l-80 22l138 268h-162v67z" />
    <glyph glyph-name="eight.inferior" unicode="&#x2088;" 
d="M117 89q0 -19 15 -32.5t36 -13.5t35.5 13t14.5 33q0 19 -14 32t-37 13t-36.5 -13t-13.5 -32zM109 -62q0 -23 16.5 -36.5t41.5 -13.5t41 14t16 36q0 21 -15.5 34.5t-42.5 13.5q-25 0 -41 -13.5t-16 -34.5zM169 193q60 0 97 -29t37 -72q0 -49 -50 -77q58 -27 58 -83
q0 -43 -38.5 -72.5t-105.5 -29.5q-66 0 -105.5 30t-39.5 73q0 56 59 82q-49 30 -49 77q0 43 38.5 72t98.5 29z" />
    <glyph glyph-name="nine.inferior" unicode="&#x2089;" 
d="M110 80q0 -22 17 -36.5t40 -14.5q20 0 38 10t18 35q0 23 -15 40.5t-43 17.5q-25 0 -40 -15t-15 -37zM28 81q0 44 38 78.5t97 34.5q66 0 105 -38t39 -95q0 -65 -47 -129t-125 -102l-59 42q85 46 116 109q-20 -7 -41 -7q-55 0 -89 32.5t-34 74.5z" />
    <glyph glyph-name="uni208A" unicode="&#x208a;" 
d="M37 -13v68h96v101h68v-101h96v-68h-96v-101h-68v101h-96z" />
    <glyph glyph-name="uni208B" unicode="&#x208b;" 
d="M37 -14v69h260v-69h-260z" />
    <glyph glyph-name="uni208C" unicode="&#x208c;" 
d="M37 44v69h260v-69h-260zM37 -81v68h260v-68h-260z" />
    <glyph glyph-name="uni208D" unicode="&#x208d;" horiz-adv-x="224" 
d="M155 243h61q-43 -54 -62.5 -109.5t-19.5 -127.5q0 -136 82 -235h-61q-108 108 -108 236q0 68 27 123t81 113z" />
    <glyph glyph-name="uni208E" unicode="&#x208e;" horiz-adv-x="224" 
d="M8 243h62q53 -58 80 -113.5t27 -122.5q0 -127 -107 -236h-62q82 97 82 235q0 72 -19.5 127.5t-62.5 109.5z" />
    <glyph glyph-name="uni20A0" unicode="&#x20a0;" horiz-adv-x="668" 
d="M340 456h285v-85h-180v-100h173v-81h-173v-105h185v-85h-290v235q-41 -11 -81 -11q-100 0 -162.5 64.5t-62.5 167.5q0 105 64.5 170t169.5 65q76 0 139 -28v-104q-59 39 -132 39q-66 0 -99 -40.5t-33 -102.5q0 -66 35 -102t95 -36q34 0 67 15v124z" />
    <glyph glyph-name="colonmonetary" unicode="&#x20a1;" horiz-adv-x="530" 
d="M164 -78l14 108q-143 82 -143 312q0 126 56 220.5t166 119.5l8 64h62l-7 -56q1 0 5 0.5t6 0.5q27 0 48 -4l8 59h61l-8 -70q27 -7 62 -21l-23 -105q-40 18 -52 22l-60 -475q70 9 133 63v-119q-60 -43 -145 -49l-8 -70h-62l9 71q-30 3 -59 12l-9 -83h-62zM249 117
q25 -16 57 -20l61 488q-17 3 -33 3q-14 0 -26 -3zM160 341q0 -103 35 -165l48 386q-83 -58 -83 -221z" />
    <glyph glyph-name="uni20A2" unicode="&#x20a2;" horiz-adv-x="530" 
d="M450 465q36 0 68 -43l-35 -113q-25 42 -51 42q-25 0 -44.5 -36t-27.5 -93v-122q50 10 113 45v-109q-74 -42 -156 -42q-134 0 -208.5 90t-74.5 252q0 160 75.5 257.5t211.5 97.5q86 0 157 -36l-23 -106q-58 38 -130 38q-85 0 -129.5 -66.5t-44.5 -179.5q0 -183 97 -226
v341h112v-95q37 104 90 104z" />
    <glyph glyph-name="franc" unicode="&#x20a3;" horiz-adv-x="530" 
d="M371 126h-153v-126h-124v126h-82v87h82v469h384v-101h-260v-170h260v-101h-260v-97h153v-87z" />
    <glyph glyph-name="lira" unicode="&#x20a4;" horiz-adv-x="530" 
d="M46 432h126q86 259 249 259q13 0 41 -5l61 -120q-24 15 -74 15q-95 0 -150 -149h86v-75h-111l-19 -67h130v-75h-149l-27 -100q26 4 45 4q46 0 93 -8.5t71 -8.5q53 0 90 21v-115q-49 -17 -96 -17q-54 0 -105 8.5t-85 8.5q-88 0 -169 -17l59 224h-66v75h85l19 67h-104v75z
" />
    <glyph glyph-name="uni20A5" unicode="&#x20a5;" horiz-adv-x="846" 
d="M597 632l-81 -182q41 25 89 25q74 0 112.5 -47t38.5 -135v-293h-116v281q0 47 -20 72.5t-57 25.5q-57 0 -96 -58v-321h-116v91l-125 -280h-63l188 420v55q0 94 -77 94q-57 0 -96 -59v-321h-116v466h116v-60q60 69 139 69q80 0 120 -59l98 216h62z" />
    <glyph glyph-name="uni20A6" unicode="&#x20a6;" horiz-adv-x="632" 
d="M622 319v-75h-66v-244h-111l-130 244h-124v-244h-115v244h-66v75h66v67h-66v75h66v221h113l122 -221h130v221h115v-221h66v-75h-66v-67h66zM353 386l37 -67h51v67h-88zM191 386v-67h84l-36 67h-48zM432 244l9 -16v16h-9zM191 476v-15h8z" />
    <glyph glyph-name="peseta" unicode="&#x20a7;" horiz-adv-x="1191" 
d="M74 682h165q107 0 168 -48.5t66 -133.5q2 -23 -1 -40h51v98l116 53v-152h137v-93h-137v-193q0 -40 12 -61.5t46 -21.5q43 0 93 33v-97q-58 -35 -124 -35q-73 0 -108.5 42t-35.5 132v201h-82q-58 -83 -206 -83h-36v-283h-124v682zM824 347q0 55 44 91.5t115 36.5
q77 0 145 -39v-99q-77 48 -131 48t-54 -33q0 -17 15 -31t71 -44q58 -31 90.5 -65t32.5 -84q0 -55 -42.5 -96t-124.5 -41q-84 0 -161 35v103q70 -49 142 -49q33 0 50 11.5t17 27.5q0 20 -17 34.5t-83 52.5q-56 29 -82.5 62.5t-26.5 78.5zM198 582v-198h19q71 0 100.5 25
t29.5 74q0 51 -30.5 75t-101.5 24h-17z" />
    <glyph glyph-name="uni20A8" unicode="&#x20a8;" horiz-adv-x="908" 
d="M474 486q0 -140 -134 -173q25 -11 48.5 -39t53.5 -85l98 -189h-143l-81 162q-38 77 -61.5 101t-51.5 24h-5v-287h-124v682h165q113 0 174 -49t61 -147zM540 347q0 55 41.5 91.5t117.5 36.5q77 0 146 -39v-99q-69 48 -132 48q-27 0 -40.5 -9.5t-13.5 -23.5q0 -17 15 -31
t72 -44q58 -30 90 -64.5t32 -84.5q0 -63 -43.5 -100t-122.5 -37q-86 0 -161 35v103q69 -49 141 -49q33 0 50 11t17 25q0 21 -17.5 37t-82.5 53q-109 58 -109 141zM198 582v-198h25q67 0 95.5 25t28.5 74q0 51 -29 75t-95 24h-25z" />
    <glyph glyph-name="uni20A9" unicode="&#x20a9;" horiz-adv-x="689" 
d="M682 319v-75h-84l-52 -253h-117l-45 253h-84l-46 -253h-117l-50 253h-80v75h65l-14 67h-51v75h36l-43 221h131l35 -221h80l42 221h113l39 -221h81l37 221h131l-46 -221h39v-75h-54l-14 -67h68zM327 386l-13 -67h57l-12 67h-32zM454 386l12 -67h31l11 67h-54zM178 386
l11 -67h29l13 67h-53zM481 236h2l1 8h-5zM342 469l-2 -8h5l-1 8h-2zM202 243h2v1h-2v-1z" />
    <glyph glyph-name="shekel" unicode="&#x20aa;" horiz-adv-x="733" 
d="M62 466h262q184 0 184 -180v-130h-110v132q0 43 -23 63t-61 20h-142v-371h-110v466zM230 0h262q184 0 184 180v286h-110v-285q0 -87 -86 -87h-140v216h-110v-310z" />
    <glyph glyph-name="dong" unicode="&#x20ab;" horiz-adv-x="530" 
d="M352 682h117v-76h64v-62h-64v-544h-182q-134 0 -193 62.5t-59 178.5q0 102 61 168t155 66q53 0 101 -25v94h-105v62h105v76zM156 240q0 -77 32.5 -111.5t113.5 -34.5h50v264q-37 23 -79 23q-53 0 -85 -38.5t-32 -102.5zM72 -67h397v-83h-397v83z" />
    <glyph glyph-name="Euro" unicode="&#x20ac;" horiz-adv-x="614" 
d="M403 691q89 0 180 -36l-23 -109q-84 38 -150 38q-127 0 -168 -137h279l-13 -76h-279q-1 -10 -1 -30q0 -22 1 -32h271l-13 -74h-246q39 -136 166 -136q94 0 174 65v-123q-75 -50 -186 -50t-186 63.5t-101 180.5h-77l13 74h57q-1 10 -1 33q0 24 1 29h-70l13 76h66
q27 114 104.5 179t188.5 65z" />
    <glyph glyph-name="uni20AD" unicode="&#x20ad;" horiz-adv-x="530" 
d="M458 305h-124l196 -305h-140l-185 305h-18v-305h-123v305h-64v87h64v290h123v-290h18l187 290h134l-196 -290h128v-87z" />
    <glyph glyph-name="uni20AE" unicode="&#x20ae;" horiz-adv-x="530" 
d="M205 405v172h-193v105h507v-105h-193v-127l134 52v-85l-134 -53v-81l134 53v-86l-134 -52v-198h-121v153l-135 -52v85l135 52v81l-135 -52v85z" />
    <glyph glyph-name="uni20AF" unicode="&#x20af;" horiz-adv-x="1142" 
d="M587 -199l92 427q52 246 243 246q83 0 133.5 -52t50.5 -148q0 -116 -71.5 -201t-190.5 -85q-59 0 -98 23l-44 -210h-115zM986 279q0 47 -19 73t-51 26q-45 0 -74 -37t-48 -121l-26 -118q24 -17 73 -17q63 0 104 58t41 136zM74 554v104q72 29 171 34q37 79 104 128l67 -70
q-31 -24 -52 -62q125 -16 198 -97t73 -205q0 -175 -123 -280.5t-344 -105.5h-184v78q29 11 50.5 28t46.5 51.5t46 97t38 152.5q17 97 44 187q-70 -10 -135 -40zM504 386q0 96 -45.5 148t-128.5 58q-10 -32 -41 -196q-23 -127 -53 -193.5t-72 -105.5q163 0 251.5 78.5
t88.5 210.5z" />
    <glyph glyph-name="uni20B0" unicode="&#x20b0;" horiz-adv-x="530" 
d="M210 316l35 39q-57 48 -84 90t-27 91q0 66 45 110.5t126 44.5q79 0 123 -42.5t44 -109.5q0 -77 -72 -158q110 -94 110 -196q0 -90 -64 -142.5t-180 -52.5q-80 0 -150 35v116q62 -50 143 -50q126 0 126 94q0 56 -62 110l-112 -118l-80 82l-56 -77l-77 64l123 164zM251 537
q0 -45 70 -98q40 44 40 98q0 26 -14 42.5t-39 16.5q-27 0 -42 -17t-15 -42z" />
    <glyph glyph-name="uni20B1" unicode="&#x20b1;" horiz-adv-x="530" 
d="M0 551h64v131h185q82 0 138 -34t79 -97h64v-67h-49q1 -9 1 -29q0 -22 -1 -32h49v-66h-65q-48 -129 -221 -129h-54v-228h-126v357h-64v66h64v61h-64v67zM357 456q0 10 -2 28h-165v-61h165q2 20 2 33zM190 593v-42h142q-28 42 -103 42h-39zM232 317q70 0 99 40h-141v-40h42
z" />
    <glyph glyph-name="uni20B2" unicode="&#x20b2;" horiz-adv-x="630" 
d="M383 746v-58q86 -3 168 -41v-108q-78 38 -168 42v-232h184v-316q-79 -34 -184 -38v-73h-83v73q-121 19 -189 115t-68 238q0 143 69 232t188 107v59h83zM169 343q0 -91 35 -155t96 -83v472q-63 -15 -97 -75t-34 -159zM450 249h-67v-148q32 1 67 8v140z" />
    <glyph glyph-name="uni20B3" unicode="&#x20b3;" horiz-adv-x="530" 
d="M520 202v-74h-32l37 -128h-128l-34 128h-196l-34 -128h-127l36 128h-32v74h53l20 68h-73v75h93l96 337h136l93 -337h92v-75h-71l19 -68h52zM204 270l-18 -68h159l-18 68h-123zM266 507l-43 -162h85z" />
    <glyph glyph-name="uni20B4" unicode="&#x20b4;" horiz-adv-x="536" 
d="M20 236v77h96q15 15 81 58h-177v77h294q37 32 37 67q0 33 -25.5 53.5t-71.5 20.5q-91 0 -173 -70v121q81 51 181 51q103 0 158.5 -49t55.5 -128q0 -36 -18 -66h58v-77h-121q-27 -22 -85 -58h206v-77h-309q-26 -25 -26 -63q0 -33 26 -55.5t75 -22.5q43 0 94.5 21.5
t94.5 59.5v-125q-96 -60 -205 -60q-100 0 -156.5 52t-56.5 134q0 31 13 59h-46z" />
    <glyph glyph-name="uni20B5" unicode="&#x20b5;" horiz-adv-x="530" 
d="M367 746v-57q64 -6 121 -34l-23 -109q-48 30 -98 36v-479q49 6 115 45v-112q-54 -33 -115 -39v-75h-82v74q-115 14 -178.5 103t-63.5 237q0 145 63 239.5t179 111.5v59h82zM169 341q0 -200 116 -233v467q-58 -18 -87 -79.5t-29 -154.5z" />
    <glyph glyph-name="uni20B9" unicode="&#x20b9;" horiz-adv-x="530" 
d="M68 286v81h86q107 0 123 82h-209v74h208q-18 85 -125 85h-83v74h433v-74h-137q28 -34 36 -85h101v-74h-101q-16 -112 -149 -146q31 -14 53.5 -38.5t55.5 -87.5l92 -177h-139l-80 161q-37 74 -70 99.5t-73 25.5h-22z" />
    <glyph glyph-name="uni20BA" unicode="&#x20ba;" horiz-adv-x="530" 
d="M363 462v-86l-143 -82v-188h16q73 0 105 55t32 169h129q0 -160 -68 -245t-197 -85h-141v232l-78 -44v85l78 44v81l-78 -44v85l78 44v199h124v-136l143 82v-85l-143 -82v-81z" />
    <glyph glyph-name="uni20BC" unicode="&#x20bc;" horiz-adv-x="720" 
d="M421 682v-115q134 -21 196.5 -154.5t62.5 -412.5h-124q0 220 -29.5 331t-105.5 133v-366h-121v366q-77 -23 -106 -132t-29 -332h-124q0 275 64.5 408t194.5 159v115h121z" />
    <glyph glyph-name="uni20BD" unicode="&#x20bd;" horiz-adv-x="530" 
d="M16 362h66v320h182q110 0 172.5 -55t62.5 -153q0 -100 -61.5 -151t-174.5 -51h-58v-59h160v-90h-160v-123h-123v123h-66v90h66v59h-66v90zM205 591v-229h44q68 0 94.5 29.5t26.5 84.5q0 56 -30 85.5t-98 29.5h-37z" />
    <glyph glyph-name="uni2105" unicode="&#x2105;" horiz-adv-x="708" 
d="M192 691q50 0 96 -18v-79q-45 22 -83 22t-58.5 -22.5t-20.5 -57.5q0 -33 18.5 -57t60.5 -24q41 0 83 25v-77q-53 -22 -96 -22q-76 0 -117.5 43t-41.5 107q0 72 44 116t115 44zM525 692h83l-462 -701h-83zM674 147q0 -68 -46 -111.5t-118 -43.5q-76 0 -119.5 44t-43.5 111
t45.5 111t117.5 44t118 -44t46 -111zM510 66q32 0 52.5 21.5t20.5 60.5t-20 59.5t-53 20.5q-32 0 -52 -21.5t-20 -58.5q0 -38 19.5 -60t52.5 -22z" />
    <glyph glyph-name="uni2113" unicode="&#x2113;" horiz-adv-x="530" 
d="M44 192l103 92v216q0 193 166 193q69 0 106 -35t37 -98q0 -68 -43 -136t-148 -152v-109q0 -45 14 -66.5t49 -21.5q55 0 115 58l37 -71q-90 -73 -185 -73q-76 0 -111 35t-35 109v65l-63 -58zM265 517v-156q105 106 105 194q0 64 -50 64q-55 0 -55 -102z" />
    <glyph glyph-name="uni2116" unicode="&#x2116;" horiz-adv-x="1135" 
d="M74 0v682h110l379 -481v309q0 93 39 132.5t130 39.5h53v-103h-37q-31 0 -45 -16.5t-14 -52.5v-510h-113l-376 477v-477h-126zM765 344q0 70 49.5 117.5t122.5 47.5q74 0 123.5 -47.5t49.5 -117.5t-49 -117.5t-123 -47.5q-73 0 -123 47t-50 118zM857 344q0 -34 23.5 -58
t57.5 -24q33 0 56 23.5t23 58.5t-22.5 58.5t-56.5 23.5t-57.5 -23.5t-23.5 -58.5zM777 44v75h327v-75h-327z" />
    <glyph glyph-name="published" unicode="&#x2117;" horiz-adv-x="795" 
d="M55 347q0 146 104 251t253 105q147 0 251 -104t104 -252q0 -145 -103 -249.5t-251 -104.5q-146 0 -252 103t-106 251zM98 347q0 -130 92.5 -221t222.5 -91t220.5 92t90.5 221q0 130 -91.5 221.5t-219.5 91.5q-130 0 -222.5 -92t-92.5 -222zM275 152v396h172
q66 0 104.5 -34t38.5 -94q0 -59 -37.5 -95.5t-106.5 -36.5h-81v-136h-90zM365 358h47q82 0 82 61q0 59 -79 59h-50v-120z" />
    <glyph glyph-name="trademark" unicode="&#x2122;" horiz-adv-x="937" 
d="M170 290v324h-138v68h356v-68h-137v-324h-81zM446 290v392h119l90 -266l89 266h118v-392h-77v302l-100 -302h-63l-98 302v-302h-78z" />
    <glyph glyph-name="Omega" unicode="&#x2126;" horiz-adv-x="786" 
d="M54 0v108h149q-87 63 -123 129.5t-36 155.5q0 131 95 214.5t254 83.5q160 0 254.5 -84.5t94.5 -213.5q0 -90 -36 -156t-124 -129h150v-108h-281v106q86 58 121.5 122.5t35.5 146.5q0 90 -56.5 145t-160.5 55q-100 0 -156.5 -56t-56.5 -142q0 -82 36 -148.5t119 -122.5
v-106h-279z" />
    <glyph glyph-name="estimated" unicode="&#x212e;" horiz-adv-x="830" 
d="M415 671q156 0 267 -99.5t111 -247.5h-608q-10 0 -10 -11v-197q47 -51 110 -78.5t130 -27.5q73 0 139 32.5t113 88.5h57q-56 -68 -138 -105t-171 -37q-100 0 -186 42.5t-139.5 121.5t-53.5 177q0 145 110.5 243t268.5 98zM415 650q-70 0 -133 -28.5t-107 -78.5v-185
q0 -11 10 -11h461q9 0 9 11v184q-44 51 -108 79.5t-132 28.5z" />
    <glyph glyph-name="onethird" unicode="&#x2153;" horiz-adv-x="793" 
d="M176 682h48v-352h-86v229l-48 -38l-41 55zM566 691h78l-457 -717h-78zM605 358q58 0 94 -26.5t36 -70.5q0 -48 -47 -75q54 -25 54 -84q0 -47 -38.5 -77t-95.5 -30q-52 0 -106 23v73q52 -32 95 -32q26 0 41.5 12t15.5 33q0 48 -83 49v58h8q71 0 71 44q0 19 -15.5 31
t-42.5 12q-38 0 -79 -23v64q50 19 92 19z" />
    <glyph glyph-name="twothirds" unicode="&#x2154;" horiz-adv-x="793" 
d="M591 691h78l-457 -717h-78zM605 358q58 0 94 -26.5t36 -70.5q0 -48 -47 -75q54 -25 54 -84q0 -47 -38.5 -77t-95.5 -30q-52 0 -106 23v73q52 -32 95 -32q26 0 41.5 12t15.5 33q0 48 -83 49v58h8q71 0 71 44q0 19 -15.5 31t-42.5 12q-38 0 -79 -23v64q50 19 92 19zM25 330
v10q20 19 85 87q47 51 65 80.5t18 57.5q0 26 -16.5 41t-43.5 15q-51 0 -97 -55v84q55 38 112 38q56 0 93.5 -30.5t37.5 -80.5q0 -37 -23.5 -76.5t-87.5 -105.5h140v-65h-283z" />
    <glyph glyph-name="oneeighth" unicode="&#x215b;" horiz-adv-x="793" 
d="M176 682h48v-352h-86v229l-48 -38l-41 55zM566 691h78l-457 -717h-78zM576 254q0 -19 15 -32.5t36 -13.5t35.5 13t14.5 33q0 19 -14 32t-37 13t-36.5 -13t-13.5 -32zM568 103q0 -23 16.5 -36.5t41.5 -13.5t41 14t16 36q0 21 -15.5 34.5t-42.5 13.5q-25 0 -41 -13.5
t-16 -34.5zM628 358q60 0 97 -29t37 -72q0 -49 -50 -77q58 -27 58 -83q0 -43 -38.5 -72.5t-105.5 -29.5q-66 0 -105.5 30t-39.5 73q0 56 59 82q-49 30 -49 77q0 43 38.5 72t98.5 29z" />
    <glyph glyph-name="threeeighths" unicode="&#x215c;" horiz-adv-x="793" 
d="M568 691h78l-457 -717h-78zM576 254q0 -19 15 -32.5t36 -13.5t35.5 13t14.5 33q0 19 -14 32t-37 13t-36.5 -13t-13.5 -32zM568 103q0 -23 16.5 -36.5t41.5 -13.5t41 14t16 36q0 21 -15.5 34.5t-42.5 13.5q-25 0 -41 -13.5t-16 -34.5zM628 358q60 0 97 -29t37 -72
q0 -49 -50 -77q58 -27 58 -83q0 -43 -38.5 -72.5t-105.5 -29.5q-66 0 -105.5 30t-39.5 73q0 56 59 82q-49 30 -49 77q0 43 38.5 72t98.5 29zM146 688q58 0 94 -26.5t36 -70.5q0 -49 -47 -75q54 -25 54 -84q0 -47 -38.5 -77t-95.5 -30q-52 0 -106 23v73q49 -32 95 -32
q26 0 41.5 11.5t15.5 32.5q0 25 -19 37t-64 13v57h8q71 0 71 45q0 18 -16 30.5t-42 12.5q-38 0 -79 -23v64q50 19 92 19z" />
    <glyph glyph-name="fiveeighths" unicode="&#x215d;" horiz-adv-x="793" 
d="M574 691h78l-457 -717h-78zM576 254q0 -19 15 -32.5t36 -13.5t35.5 13t14.5 33q0 19 -14 32t-37 13t-36.5 -13t-13.5 -32zM568 103q0 -23 16.5 -36.5t41.5 -13.5t41 14t16 36q0 21 -15.5 34.5t-42.5 13.5q-25 0 -41 -13.5t-16 -34.5zM628 358q60 0 97 -29t37 -72
q0 -49 -50 -77q58 -27 58 -83q0 -43 -38.5 -72.5t-105.5 -29.5q-66 0 -105.5 30t-39.5 73q0 56 59 82q-49 30 -49 77q0 43 38.5 72t98.5 29zM74 682h204v-62h-130l-2 -72q69 0 107.5 -30t38.5 -79q0 -51 -39.5 -82.5t-103.5 -31.5q-57 0 -110 24v68q49 -28 93 -28
q32 0 52 14.5t20 37.5q0 26 -23 40.5t-62 15.5q-29 0 -52 -9z" />
    <glyph glyph-name="seveneighths" unicode="&#x215e;" horiz-adv-x="793" 
d="M549 691h78l-457 -717h-78zM576 254q0 -19 15 -32.5t36 -13.5t35.5 13t14.5 33q0 19 -14 32t-37 13t-36.5 -13t-13.5 -32zM568 103q0 -23 16.5 -36.5t41.5 -13.5t41 14t16 36q0 21 -15.5 34.5t-42.5 13.5q-25 0 -41 -13.5t-16 -34.5zM628 358q60 0 97 -29t37 -72
q0 -49 -50 -77q58 -27 58 -83q0 -43 -38.5 -72.5t-105.5 -29.5q-66 0 -105.5 30t-39.5 73q0 56 59 82q-49 30 -49 77q0 43 38.5 72t98.5 29zM41 682h287v-5l-183 -352l-80 23l138 267h-162v67z" />
    <glyph glyph-name="uni2166" unicode="&#x2166;" horiz-adv-x="1207" 
d="M0 682h135l190 -452l188 452h134l-293 -688h-58zM721 682h132v-682h-132v682zM1001 682h132v-682h-132v682z" />
    <glyph glyph-name="arrowleft" unicode="&#x2190;" horiz-adv-x="1000" 
d="M332 77h-38q-57 64 -102 100q-42 33 -99 64v23q57 29 98 63q45 36 103 101h38q-22 -46 -39 -72q-15 -26 -43 -61h657v-86h-657q23 -28 43 -59q15 -23 39 -73z" />
    <glyph glyph-name="arrowup" unicode="&#x2191;" horiz-adv-x="500" 
d="M75 575v37q64 58 100 102q34 43 64 100h22q31 -59 64 -99q36 -44 101 -103v-37q-41 19 -73 38q-29 19 -60 43v-656h-85v656q-34 -26 -60 -42q-23 -15 -73 -39z" />
    <glyph glyph-name="arrowright" unicode="&#x2192;" horiz-adv-x="1000" 
d="M668 428h37q62 -68 102 -101q43 -34 100 -64v-22q-59 -31 -99 -64q-42 -33 -103 -100h-37q25 53 38 72q19 29 43 60h-656v86h656q-34 45 -43 60q-11 16 -38 73z" />
    <glyph glyph-name="arrowdown" unicode="&#x2193;" horiz-adv-x="500" 
d="M425 239v-37q-66 -60 -100 -103q-33 -40 -64 -99h-22q-31 59 -64 99q-36 44 -101 103v37q46 -22 73 -39q25 -15 60 -42v656h85v-656q34 26 60 42q23 15 73 39z" />
    <glyph glyph-name="arrowboth" unicode="&#x2194;" horiz-adv-x="1000" 
d="M250 295h499q-30 38 -43 59q-11 17 -38 74h37q62 -68 102 -101q43 -34 100 -64v-22q-59 -31 -99 -64q-42 -33 -103 -100h-37q25 51 37 72q20 31 44 60h-499q23 -28 43 -59q15 -23 39 -73h-38q-57 64 -102 100q-42 33 -99 64v23q57 29 98 63q45 36 103 101h38
q-22 -46 -39 -72q-15 -26 -43 -61z" />
    <glyph glyph-name="arrowupdn" unicode="&#x2195;" horiz-adv-x="500" 
d="M293 656v-498q30 24 59 42q25 15 74 39v-37q-68 -60 -101 -102q-34 -43 -64 -100h-22q-31 59 -64 99q-34 43 -100 103v37q42 -20 72 -38q26 -15 61 -43v498q-31 -24 -60 -43q-16 -11 -73 -38v37q64 57 100 102q34 43 64 100h22q30 -57 64 -100q37 -45 101 -102v-37
q-50 23 -73 37q-31 20 -60 44z" />
    <glyph glyph-name="arrowupdnbse" unicode="&#x21a8;" horiz-adv-x="500" 
d="M292 656v-498q34 26 60 42q23 15 73 39v-37q-64 -57 -100 -102q-34 -43 -64 -100h-22q-31 59 -64 99q-36 45 -101 103v37q42 -20 72 -38q26 -15 61 -43v498q-31 -24 -60 -43q-16 -11 -73 -38v37q64 57 100 102q37 46 65 100h22q29 -55 63 -100q37 -45 101 -102v-37
q-51 25 -72 37q-30 19 -61 44zM74 -121v85h351v-85h-351z" />
    <glyph glyph-name="partialdiff" unicode="&#x2202;" horiz-adv-x="565" 
d="M232 86q56 0 99.5 65t65.5 180q-28 74 -95 74q-58 0 -102 -64.5t-44 -160.5q0 -94 76 -94zM198 609l-25 86q58 36 137 36q103 0 160.5 -68.5t57.5 -192.5q0 -129 -37 -238t-106 -175.5t-157 -66.5q-91 0 -140 53.5t-49 143.5q0 141 75.5 224.5t172.5 83.5q40 0 73.5 -18
t50.5 -49q3 22 3 64q0 66 -30.5 105t-86.5 39q-52 0 -99 -27z" />
    <glyph glyph-name="Delta" unicode="&#x2206;" horiz-adv-x="713" 
d="M0 0l300 686h114l299 -686h-713zM179 107h353l-176 418z" />
    <glyph glyph-name="product" unicode="&#x220f;" horiz-adv-x="727" 
d="M76 -231v915h575v-915h-118v816h-339v-816h-118z" />
    <glyph glyph-name="summation" unicode="&#x2211;" horiz-adv-x="645" 
d="M23 -231v59l295 411l-275 380v63h538v-99h-370l248 -342l-265 -373h409v-99h-580z" />
    <glyph glyph-name="minus" unicode="&#x2212;" horiz-adv-x="564" 
d="M45 292v105h474v-105h-474z" />
    <glyph glyph-name="uni2215" unicode="&#x2215;" horiz-adv-x="168" 
d="M273 691h78l-457 -717h-78z" />
    <glyph glyph-name="uni2219" unicode="&#x2219;" horiz-adv-x="239" 
d="M119 420q30 0 52 -21.5t22 -51.5t-21.5 -52.5t-52.5 -22.5q-30 0 -52 21.5t-22 52.5q0 32 22 53t52 21z" />
    <glyph glyph-name="radical" unicode="&#x221a;" horiz-adv-x="478" 
d="M406 730h85l-161 -742h-103l-113 308l-51 -33l-41 64l146 98l109 -297z" />
    <glyph glyph-name="infinity" unicode="&#x221e;" horiz-adv-x="737" 
d="M202 464q99 0 165 -97h2q66 97 165 97q72 0 120.5 -48t48.5 -121q0 -75 -48 -125t-119 -50q-102 0 -167 97h-2q-70 -97 -164 -97q-73 0 -121 48t-48 125q0 74 49 122.5t119 48.5zM415 293q46 -86 111 -86q36 0 58 24t22 63q0 37 -21.5 60.5t-58.5 23.5q-60 0 -111 -85z
M131 292q0 -37 22.5 -61t56.5 -24q60 0 111 86q-51 85 -112 85q-35 0 -56.5 -24t-21.5 -62z" />
    <glyph glyph-name="orthogonal" unicode="&#x221f;" horiz-adv-x="1000" 
d="M940 0h-880v814h66v-748h814v-66z" />
    <glyph glyph-name="intersection" unicode="&#x2229;" horiz-adv-x="719" 
d="M642 287v-287h-71v291q0 117 -6 163q-4 46 -31 93q-51 95 -175 95q-133 0 -183 -110q-22 -50 -25 -102q-2 -68 -2 -139v-291h-72v287q0 120 5 170q4 44 24 91q32 74 99.5 119.5t154.5 45.5q132 0 209 -91q37 -44 53 -96t18 -102q2 -66 2 -137z" />
    <glyph glyph-name="integral" unicode="&#x222b;" horiz-adv-x="471" 
d="M357 751q54 0 81 -16l-24 -88q-22 8 -45 8q-64 0 -64 -81v-613q0 -89 -42.5 -139t-122.5 -50q-50 0 -82 14q12 56 22 89q23 -7 44 -7q64 0 64 80v612q0 89 43.5 140t125.5 51z" />
    <glyph glyph-name="approxequal" unicode="&#x2248;" horiz-adv-x="564" 
d="M44 359v115q67 66 135 66q41 0 112 -37.5t103 -37.5q30 0 58 17.5t68 59.5v-115q-69 -66 -132 -66q-42 0 -114 37.5t-100 37.5q-61 0 -130 -77zM44 141v115q67 66 135 66q41 0 112 -37.5t103 -37.5q30 0 58.5 17t67.5 59v-115q-69 -66 -132 -66q-42 0 -114 38t-100 38
q-59 0 -130 -77z" />
    <glyph glyph-name="notequal" unicode="&#x2260;" horiz-adv-x="564" 
d="M87 44l57 121h-99v105h143l68 145h-211v105h256l55 119h114l-55 -119h104v-105h-150l-67 -145h217v-105h-261l-57 -121h-114z" />
    <glyph glyph-name="equivalence" unicode="&#x2261;" horiz-adv-x="564" 
d="M45 122v102h474v-102h-474zM45 294v102h474v-102h-474zM45 466v102h474v-102h-474z" />
    <glyph glyph-name="lessequal" unicode="&#x2264;" horiz-adv-x="564" 
d="M44 354v71l476 196v-110l-310 -121l310 -123v-110zM44 0v105h476v-105h-476z" />
    <glyph glyph-name="greaterequal" unicode="&#x2265;" horiz-adv-x="564" 
d="M520 425v-71l-476 -197v110l310 123l-310 121v110zM520 105v-105h-476v105h476z" />
    <glyph glyph-name="house" unicode="&#x2302;" horiz-adv-x="600" 
d="M525 0h-450v310l225 253l225 -253v-310zM114 293v-253h372v253l-186 208z" />
    <glyph glyph-name="revlogicalnot" unicode="&#x2310;" horiz-adv-x="564" 
d="M520 502v-105h-366v-209h-107v314h473z" />
    <glyph glyph-name="integraltp" unicode="&#x2320;" horiz-adv-x="604" 
d="M337 -186h-70v785q0 109 43 161q44 54 99 54q31 0 49.5 -15.5t18.5 -37.5q0 -18 -12.5 -31.5t-30.5 -13.5q-30 0 -49 30q-11 18 -22 18q-15 0 -21 -13q-5 -15 -5 -74v-863z" />
    <glyph glyph-name="integralbt" unicode="&#x2321;" horiz-adv-x="604" 
d="M337 814v-785q0 -107 -43 -160q-42 -55 -99 -55q-32 0 -50 15.5t-18 37.5q0 19 13 32t30 13q29 0 49 -31q11 -17 22 -17q16 0 20 13q6 14 6 74v863h70z" />
    <glyph glyph-name="SF100000" unicode="&#x2500;" horiz-adv-x="708" 
d="M709 270h-709v88h709v-88z" />
    <glyph glyph-name="SF110000" unicode="&#x2502;" horiz-adv-x="708" 
d="M398 -186h-88v1000h88v-1000z" />
    <glyph glyph-name="SF010000" unicode="&#x250c;" horiz-adv-x="708" 
d="M398 -186h-88v544h399v-88h-311v-456z" />
    <glyph glyph-name="SF030000" unicode="&#x2510;" horiz-adv-x="708" 
d="M398 -186h-88v456h-310v88h398v-544z" />
    <glyph glyph-name="SF020000" unicode="&#x2514;" horiz-adv-x="708" 
d="M709 270h-399v544h88v-456h311v-88z" />
    <glyph glyph-name="SF040000" unicode="&#x2518;" horiz-adv-x="708" 
d="M398 270h-398v88h310v456h88v-544z" />
    <glyph glyph-name="SF080000" unicode="&#x251c;" horiz-adv-x="708" 
d="M398 -186h-88v1000h88v-456h311v-88h-311v-456z" />
    <glyph glyph-name="SF090000" unicode="&#x2524;" horiz-adv-x="708" 
d="M398 -186h-88v456h-310v88h310v456h88v-1000z" />
    <glyph glyph-name="SF060000" unicode="&#x252c;" horiz-adv-x="708" 
d="M398 -186h-88v456h-310v88h709v-88h-311v-456z" />
    <glyph glyph-name="SF070000" unicode="&#x2534;" horiz-adv-x="708" 
d="M709 270h-709v88h310v456h88v-456h311v-88z" />
    <glyph glyph-name="SF050000" unicode="&#x253c;" horiz-adv-x="708" 
d="M398 -186h-88v456h-310v88h310v456h88v-456h311v-88h-311v-456z" />
    <glyph glyph-name="SF430000" unicode="&#x2550;" horiz-adv-x="708" 
d="M0 181v89h709v-89h-709zM709 358h-709v88h709v-88z" />
    <glyph glyph-name="SF240000" unicode="&#x2551;" horiz-adv-x="708" 
d="M310 814v-1000h-88v1000h88zM398 -186v1000h89v-1000h-89z" />
    <glyph glyph-name="SF510000" unicode="&#x2552;" horiz-adv-x="708" 
d="M398 -186h-88v632h399v-88h-311v-88h311v-89h-311v-367z" />
    <glyph glyph-name="SF520000" unicode="&#x2553;" horiz-adv-x="708" 
d="M310 270v-456h-88v544h487v-88h-222v-456h-89v456h-88z" />
    <glyph glyph-name="SF390000" unicode="&#x2554;" horiz-adv-x="708" 
d="M310 358v-544h-88v632h487v-88h-399zM487 -186h-89v456h311v-89h-222v-367z" />
    <glyph glyph-name="SF220000" unicode="&#x2555;" horiz-adv-x="708" 
d="M398 -186h-88v367h-310v89h310v88h-310v88h398v-632z" />
    <glyph glyph-name="SF210000" unicode="&#x2556;" horiz-adv-x="708" 
d="M310 270v-456h-88v456h-222v88h487v-544h-89v456h-88z" />
    <glyph glyph-name="SF250000" unicode="&#x2557;" horiz-adv-x="708" 
d="M310 270v-456h-88v367h-222v89h310zM487 -186h-89v544h-398v88h487v-632z" />
    <glyph glyph-name="SF500000" unicode="&#x2558;" horiz-adv-x="708" 
d="M709 181h-399v633h88v-368h311v-88h-311v-88h311v-89z" />
    <glyph glyph-name="SF490000" unicode="&#x2559;" horiz-adv-x="708" 
d="M709 270h-487v544h88v-456h88v456h89v-456h222v-88z" />
    <glyph glyph-name="SF380000" unicode="&#x255a;" horiz-adv-x="708" 
d="M709 181h-487v633h88v-544h399v-89zM709 446v-88h-311v456h89v-368h222z" />
    <glyph glyph-name="SF280000" unicode="&#x255b;" horiz-adv-x="708" 
d="M0 181v89h310v88h-310v88h310v368h88v-633h-398z" />
    <glyph glyph-name="SF270000" unicode="&#x255c;" horiz-adv-x="708" 
d="M487 270h-487v88h222v456h88v-456h88v456h89v-544z" />
    <glyph glyph-name="SF260000" unicode="&#x255d;" horiz-adv-x="708" 
d="M0 181v89h398v544h89v-633h-487zM310 358h-310v88h222v368h88v-456z" />
    <glyph glyph-name="SF360000" unicode="&#x255e;" horiz-adv-x="708" 
d="M398 -186h-88v1000h88v-368h311v-88h-311v-88h311v-89h-311v-367z" />
    <glyph glyph-name="SF370000" unicode="&#x255f;" horiz-adv-x="708" 
d="M310 -186h-88v1000h88v-1000zM487 -186h-89v1000h89v-456h222v-88h-222v-456z" />
    <glyph glyph-name="SF420000" unicode="&#x2560;" horiz-adv-x="708" 
d="M310 -186h-88v1000h88v-1000zM487 -186h-89v456h311v-89h-222v-367zM709 358h-311v456h89v-368h222v-88z" />
    <glyph glyph-name="SF190000" unicode="&#x2561;" horiz-adv-x="708" 
d="M398 -186h-88v367h-310v89h310v88h-310v88h310v368h88v-1000z" />
    <glyph glyph-name="SF200000" unicode="&#x2562;" horiz-adv-x="708" 
d="M310 -186h-88v456h-222v88h222v456h88v-1000zM487 -186h-89v1000h89v-1000z" />
    <glyph glyph-name="SF230000" unicode="&#x2563;" horiz-adv-x="708" 
d="M310 -186h-88v367h-222v89h310v-456zM487 -186h-89v1000h89v-1000zM310 358h-310v88h222v368h88v-456z" />
    <glyph glyph-name="SF470000" unicode="&#x2564;" horiz-adv-x="708" 
d="M0 181v89h709v-89h-311v-367h-88v367h-310zM709 358h-709v88h709v-88z" />
    <glyph glyph-name="SF480000" unicode="&#x2565;" horiz-adv-x="708" 
d="M222 270h-222v88h709v-88h-222v-456h-89v456h-88v-456h-88v456z" />
    <glyph glyph-name="SF410000" unicode="&#x2566;" horiz-adv-x="708" 
d="M0 181v89h310v-456h-88v367h-222zM709 358h-709v88h709v-88zM398 270h311v-89h-222v-367h-89v456z" />
    <glyph glyph-name="SF450000" unicode="&#x2567;" horiz-adv-x="708" 
d="M0 181v89h709v-89h-709zM709 358h-709v88h310v368h88v-368h311v-88z" />
    <glyph glyph-name="SF460000" unicode="&#x2568;" horiz-adv-x="708" 
d="M709 270h-709v88h222v456h88v-456h88v456h89v-456h222v-88z" />
    <glyph glyph-name="SF400000" unicode="&#x2569;" horiz-adv-x="708" 
d="M0 181v89h709v-89h-709zM310 358h-310v88h222v368h88v-456zM709 358h-311v456h89v-368h222v-88z" />
    <glyph glyph-name="SF540000" unicode="&#x256a;" horiz-adv-x="708" 
d="M0 181v89h310v88h-310v88h310v368h88v-368h311v-88h-311v-88h311v-89h-311v-367h-88v367h-310z" />
    <glyph glyph-name="SF530000" unicode="&#x256b;" horiz-adv-x="708" 
d="M222 270h-222v88h222v456h88v-456h88v456h89v-456h222v-88h-222v-456h-89v456h-88v-456h-88v456z" />
    <glyph glyph-name="SF440000" unicode="&#x256c;" horiz-adv-x="708" 
d="M0 181v89h310v-456h-88v367h-222zM310 358h-310v88h222v368h88v-456zM709 358h-311v456h89v-368h222v-88zM398 270h311v-89h-222v-367h-89v456z" />
    <glyph glyph-name="upblock" unicode="&#x2580;" horiz-adv-x="708" 
d="M709 314h-709v500h709v-500z" />
    <glyph glyph-name="dnblock" unicode="&#x2584;" horiz-adv-x="708" 
d="M709 -186h-709v500h709v-500z" />
    <glyph glyph-name="block" unicode="&#x2588;" horiz-adv-x="708" 
d="M709 -186h-709v1000h709v-1000z" />
    <glyph glyph-name="lfblock" unicode="&#x258c;" horiz-adv-x="708" 
d="M354 -186h-354v1000h354v-1000z" />
    <glyph glyph-name="rtblock" unicode="&#x2590;" horiz-adv-x="708" 
d="M709 814v-1000h-355v1000h355z" />
    <glyph glyph-name="ltshade" unicode="&#x2591;" horiz-adv-x="708" 
d="M0 751v62h59v-62h-59zM235 751v62h59v-62h-59zM471 751v62h59v-62h-59zM354 626v63h59v-63h-59zM589 626v63h58v-63h-58zM235 501v62h59v-62h-59zM471 501v62h59v-62h-59zM0 501v62h59v-62h-59zM0 251v63h59v-63h-59zM235 251v63h59v-63h-59zM471 251v63h59v-63h-59zM0 1
v62h59v-62h-59zM235 1v62h59v-62h-59zM471 1v62h59v-62h-59zM118 626v63h58v-63h-58zM354 376v63h59v-63h-59zM589 376v63h58v-63h-58zM118 376v63h58v-63h-58zM354 126v63h59v-63h-59zM589 126v63h58v-63h-58zM118 126v63h58v-63h-58zM354 -124v63h59v-63h-59zM589 -124v63
h58v-63h-58zM118 -124v63h58v-63h-58z" />
    <glyph glyph-name="shade" unicode="&#x2592;" horiz-adv-x="708" 
d="M0 751v62h59v-62h-59zM118 751v62h59v-62h-59zM235 751v62h59v-62h-59zM354 751v62h58v-62h-58zM471 751v62h59v-62h-59zM589 751v62h59v-62h-59zM59 626v63h59v-63h-59zM177 626v63h58v-63h-58zM294 626v63h60v-63h-60zM412 626v63h59v-63h-59zM530 626v63h59v-63h-59z
M648 626v63h59v-63h-59zM118 501v62h59v-62h-59zM235 501v62h59v-62h-59zM354 501v62h58v-62h-58zM471 501v62h59v-62h-59zM589 501v62h59v-62h-59zM0 501v62h59v-62h-59zM59 376v62h59v-62h-59zM177 376v62h58v-62h-58zM294 376v62h60v-62h-60zM412 376v62h59v-62h-59z
M530 376v62h59v-62h-59zM648 376v62h59v-62h-59zM0 251v63h59v-63h-59zM235 251v63h59v-63h-59zM354 251v63h58v-63h-58zM471 251v63h59v-63h-59zM589 251v63h59v-63h-59zM118 251v63h59v-63h-59zM648 126v63h59v-63h-59zM530 126v63h59v-63h-59zM412 126v63h59v-63h-59z
M294 126v63h60v-63h-60zM177 126v63h58v-63h-58zM59 126v63h59v-63h-59zM0 1v62h59v-62h-59zM118 1v62h59v-62h-59zM235 1v62h59v-62h-59zM354 1v62h58v-62h-58zM471 1v62h59v-62h-59zM589 1v62h59v-62h-59zM648 -124v62h59v-62h-59zM530 -124v62h59v-62h-59zM412 -124v62
h59v-62h-59zM294 -124v62h60v-62h-60zM177 -124v62h58v-62h-58zM59 -124v62h59v-62h-59z" />
    <glyph glyph-name="dkshade" unicode="&#x2593;" horiz-adv-x="708" 
d="M0 563v188h59v63h59v-63h59v63h58v-63h59v63h60v-63h58v63h59v-63h59v63h59v-63h59v63h59v-126h-59v-62h59v-187h-59v-63h59v-188h-59v-62h59v-187h-59v-63h59v-62h-707v187h59v62h-59v188h59v63h-59v187h59v62h-59zM118 688h-59v-62h59v62zM235 688h-58v-62h58v62z
M354 688h-60v-62h60v62zM471 688h-59v-62h59v62zM589 688h-59v-62h59v62zM177 501v62h-59v-62h59zM294 563h-59v-62h59v62zM412 563h-58v-62h58v62zM530 563h-59v-62h59v62zM648 563h-59v-62h59v62zM118 439h-59v-63h59v63zM354 439h-60v-63h60v63zM177 376h58v63h-58v-63z
M471 439h-59v-63h59v63zM589 439h-59v-63h59v63zM589 251h59v63h-59v-63zM471 251h59v63h-59v-63zM354 251h58v63h-58v-63zM235 251h59v63h-59v-63zM118 251h59v63h-59v-63zM118 188h-59v-62h59v62zM235 188h-58v-62h58v62zM354 188h-60v-62h60v62zM471 188h-59v-62h59v62z
M589 188h-59v-62h59v62zM589 1h59v62h-59v-62zM471 1h59v62h-59v-62zM354 1h58v62h-58v-62zM235 1h59v62h-59v-62zM118 1h59v62h-59v-62zM118 -61h-59v-63h59v63zM235 -61h-58v-63h58v63zM354 -61h-60v-63h60v63zM471 -61h-59v-63h59v63zM589 -61h-59v-63h59v63z" />
    <glyph glyph-name="filledbox" unicode="&#x25a0;" horiz-adv-x="604" 
d="M71 0v461h461v-461h-461z" />
    <glyph glyph-name="H22073" unicode="&#x25a1;" horiz-adv-x="604" 
d="M71 0v461h461v-461h-461zM495 424h-387v-387h387v387z" />
    <glyph glyph-name="H18543" unicode="&#x25aa;" horiz-adv-x="354" 
d="M64 443l226 1v-227h-226v226z" />
    <glyph glyph-name="H18551" unicode="&#x25ab;" horiz-adv-x="354" 
d="M64 443l226 1v-227h-226v226zM253 254v153l-152 -1v-152h152z" />
    <glyph glyph-name="filledrect" unicode="&#x25ac;" horiz-adv-x="1000" 
d="M166 0v188h668v-188h-668z" />
    <glyph glyph-name="triagup" unicode="&#x25b2;" horiz-adv-x="990" 
d="M842 0h-694l347 693z" />
    <glyph glyph-name="triagrt" unicode="&#x25ba;" horiz-adv-x="990" 
d="M141 -15v707l708 -354z" />
    <glyph glyph-name="triagdn" unicode="&#x25bc;" horiz-adv-x="990" 
d="M148 678h694l-347 -693z" />
    <glyph glyph-name="triaglf" unicode="&#x25c4;" horiz-adv-x="990" 
d="M141 338l708 354v-707z" />
    <glyph glyph-name="lozenge" unicode="&#x25ca;" horiz-adv-x="504" 
d="M222 689h59l186 -344l-186 -345h-59l-185 344zM251 574l-121 -229l121 -230l123 230z" />
    <glyph glyph-name="circle" unicode="&#x25cb;" horiz-adv-x="604" 
d="M302 497q88 0 151.5 -63t63.5 -152t-63 -152t-152 -63t-152 63t-63 152t63.5 152t151.5 63zM302 460q-74 0 -126 -51t-52 -127q0 -74 52 -126t126 -52t126 52t52 126t-52 126t-126 52z" />
    <glyph glyph-name="H18533" unicode="&#x25cf;" horiz-adv-x="604" 
d="M302 497q88 0 151.5 -63t63.5 -152t-63 -152t-152 -63t-152 63t-63 152t63.5 152t151.5 63z" />
    <glyph glyph-name="invbullet" unicode="&#x25d8;" horiz-adv-x="604" 
d="M541 0h-479v479h479v-479zM302 338q-41 0 -70 -29t-29 -70q0 -40 29 -69t70 -29t69.5 29t28.5 69q0 41 -28.5 70t-69.5 29z" />
    <glyph glyph-name="invcircle" unicode="&#x25d9;" horiz-adv-x="604" 
d="M584 0h-563v564h563v-564zM302 497q-83 5 -151 -62.5t-64 -152.5q0 -89 63 -152t152 -63q90 0 153 63t63 152q4 85 -64 152.5t-152 62.5zM303 460q69 3 125 -52.5t52 -125.5q0 -74 -52 -126t-125 -52q-74 0 -126 52t-52 126q-4 71 52 126t126 52z" />
    <glyph glyph-name="openbullet" unicode="&#x25e6;" horiz-adv-x="354" 
d="M177 453q51 0 87 -36t36 -86q0 -51 -36 -87t-87 -36t-87 36q-35 37 -35 87q0 49 35 86q36 36 87 36zM177 416q-35 0 -60 -25t-25 -60q0 -36 25 -61t60 -25t60.5 25t25.5 61q0 35 -25 60t-61 25z" />
    <glyph glyph-name="smileface" unicode="&#x263a;" horiz-adv-x="1000" 
d="M500 564q79 0 153 -40q75 -41 117 -115q42 -75 42 -156q0 -82 -42 -155q-41 -74 -115 -115t-155 -41t-155 41q-73 40 -116 115q-41 74 -41 155t42 156q41 74 116 115q74 40 154 40zM500 519q-66 0 -131 -35q-64 -35 -99 -98q-36 -64 -36 -133q0 -68 35 -132
q35 -62 98 -98t133 -36q68 0 132 35q63 35 98.5 98t35.5 133q0 69 -36 133q-35 62 -98 97.5t-132 35.5zM380 357q17 0 28.5 -11.5t11.5 -28.5q0 -16 -11.5 -27.5t-28.5 -11.5q-16 0 -27.5 11.5t-11.5 27.5q0 17 11.5 28.5t27.5 11.5zM619 357q17 0 28.5 -11.5t11.5 -28.5
q0 -16 -11.5 -27.5t-28.5 -11.5q-16 0 -27.5 11.5t-11.5 27.5q0 17 11.5 28.5t27.5 11.5zM356 153l31 17q37 -70 113 -70t113 70l31 -17q-50 -95 -144 -95t-144 95z" />
    <glyph glyph-name="invsmileface" unicode="&#x263b;" horiz-adv-x="1000" 
d="M500 564q79 0 153 -40q75 -41 117 -115q42 -75 42 -156q0 -82 -42 -155q-41 -74 -115 -115t-155 -41t-155 41q-73 40 -116 115q-41 74 -41 155t42 156q41 74 116 115q74 40 154 40zM380 357q-16 0 -27.5 -11.5t-11.5 -28.5q0 -16 11.5 -27.5t27.5 -11.5q17 0 28.5 11.5
t11.5 27.5q0 17 -11.5 28.5t-28.5 11.5zM619 357q-16 0 -27.5 -11.5t-11.5 -28.5q0 -16 11.5 -27.5t27.5 -11.5q17 0 28.5 11.5t11.5 27.5q0 17 -11.5 28.5t-28.5 11.5zM387 170l-31 -17q50 -95 144 -95t144 95l-31 17q-37 -70 -113 -70t-113 70z" />
    <glyph glyph-name="sun" unicode="&#x263c;" horiz-adv-x="917" 
d="M440 627v165h38v-165q93 -6 170 -69l142 139l25 -26l-140 -140q36 -47 51 -82q19 -48 20 -91h163v-33h-163q-11 -96 -70 -172l139 -142l-28 -24l-138 138q-49 -37 -84 -50q-33 -13 -87 -19v-165h-38v165q-97 12 -168 67l-144 -136l-24 25l139 140q-61 77 -71 173h-164v33
h164q7 94 70 171l-138 140l23 28l143 -138q88 61 170 68zM458 591q-62 0 -124 -32q-59 -32 -92.5 -91.5t-33.5 -126.5q0 -64 32 -125q32 -58 92 -91.5t126 -33.5q64 0 124 33q59 32 92.5 91.5t33.5 125.5t-34 125q-32 59 -91.5 92t-124.5 33z" />
    <glyph glyph-name="female" unicode="&#x2640;" horiz-adv-x="750" 
d="M389 225v-196h224v-29h-224v-186h-29v186h-225v29h225v196q-49 0 -110 32q-60 32 -95.5 93t-35.5 130q0 66 34 127q33 60 93.5 94.5t128.5 34.5q66 0 127 -34q60 -33 94 -94t34 -128q0 -103 -70 -176q-72 -75 -171 -79zM375 708q-57 0 -113 -30q-54 -29 -85 -83.5
t-31 -115.5q0 -95 67 -162t162 -67t162 67t67 162q4 91 -68.5 162.5t-160.5 66.5z" />
    <glyph glyph-name="male" unicode="&#x2642;" horiz-adv-x="750" 
d="M294 643l300 148l17 -8l80 -325l-28 -7l-69 283l-175 -375q71 -35 108.5 -96.5t37.5 -134.5q0 -66 -34 -127q-32 -60 -93 -94.5t-128 -34.5t-128 34q-59 33 -93.5 94t-34.5 128q0 106 75 180q75 75 182 75q39 0 81 -13l176 377l-262 -130zM310 357q-58 0 -113 -30
q-54 -29 -85 -83.5t-31 -115.5q0 -95 67 -162q68 -68 162 -68t162 68q67 67 67 162q0 59 -31 114q-29 54 -83.5 84.5t-114.5 30.5z" />
    <glyph glyph-name="spade" unicode="&#x2660;" horiz-adv-x="656" 
d="M329 601q12 -52 38 -95q28 -42 94 -102q69 -63 86 -94q18 -33 18 -67q0 -46 -31 -77.5t-75 -31.5q-41 0 -75 28q-27 21 -50 65q2 -106 43.5 -152.5t141.5 -56.5l3 -18h-387l4 18q91 0 140 53t47 156q-44 -93 -128 -93q-44 0 -76 32q-31 31 -31 75q0 37 15 65q22 40 72 81
t73 67q35 39 52 72t26 75z" />
    <glyph glyph-name="club" unicode="&#x2663;" horiz-adv-x="656" 
d="M532 17l4 -17h-414l4 17q82 17 107 33q39 25 64.5 74t25.5 103q0 12 -1 23q-58 -117 -159 -117q-57 0 -97 39q-39 40 -39 98t36 95q36 38 81 40q32 -2 81 -26q-33 53 -33 89q0 56 38 94q39 39 97 39q57 0 96 -39q40 -37 40 -92q0 -44 -34 -91q43 21 50 22q12 4 29 4
q49 0 85 -38q36 -37 36 -95q0 -59 -40 -99q-38 -38 -95 -40q-66 4 -119 55q-18 22 -42 62q2 -77 23 -122.5t67 -75.5q33 -20 109 -35z" />
    <glyph glyph-name="heart" unicode="&#x2665;" horiz-adv-x="656" 
d="M329 -12q-15 60 -43 108q-29 52 -109 157q-69 94 -73 100q-42 65 -42 120q0 53 36 91q36 37 88 37q54 0 95 -39q30 -28 48 -84q17 56 45 84q40 39 93 39q54 0 90 -36q37 -36 37 -86q0 -44 -21 -92q-21 -46 -83 -125q-77 -98 -117 -166q-29 -54 -44 -108z" />
    <glyph glyph-name="diamond" unicode="&#x2666;" horiz-adv-x="656" 
d="M328 603q44 -77 106 -160q80 -107 118 -148q-30 -31 -118 -148q-64 -86 -106 -159q-15 28 -36 59l-99 137l-89 111q41 46 127 160q55 72 97 148z" />
    <glyph glyph-name="musicalnote" unicode="&#x266a;" horiz-adv-x="500" 
d="M237 189v477h19q86 0 111 -7q40 -11 68 -38q47 -44 47 -145v-50h-48v21q0 66 -56 92q-34 15 -79 15h-13v-408q0 -60 -16 -92q-16 -33 -54 -52.5t-83 -19.5q-53 0 -84 30t-31 79q0 52 37.5 86.5t96.5 34.5q37 0 85 -23z" />
    <glyph glyph-name="musicalnotedbl" unicode="&#x266b;" horiz-adv-x="750" 
d="M261 145v476l388 121v-541q0 -61 -15 -92q-15 -30 -52.5 -50t-82.5 -20q-53 0 -85 30t-32 79q0 50 37 84q37 36 98 36q33 0 83 -21v353l-291 -90v-408q0 -61 -16 -93q-15 -32 -53 -52t-83 -20q-53 0 -84 30t-31 79q0 52 37.5 86.5t96.5 34.5q40 0 85 -22z" />
    <glyph glyph-name="uniF8FF" unicode="&#xf8ff;" horiz-adv-x="512" 
d="M278 117h-56v67h56v-67zM271 234h-46l-2 17q0 56 13 81q15 28 46 59q31 29 40.5 46t9.5 37q0 36 -22.5 60.5t-53.5 24.5q-71 0 -82 -95l-50 8q7 69 43 103t92 34q54 0 89 -36t35 -95q0 -34 -13 -60t-50 -60q-37 -33 -43 -52q-6 -20 -6 -72zM50 50h412v617h-412v-617z
M0 718h512v-718h-512v718z" />
    <glyph glyph-name="fi" unicode="&#xfb01;" horiz-adv-x="544" 
d="M253 690q35 0 68 -9v-97q-21 9 -51 9q-37 0 -56 -24.5t-19 -82.5v-20h96v-93h-96v-373h-118v373h-69v93h69v17q0 98 47 152.5t129 54.5zM423 655q25 0 42.5 -17.5t17.5 -41.5q0 -25 -17.5 -42.5t-42.5 -17.5q-24 0 -41.5 18t-17.5 42q0 23 17 41t42 18zM365 466h117v-466
h-117v466z" />
    <glyph glyph-name="fl" unicode="&#xfb02;" horiz-adv-x="544" 
d="M253 690q35 0 68 -9v-96q-24 8 -51 8q-37 0 -56 -24.5t-19 -82.5v-20h96v-93h-96v-373h-118v373h-69v93h69v17q0 97 46 152t130 55zM365 682h117v-682h-117v682z" />
    <glyph glyph-name="uniFEFF" unicode="&#xfeff;" horiz-adv-x="0" 
 />
    <glyph glyph-name="zero.denominator" 
d="M168 358q63 0 103 -49.5t40 -131.5t-40.5 -132t-104.5 -50t-104 49t-40 132q0 92 44 137t102 45zM108 176q0 -118 58 -118q27 0 43 32t16 86q0 59 -16.5 89.5t-43.5 30.5q-26 0 -41.5 -31.5t-15.5 -88.5z" />
    <glyph glyph-name="one.denominator" 
d="M176 352h48v-352h-86v229l-48 -38l-41 55z" />
    <glyph glyph-name="two.denominator" 
d="M25 0v10q25 23 85 88q47 50 65 80t18 58q0 25 -16.5 40t-43.5 15q-51 0 -97 -55v84q53 38 112 38q56 0 93.5 -30.5t37.5 -80.5q0 -36 -24 -76t-87 -105h140v-66h-283z" />
    <glyph glyph-name="three.denominator" 
d="M146 358q58 0 94 -26.5t36 -70.5q0 -48 -47 -75q54 -25 54 -84q0 -47 -38.5 -77t-95.5 -30q-52 0 -106 23v73q52 -32 95 -32q26 0 41.5 12t15.5 33q0 48 -83 49v58h8q71 0 71 44q0 19 -15.5 31t-42.5 12q-38 0 -79 -23v64q50 19 92 19z" />
    <glyph glyph-name="four.denominator" 
d="M213 356h52v-199h46v-56h-46v-101h-81v101h-171v41zM184 157v88l-81 -88h81z" />
    <glyph glyph-name="five.denominator" 
d="M74 352h204v-62h-130l-2 -72q69 0 107.5 -30t38.5 -78q0 -51 -39.5 -83t-103.5 -32q-57 0 -110 24v68q49 -28 93 -28q32 0 52 15t20 38q0 25 -23 39.5t-62 15.5q-28 0 -52 -8z" />
    <glyph glyph-name="six.denominator" 
d="M171 -5q-56 0 -98.5 34t-42.5 99q0 64 43.5 124.5t126.5 107.5l60 -44q-81 -42 -116 -106q17 6 39 6q53 0 88.5 -30.5t35.5 -76.5q0 -47 -38.5 -80.5t-97.5 -33.5zM112 116q0 -27 17 -43t42 -16q24 0 39 15t15 37q0 24 -16 38t-43 14q-22 0 -38 -10.5t-16 -34.5z" />
    <glyph glyph-name="seven.denominator" 
d="M41 353h286v-4l-182 -353l-80 22l138 268h-162v67z" />
    </font>
</defs>
</svg>
